<svg xmlns="http://www.w3.org/2000/svg" xmlns:xlink="http://www.w3.org/1999/xlink" viewBox="0 0 124.52 137.72"><defs><style>.cls-1{fill:url(#linear-gradient);}.cls-2{fill:url(#linear-gradient-2);}.cls-3{fill:url(#linear-gradient-3);}</style><linearGradient id="linear-gradient" x1="75.06" y1="-0.19" x2="75.06" y2="137.51" gradientTransform="matrix(1, 0, 0, -1, 0, 137.53)" gradientUnits="userSpaceOnUse"><stop offset="0.06" stop-color="#ff0745"/><stop offset="0.51" stop-color="#9e2c74"/><stop offset="0.91" stop-color="#0a2143"/></linearGradient><linearGradient id="linear-gradient-2" x1="61.12" y1="73.7" x2="61.12" y2="111.85" gradientTransform="matrix(1, 0, 0, -1, 0, 137.53)" gradientUnits="userSpaceOnUse"><stop offset="0.06" stop-color="#ff0745"/><stop offset="0.51" stop-color="#9e2c74"/><stop offset="0.96" stop-color="#0a2143"/></linearGradient><linearGradient id="linear-gradient-3" x1="124.52" y1="111.97" x2="0" y2="111.97" gradientTransform="matrix(1, 0, 0, -1, 0, 137.53)" gradientUnits="userSpaceOnUse"><stop offset="0.06" stop-color="#ff0745"/><stop offset="0.51" stop-color="#9e2c74"/><stop offset="0.95" stop-color="#0a2143"/></linearGradient></defs><g id="Layer_2" data-name="Layer 2"><g id="Layer_1-2" data-name="Layer 1"><path class="cls-1" d="M100.63,0a25.26,25.26,0,0,0-7.52,1.13A25.64,25.64,0,0,0,76.17,18a26,26,0,0,0-1.1,7.54v99.35a8.28,8.28,0,0,1-.16,1.57,12.65,12.65,0,0,1-12.64,11.23,12.28,12.28,0,0,1-2.51-.25H59.7a12.82,12.82,0,0,1-10.2-12.54V25.58A26.33,26.33,0,0,1,50.6,18,25.62,25.62,0,0,1,67.54,1.16,24.89,24.89,0,0,1,75.06,0h25.57Z"/><path class="cls-2" d="M49.51,63.83a55.5,55.5,0,0,1,1.13-11.27c2.46-12.1,8.81-21.63,16.88-25.39a18.61,18.61,0,0,1,5.21-1.49,26.18,26.18,0,0,0-5.21.93A25.62,25.62,0,0,0,50.64,43.55a24.89,24.89,0,0,0-1.13,7.52Z"/><path class="cls-3" d="M111.73,0a12.79,12.79,0,0,1,12.79,12.79h0a12.69,12.69,0,0,1-1.69,6.36c-.11.19-.22.36-.33.52a12.48,12.48,0,0,1-1.74,2.16,11,11,0,0,1-1.88,1.57c-.25.17-.52.33-.77.47a8.75,8.75,0,0,1-1.41.69c-.17.08-.36.17-.58.25s-.39.14-.58.19c-.41.11-.8.22-1.22.3a4,4,0,0,1-.58.11,12.24,12.24,0,0,1-2,.17H74.39a26.74,26.74,0,0,0-6.88,1.08,25.66,25.66,0,0,0-16.88,17,24.84,24.84,0,0,0-1.13,7.49V25.59H12.77A12.79,12.79,0,0,1,.17,10.7C1.11,4.77,7.28,0,13.29,0Z"/></g></g></svg>