<?xml version="1.0" encoding="utf-8"?>
<!-- Generator: Adobe Illustrator 25.2.3, SVG Export Plug-In . SVG Version: 6.00 Build 0)  -->
<svg version="1.1" id="Layer_1" xmlns="http://www.w3.org/2000/svg" xmlns:xlink="http://www.w3.org/1999/xlink" x="0px" y="0px"
	 viewBox="0 0 440.1 140.8" style="enable-background:new 0 0 440.1 140.8;" xml:space="preserve">
<style type="text/css">
	.st0{fill:url(#SVGID_1_);}
	.st1{fill:url(#SVGID_2_);}
	.st2{fill:url(#SVGID_3_);}
</style>
<g>
	<path d="M171.9,74.7h-9.8v64.5h-5.6V74.7h-9.9v-6.4h25.2L171.9,74.7L171.9,74.7z"/>
	<path d="M203.5,139.2h-5.3v-1.4c-2.1,0.4-4.3,0.7-6.4,1.1c-2.6,0.4-4.8,0.6-6.3,0.6c-2.9,0-4.4-1.9-4.4-5.6v-14.3
		c0-3.9,1.5-5.8,4.6-5.8h12.6v-13.1h-11.6v8.6h-5.2v-8.5c0-3.9,1.5-5.8,4.5-5.8H199c3,0,4.5,2,4.5,5.8L203.5,139.2L203.5,139.2z
		 M198.3,132.9v-13.8h-12v14.1L198.3,132.9z"/>
	<path d="M241.5,128.4c0,3.1-0.8,5.7-2.4,7.7c-1.6,2-3.6,3.1-6,3.1h-14.2V68.4h5.4v28c2.1-0.3,4.3-0.7,6.4-1
		c2.7-0.5,4.8-0.7,6.3-0.7c3,0,4.5,1.9,4.5,5.6L241.5,128.4L241.5,128.4z M236.1,127.3v-26.3l-11.8,0.4v31.6h7.4
		C234.7,133.1,236.1,131.2,236.1,127.3z"/>
	<path d="M271,139.2h-7.6c-3,0-4.5-2-4.5-5.8V101h-4.7v-6h4.7V79.2h5.3v15.7h6.9v6h-6.9v32.1h6.9L271,139.2L271,139.2z"/>
	<path d="M290.2,86.5h-5.5v-7.2h5.5V86.5z M290.1,139.2h-5.3V94.9h5.3V139.2z"/>
	<path d="M345.4,139.2H340v-38.1l-11.7,0.4v37.7H323v-38.1l-11.7,0.4v37.7h-5.4V94.9h5.4v1.4c2.1-0.3,4.2-0.7,6.3-1.1
		c2.6-0.4,4.7-0.6,6.3-0.6c1.6,0,2.9,0.6,3.6,1.9c2.3-0.4,4.5-0.8,6.8-1.2c2.9-0.5,5.2-0.7,6.7-0.7c3,0,4.4,1.9,4.4,5.6L345.4,139.2
		L345.4,139.2z"/>
	<path d="M366.4,139.2h-5.3V94.9h5.3V139.2z M366.4,86.5H361v-7.2h5.5V86.5z"/>
	<path d="M401,139.2h-20.7V136l14.4-34.9h-12.9v-6.1h19.2v3.2L386.6,133h14.4L401,139.2L401,139.2z"/>
	<path d="M437.2,133.3c0,3.9-1.5,5.8-4.5,5.8h-12.9c-3,0-4.5-2-4.5-5.8v-32.6c0-3.9,1.5-5.8,4.5-5.8h12.9c3,0,4.5,2,4.5,5.8v16.1
		l-1.8,2.4h-15v14.2H432v-9.2h5.2V133.3z M432,113.8v-13.1h-11.6v13.1H432z"/>
</g>
<g>
	
		<linearGradient id="SVGID_1_" gradientUnits="userSpaceOnUse" x1="77.0121" y1="1.4143" x2="77.0121" y2="139.1143" gradientTransform="matrix(1 0 0 -1 0 140.7387)">
		<stop  offset="5.500000e-02" style="stop-color:#FF0745"/>
		<stop  offset="0.5056" style="stop-color:#9E2C74"/>
		<stop  offset="0.913" style="stop-color:#0A2143"/>
	</linearGradient>
	<path class="st0" d="M102.6,1.6c-2.6,0-5.1,0.4-7.5,1.1C87,5.2,80.6,11.6,78.1,19.6C77.4,22,77,24.6,77,27.2v99.4
		c0,0.5-0.1,1-0.2,1.6c-0.4,2.9-1.6,5.5-3.6,7.5c-2.3,2.3-5.5,3.7-9,3.7c-0.9,0-1.7-0.1-2.5-0.2c0,0,0,0-0.1,0
		c-5.8-1.2-10.2-6.4-10.2-12.5V27.2c0-2.6,0.4-5.2,1.1-7.5c2.5-8.1,8.9-14.4,16.9-16.9C71.9,2,74.4,1.6,77,1.6L102.6,1.6L102.6,1.6z
		"/>
	
		<linearGradient id="SVGID_2_" gradientUnits="userSpaceOnUse" x1="63.0671" y1="75.3043" x2="63.0671" y2="113.4543" gradientTransform="matrix(1 0 0 -1 0 140.7387)">
		<stop  offset="5.500000e-02" style="stop-color:#FF0745"/>
		<stop  offset="0.5056" style="stop-color:#9E2C74"/>
		<stop  offset="0.962" style="stop-color:#0A2143"/>
	</linearGradient>
	<path class="st1" d="M51.5,65.4c0-3.9,0.4-7.7,1.1-11.3c2.5-12.1,8.8-21.6,16.9-25.4c1.7-0.8,3.4-1.2,5.2-1.5
		c-1.8,0.2-3.6,0.4-5.2,0.9c-8.1,2.5-14.4,8.9-16.9,16.9c-0.8,2.4-1.1,4.9-1.1,7.5V65.4z"/>
	
		<linearGradient id="SVGID_3_" gradientUnits="userSpaceOnUse" x1="126.4671" y1="113.5743" x2="1.9474" y2="113.5743" gradientTransform="matrix(1 0 0 -1 0 140.7387)">
		<stop  offset="5.500000e-02" style="stop-color:#FF0745"/>
		<stop  offset="0.5056" style="stop-color:#9E2C74"/>
		<stop  offset="0.947" style="stop-color:#0A2143"/>
	</linearGradient>
	<path class="st2" d="M113.7,1.6c7.1,0,12.8,5.7,12.8,12.8l0,0c0,2.3-0.6,4.5-1.7,6.4c-0.1,0.2-0.2,0.4-0.3,0.5
		c-0.5,0.8-1.1,1.5-1.7,2.2c-0.6,0.6-1.2,1.1-1.9,1.6c-0.2,0.2-0.5,0.3-0.8,0.5c-0.5,0.3-0.9,0.5-1.4,0.7c-0.2,0.1-0.4,0.2-0.6,0.2
		c-0.2,0.1-0.4,0.1-0.6,0.2c-0.4,0.1-0.8,0.2-1.2,0.3c-0.2,0.1-0.4,0.1-0.6,0.1c-0.7,0.1-1.3,0.2-2,0.2H76.3
		c-2.4,0.1-4.7,0.4-6.9,1.1c-8.1,2.5-14.4,8.9-16.9,17c-0.8,2.4-1.1,4.9-1.1,7.5V27.2H14.7c-3.5,0-6.7-1.4-9-3.8
		c-2.7-2.8-4.3-6.8-3.6-11.1C3.1,6.4,9.2,1.6,15.2,1.6L113.7,1.6z"/>
</g>
</svg>
