<svg xmlns="http://www.w3.org/2000/svg" xmlns:xlink="http://www.w3.org/1999/xlink" viewBox="0 0 201.58 245.88"><defs><style>.cls-1{fill:#102243;}.cls-2{fill:url(#Tabtimize);}.cls-3{fill:url(#Tabtimize-2);}.cls-4{fill:url(#Tabtimize-3);}.cls-5{fill:url(#Tabtimize-4);}.cls-6{fill:url(#Tabtimize-5);}</style><linearGradient id="Tabtimize" x1="30.94" y1="110.04" x2="59.68" y2="110.04" gradientUnits="userSpaceOnUse"><stop offset="0" stop-color="#102343"/><stop offset="0.27" stop-color="#7a2e77"/><stop offset="1" stop-color="#ef3f56"/></linearGradient><linearGradient id="Tabtimize-2" x1="30.94" y1="73.46" x2="59.68" y2="73.46" xlink:href="#Tabtimize"/><linearGradient id="Tabtimize-3" x1="45.93" y1="37.08" x2="80.1" y2="37.08" xlink:href="#Tabtimize"/><linearGradient id="Tabtimize-4" x1="81.49" y1="32.69" x2="127.05" y2="32.69" xlink:href="#Tabtimize"/><linearGradient id="Tabtimize-5" x1="128.45" y1="37.08" x2="162.62" y2="37.08" xlink:href="#Tabtimize"/></defs><g id="Layer_2" data-name="Layer 2"><g id="Layer_1-2" data-name="Layer 1"><path class="cls-1" d="M102.77,199.08a1.14,1.14,0,0,1-.83-.31,1.06,1.06,0,0,1-.32-.78v-9.08l.25.4-1.37.83a1.08,1.08,0,0,1-.58.16,1,1,0,0,1-.77-.35,1.13,1.13,0,0,1-.31-.75,1,1,0,0,1,.56-.93l2.72-1.62a1.61,1.61,0,0,1,.78-.17,1,1,0,0,1,.76.32,1.09,1.09,0,0,1,.3.78V198a1,1,0,0,1-.34.78A1.17,1.17,0,0,1,102.77,199.08Z" transform="translate(-0.65)"/><path class="cls-1" d="M107.43,199.07a1.11,1.11,0,0,1-.8-.28,1.08,1.08,0,0,1-.28-.8v-.31a1,1,0,0,1,1.08-1.08h.23a1.09,1.09,0,0,1,.81.28,1.11,1.11,0,0,1,.27.8V198a1.12,1.12,0,0,1-.27.8,1.14,1.14,0,0,1-.81.28Z" transform="translate(-0.65)"/><path class="cls-1" d="M5.17,220.86a5.63,5.63,0,0,1-2.38-.42A6.54,6.54,0,0,1,.86,219.1a1,1,0,0,1-.15-.2.49.49,0,0,1-.06-.25.55.55,0,0,1,.17-.4.51.51,0,0,1,.39-.18.54.54,0,0,1,.39.18,4.93,4.93,0,0,0,1.59,1.16,4.78,4.78,0,0,0,1.92.39,4.11,4.11,0,0,0,1.54-.27,2.53,2.53,0,0,0,1.07-.77,1.82,1.82,0,0,0,.4-1.17,2,2,0,0,0-.46-1.33,3.55,3.55,0,0,0-1.18-.85,9.83,9.83,0,0,0-1.64-.59c-.49-.16-1-.33-1.41-.52a4.74,4.74,0,0,1-1.19-.68,2.79,2.79,0,0,1-.8-1,3.27,3.27,0,0,1-.29-1.42,2.94,2.94,0,0,1,.51-1.7,3.28,3.28,0,0,1,1.43-1.17,5.15,5.15,0,0,1,2.15-.43,5.84,5.84,0,0,1,2,.36,3.54,3.54,0,0,1,1.56,1.07.8.8,0,0,1,.27.52.52.52,0,0,1-.18.37.58.58,0,0,1-.4.17.38.38,0,0,1-.3-.13,3.2,3.2,0,0,0-.78-.67,4,4,0,0,0-1-.46A4.2,4.2,0,0,0,5.24,209a4,4,0,0,0-1.52.26,2.48,2.48,0,0,0-1.07.74,1.9,1.9,0,0,0-.38,1.19,1.72,1.72,0,0,0,.43,1.23,3.43,3.43,0,0,0,1.13.8c.47.21,1,.4,1.5.58s1,.31,1.48.5a4.76,4.76,0,0,1,1.26.69,2.92,2.92,0,0,1,.87,1,3.55,3.55,0,0,1,.31,1.59,2.77,2.77,0,0,1-.52,1.65,3.52,3.52,0,0,1-1.43,1.17A5.06,5.06,0,0,1,5.17,220.86Z" transform="translate(-0.65)"/><path class="cls-1" d="M15.62,220.86a4.86,4.86,0,0,1-2.45-.59,4.25,4.25,0,0,1-1.65-1.66,4.92,4.92,0,0,1-.59-2.48,5.3,5.3,0,0,1,.6-2.61,4.49,4.49,0,0,1,1.56-1.67,4,4,0,0,1,2.05-.58,4.28,4.28,0,0,1,1.54.28,3.73,3.73,0,0,1,1.32.83,4.24,4.24,0,0,1,.94,1.34,4.56,4.56,0,0,1,.37,1.83.47.47,0,0,1-.16.37.55.55,0,0,1-.38.16H11.56l-.22-1h7.07l-.23.22V215a2.62,2.62,0,0,0-.54-1.43,3.18,3.18,0,0,0-1.13-.9,3.1,3.1,0,0,0-1.37-.32,3.22,3.22,0,0,0-1.11.22,2.85,2.85,0,0,0-1,.68,3.4,3.4,0,0,0-.74,1.17,4.47,4.47,0,0,0-.29,1.68A4.17,4.17,0,0,0,12.4,218a3.29,3.29,0,0,0,1.24,1.37,3.63,3.63,0,0,0,2,.51,3.27,3.27,0,0,0,1.11-.18,3.16,3.16,0,0,0,.89-.48,3.8,3.8,0,0,0,.64-.62.56.56,0,0,1,.38-.16.42.42,0,0,1,.33.14.47.47,0,0,1,.14.32.49.49,0,0,1-.18.38,4.9,4.9,0,0,1-1.41,1.13A3.89,3.89,0,0,1,15.62,220.86Z" transform="translate(-0.65)"/><path class="cls-1" d="M21,211.52h4.2a.46.46,0,0,1,.36.16.52.52,0,0,1,.14.36.5.5,0,0,1-.5.51H21a.5.5,0,0,1-.37-.16.49.49,0,0,1-.15-.36.46.46,0,0,1,.15-.36A.53.53,0,0,1,21,211.52ZM22.81,209a.5.5,0,0,1,.38.17.52.52,0,0,1,.16.37v9a1.67,1.67,0,0,0,.13.76.69.69,0,0,0,.35.33,1.35,1.35,0,0,0,.43.08.53.53,0,0,0,.26,0,.77.77,0,0,1,.27,0,.34.34,0,0,1,.27.13.44.44,0,0,1,.12.32.47.47,0,0,1-.29.42,1.25,1.25,0,0,1-.68.17c-.11,0-.27,0-.49,0a2,2,0,0,1-.66-.2,1.4,1.4,0,0,1-.58-.6,2.78,2.78,0,0,1-.23-1.25v-9.09a.49.49,0,0,1,.16-.37A.54.54,0,0,1,22.81,209Z" transform="translate(-0.65)"/><path class="cls-1" d="M34.52,211.54a.5.5,0,0,1,.39.16.55.55,0,0,1,.15.38v5.08a3.52,3.52,0,0,1-1,2.71,3.83,3.83,0,0,1-2.72.94,3.77,3.77,0,0,1-2.71-.94,3.52,3.52,0,0,1-1-2.71v-5.08a.52.52,0,0,1,.16-.38.54.54,0,0,1,.4-.16.49.49,0,0,1,.38.16.52.52,0,0,1,.16.38v5.08a2.63,2.63,0,1,0,5.24,0v-5.08a.55.55,0,0,1,.15-.38A.52.52,0,0,1,34.52,211.54Z" transform="translate(-0.65)"/><path class="cls-1" d="M42.26,211.41a3.88,3.88,0,0,1,2.17.61,4.38,4.38,0,0,1,1.51,1.65,5.62,5.62,0,0,1,0,4.85,4.41,4.41,0,0,1-1.52,1.68,3.85,3.85,0,0,1-2.14.61,3.68,3.68,0,0,1-1.2-.19,4.5,4.5,0,0,1-1-.51,4,4,0,0,1-.83-.77,3.81,3.81,0,0,1-.57-.94l.32-.25v5.59a.54.54,0,0,1-.15.38.53.53,0,0,1-.39.16.54.54,0,0,1-.4-.16.55.55,0,0,1-.16-.38V212a.57.57,0,0,1,.15-.4.54.54,0,0,1,.41-.16.53.53,0,0,1,.39.16.57.57,0,0,1,.15.4V214l-.25-.14a3,3,0,0,1,.53-1,3.5,3.5,0,0,1,.82-.76,3.39,3.39,0,0,1,1-.47A4.14,4.14,0,0,1,42.26,211.41Zm-.09,1a3.1,3.1,0,0,0-1.71.48,3.36,3.36,0,0,0-1.16,1.29,4.12,4.12,0,0,0-.42,1.9A4.22,4.22,0,0,0,39.3,218a3.19,3.19,0,0,0,1.16,1.32,3.1,3.1,0,0,0,1.71.48,3,3,0,0,0,1.69-.48A3.23,3.23,0,0,0,45,218a4.22,4.22,0,0,0,.42-1.91A4.17,4.17,0,0,0,45,214.2a3.38,3.38,0,0,0-1.15-1.3A3,3,0,0,0,42.17,212.42Z" transform="translate(-0.65)"/><path class="cls-1" d="M60.5,211.32a.5.5,0,0,1,.38.17.49.49,0,0,1,.16.37v7.94a4.82,4.82,0,0,1-.58,2.46,3.75,3.75,0,0,1-1.55,1.51,4.65,4.65,0,0,1-2.21.51,5.39,5.39,0,0,1-1.43-.17,3.73,3.73,0,0,1-1.07-.42.9.9,0,0,1-.33-.31.39.39,0,0,1,0-.39.56.56,0,0,1,.27-.34.48.48,0,0,1,.39,0c.21.11.5.24.88.4a3.45,3.45,0,0,0,1.32.23,3.33,3.33,0,0,0,1.71-.41,2.83,2.83,0,0,0,1.12-1.2,4,4,0,0,0,.41-1.86v-1.3l.12.45a3.09,3.09,0,0,1-.77,1,4,4,0,0,1-1.13.67,3.8,3.8,0,0,1-1.35.24,3.34,3.34,0,0,1-1.8-.44A2.77,2.77,0,0,1,54,219.21a4.44,4.44,0,0,1-.35-1.82v-5.53a.51.51,0,0,1,.15-.37.55.55,0,0,1,.41-.17.54.54,0,0,1,.39.17.51.51,0,0,1,.15.37v5.37a3,3,0,0,0,.55,1.94,2.14,2.14,0,0,0,1.79.69,2.86,2.86,0,0,0,1.42-.37,3.19,3.19,0,0,0,1.06-1,2.25,2.25,0,0,0,.42-1.29v-5.37a.5.5,0,0,1,.14-.37A.51.51,0,0,1,60.5,211.32Z" transform="translate(-0.65)"/><path class="cls-1" d="M72.27,216.08a5,5,0,0,1-.6,2.45A4.55,4.55,0,0,1,70,220.24a4.65,4.65,0,0,1-4.64,0,4.5,4.5,0,0,1-1.64-1.71,5.34,5.34,0,0,1,0-4.92,4.64,4.64,0,0,1,1.64-1.71,4.59,4.59,0,0,1,4.64,0,4.7,4.7,0,0,1,1.63,1.71A5,5,0,0,1,72.27,216.08Zm-1.1,0a4.14,4.14,0,0,0-.45-2,3.46,3.46,0,0,0-1.23-1.34,3.52,3.52,0,0,0-3.55,0,3.56,3.56,0,0,0-1.24,1.34,4,4,0,0,0-.46,2A4,4,0,0,0,64.7,218a3.64,3.64,0,0,0,1.24,1.34,3.4,3.4,0,0,0,3.55,0A3.53,3.53,0,0,0,70.72,218,4.05,4.05,0,0,0,71.17,216.08Z" transform="translate(-0.65)"/><path class="cls-1" d="M81.36,211.54a.53.53,0,0,1,.39.16.55.55,0,0,1,.15.38v5.08a3.52,3.52,0,0,1-1,2.71,4.39,4.39,0,0,1-5.43,0,3.55,3.55,0,0,1-1-2.71v-5.08a.53.53,0,0,1,.17-.38.51.51,0,0,1,.39-.16.5.5,0,0,1,.39.16.55.55,0,0,1,.15.38v5.08a2.38,2.38,0,0,0,2.61,2.64,2.38,2.38,0,0,0,2.63-2.64v-5.08a.55.55,0,0,1,.15-.38A.54.54,0,0,1,81.36,211.54Z" transform="translate(-0.65)"/><path class="cls-1" d="M85.26,220.68a.52.52,0,0,1-.4-.16.54.54,0,0,1-.15-.38v-8.06a.52.52,0,0,1,.16-.38.53.53,0,0,1,.39-.16.5.5,0,0,1,.39.16.55.55,0,0,1,.15.38v2.7l-.27.05a4.43,4.43,0,0,1,.32-1.25,4.26,4.26,0,0,1,.71-1.14,3.69,3.69,0,0,1,1.07-.85,3.07,3.07,0,0,1,1.4-.32,1.58,1.58,0,0,1,.63.13.46.46,0,0,1,.3.45.58.58,0,0,1-.14.41.45.45,0,0,1-.34.14.79.79,0,0,1-.35-.09,1.21,1.21,0,0,0-.5-.09,2,2,0,0,0-1,.3,3.81,3.81,0,0,0-.92.8,4.21,4.21,0,0,0-.65,1.13,3.44,3.44,0,0,0-.25,1.25v4.44a.55.55,0,0,1-.54.54Z" transform="translate(-0.65)"/><path class="cls-1" d="M104,207.36a.54.54,0,0,1,.39.17.51.51,0,0,1,.15.37v12.24a.55.55,0,0,1-.16.38.52.52,0,0,1-.38.16.54.54,0,0,1-.41-.16.54.54,0,0,1-.15-.38V218l.32-.25a2.39,2.39,0,0,1-.27,1.07,3.44,3.44,0,0,1-.76,1,4.15,4.15,0,0,1-1.15.75,3.58,3.58,0,0,1-1.43.28,3.8,3.8,0,0,1-2.16-.63,4.51,4.51,0,0,1-1.52-1.71,5.3,5.3,0,0,1-.55-2.46,5.36,5.36,0,0,1,.55-2.46A4.51,4.51,0,0,1,98,211.89a3.86,3.86,0,0,1,2.14-.62,3.74,3.74,0,0,1,1.42.27,4,4,0,0,1,1.18.74,3.45,3.45,0,0,1,.8,1.07,2.9,2.9,0,0,1,.29,1.25l-.38-.27V207.9a.51.51,0,0,1,.15-.37A.55.55,0,0,1,104,207.36Zm-3.75,12.5a3,3,0,0,0,1.7-.5,3.4,3.4,0,0,0,1.16-1.35,4.71,4.71,0,0,0,0-3.89,3.37,3.37,0,0,0-1.16-1.34,3.22,3.22,0,0,0-3.38,0,3.32,3.32,0,0,0-1.17,1.34,4.69,4.69,0,0,0,0,3.88,3.31,3.31,0,0,0,1.17,1.36A3,3,0,0,0,100.29,219.86Z" transform="translate(-0.65)"/><path class="cls-1" d="M115.9,216.08a5,5,0,0,1-.6,2.45,4.47,4.47,0,0,1-1.63,1.71,4.49,4.49,0,0,1-6.27-1.71,5.27,5.27,0,0,1,0-4.92A4.54,4.54,0,0,1,109,211.9a4.59,4.59,0,0,1,4.64,0,4.62,4.62,0,0,1,1.63,1.71A5,5,0,0,1,115.9,216.08Zm-1.1,0a4.14,4.14,0,0,0-.45-2,3.46,3.46,0,0,0-1.23-1.34,3.31,3.31,0,0,0-1.77-.48,3.37,3.37,0,0,0-1.78.48,3.56,3.56,0,0,0-1.24,1.34,4.14,4.14,0,0,0-.46,2,4.06,4.06,0,0,0,.46,1.94,3.64,3.64,0,0,0,1.24,1.34,3.29,3.29,0,0,0,1.78.5,3.24,3.24,0,0,0,1.77-.5,3.53,3.53,0,0,0,1.23-1.34A4.05,4.05,0,0,0,114.8,216.08Z" transform="translate(-0.65)"/><path class="cls-1" d="M122.25,211.41a3.12,3.12,0,0,1,1.91.59,2.94,2.94,0,0,1,1.08,1.74l-.25.07.11-.33a2.76,2.76,0,0,1,.78-1,4.43,4.43,0,0,1,1.25-.77,3.76,3.76,0,0,1,1.42-.29,3.15,3.15,0,0,1,1.83.49,2.76,2.76,0,0,1,1,1.31,5.07,5.07,0,0,1,.31,1.84v5.09a.54.54,0,0,1-.15.38.5.5,0,0,1-.39.16.48.48,0,0,1-.39-.16.54.54,0,0,1-.15-.38v-5a3.68,3.68,0,0,0-.23-1.35,2.11,2.11,0,0,0-.74-1,2.25,2.25,0,0,0-1.35-.36,2.94,2.94,0,0,0-1.42.36,3.18,3.18,0,0,0-1.09,1,2.34,2.34,0,0,0-.42,1.35v5a.51.51,0,0,1-.16.38.49.49,0,0,1-.38.16.5.5,0,0,1-.39-.16.54.54,0,0,1-.15-.38v-5.09a3.66,3.66,0,0,0-.22-1.32,2,2,0,0,0-.7-.95,2.14,2.14,0,0,0-1.31-.36,2.86,2.86,0,0,0-1.4.36,3,3,0,0,0-1.06.95,2.27,2.27,0,0,0-.41,1.32v5.09a.55.55,0,0,1-.54.54.52.52,0,0,1-.4-.16.54.54,0,0,1-.15-.38v-8.06a.52.52,0,0,1,.16-.38.53.53,0,0,1,.39-.16.5.5,0,0,1,.39.16.55.55,0,0,1,.15.38v1.67l-.48.67a2.68,2.68,0,0,1,.35-1.08,3.78,3.78,0,0,1,.78-1,3.84,3.84,0,0,1,1.11-.69A3.22,3.22,0,0,1,122.25,211.41Z" transform="translate(-0.65)"/><path class="cls-1" d="M142,211.49a.51.51,0,0,1,.39.16.56.56,0,0,1,.15.39v8.1a.51.51,0,0,1-.16.38.52.52,0,0,1-.38.16.54.54,0,0,1-.41-.16.54.54,0,0,1-.15-.38V218l.33-.12a2.24,2.24,0,0,1-.28,1,3.37,3.37,0,0,1-.77,1,3.91,3.91,0,0,1-1.14.73,3.75,3.75,0,0,1-1.43.27,3.86,3.86,0,0,1-2.17-.63,4.29,4.29,0,0,1-1.51-1.72,5.43,5.43,0,0,1-.55-2.47,5.21,5.21,0,0,1,.56-2.48,4.31,4.31,0,0,1,1.51-1.68,3.93,3.93,0,0,1,4.77.4,3.55,3.55,0,0,1,.78,1.07,2.89,2.89,0,0,1,.28,1.25l-.38-.27V212a.56.56,0,0,1,.15-.39A.54.54,0,0,1,142,211.49Zm-3.74,8.37a3,3,0,0,0,1.69-.5,3.33,3.33,0,0,0,1.16-1.37,4.43,4.43,0,0,0,.42-2,4.24,4.24,0,0,0-.42-1.9,3.4,3.4,0,0,0-1.16-1.35,3,3,0,0,0-1.69-.49,3.14,3.14,0,0,0-1.69.47,3.23,3.23,0,0,0-1.17,1.33A4.29,4.29,0,0,0,135,216a4.57,4.57,0,0,0,.41,2,3.33,3.33,0,0,0,1.16,1.37A3,3,0,0,0,138.26,219.86Z" transform="translate(-0.65)"/><path class="cls-1" d="M145.87,210.12a.86.86,0,0,1-.57-.17.67.67,0,0,1-.19-.5v-.18a.59.59,0,0,1,.21-.49.84.84,0,0,1,.57-.17.74.74,0,0,1,.53.17.65.65,0,0,1,.19.49v.18a.67.67,0,0,1-.19.5A.82.82,0,0,1,145.87,210.12Zm.54,10a.51.51,0,0,1-.16.38.52.52,0,0,1-.38.16.51.51,0,0,1-.4-.16.57.57,0,0,1-.14-.38v-8.28a.51.51,0,0,1,.15-.37.51.51,0,0,1,.39-.17.52.52,0,0,1,.39.17.51.51,0,0,1,.15.37Z" transform="translate(-0.65)"/><path class="cls-1" d="M153.56,211.27a3.31,3.31,0,0,1,1.89.48,2.63,2.63,0,0,1,1,1.29,5,5,0,0,1,.32,1.81v5.29a.52.52,0,0,1-.17.38.49.49,0,0,1-.37.16.53.53,0,0,1-.41-.16.54.54,0,0,1-.15-.38v-5.23a3.52,3.52,0,0,0-.24-1.32,1.93,1.93,0,0,0-.75-.94,2.41,2.41,0,0,0-1.39-.35,3.18,3.18,0,0,0-1.47.35,3.12,3.12,0,0,0-1.12.94,2.19,2.19,0,0,0-.43,1.32v5.23a.55.55,0,0,1-.16.38.52.52,0,0,1-.38.16.53.53,0,0,1-.41-.16.54.54,0,0,1-.15-.38v-8.06a.52.52,0,0,1,.16-.38.54.54,0,0,1,.4-.16.49.49,0,0,1,.38.16.52.52,0,0,1,.16.38v1.51l-.42.65a2.48,2.48,0,0,1,.37-1.11,3.84,3.84,0,0,1,.86-.95,4.45,4.45,0,0,1,1.16-.67A3.6,3.6,0,0,1,153.56,211.27Z" transform="translate(-0.65)"/><path class="cls-1" d="M159.1,219.23a.76.76,0,0,1-.14-.43.42.42,0,0,1,.23-.33.46.46,0,0,1,.33-.11.52.52,0,0,1,.35.18,4,4,0,0,0,1.18,1,3.3,3.3,0,0,0,1.65.39,2.89,2.89,0,0,0,1-.18,1.89,1.89,0,0,0,.82-.52,1.28,1.28,0,0,0,.32-.89,1.24,1.24,0,0,0-.32-.89,2.53,2.53,0,0,0-.84-.54,8,8,0,0,0-1.11-.35c-.4-.11-.8-.23-1.18-.37a4.58,4.58,0,0,1-1-.52,2.36,2.36,0,0,1-.71-.77,2.07,2.07,0,0,1-.26-1.09,2.28,2.28,0,0,1,.4-1.34,2.76,2.76,0,0,1,1.13-.9,3.94,3.94,0,0,1,1.6-.32,4.45,4.45,0,0,1,1,.12,3.94,3.94,0,0,1,1,.38,3,3,0,0,1,.9.74.51.51,0,0,1,.17.37.54.54,0,0,1-.18.39.57.57,0,0,1-.34.1.43.43,0,0,1-.31-.16,2.89,2.89,0,0,0-1-.73,3.35,3.35,0,0,0-1.28-.24,3.19,3.19,0,0,0-1,.16,1.83,1.83,0,0,0-.76.51,1.28,1.28,0,0,0-.31.9,1.26,1.26,0,0,0,.37.84,2.53,2.53,0,0,0,.88.54,10.06,10.06,0,0,0,1.24.4c.38.1.75.21,1.1.34a3.65,3.65,0,0,1,.94.5,2.32,2.32,0,0,1,.65.74,2.41,2.41,0,0,1,.24,1.14,2.22,2.22,0,0,1-.44,1.37,2.94,2.94,0,0,1-1.18.88,4.32,4.32,0,0,1-1.64.3,4.88,4.88,0,0,1-1.88-.37A4.18,4.18,0,0,1,159.1,219.23Z" transform="translate(-0.65)"/><path class="cls-1" d="M180.45,211.49a.49.49,0,0,1,.38.16.53.53,0,0,1,.16.39v8.1a.55.55,0,0,1-.16.38.52.52,0,0,1-.38.16.53.53,0,0,1-.41-.16.54.54,0,0,1-.15-.38V218l.32-.12a2.12,2.12,0,0,1-.28,1,3.33,3.33,0,0,1-.76,1,4,4,0,0,1-1.14.73,3.75,3.75,0,0,1-1.43.27,3.86,3.86,0,0,1-2.17-.63,4.31,4.31,0,0,1-1.52-1.72,5.56,5.56,0,0,1-.54-2.47,5.33,5.33,0,0,1,.55-2.48,4.34,4.34,0,0,1,1.52-1.68,3.85,3.85,0,0,1,2.14-.61,3.84,3.84,0,0,1,2.63,1,3.55,3.55,0,0,1,.78,1.07,3,3,0,0,1,.28,1.25l-.38-.27V212a.56.56,0,0,1,.15-.39A.53.53,0,0,1,180.45,211.49Zm-3.75,8.37a3,3,0,0,0,1.7-.5,3.41,3.41,0,0,0,1.16-1.37,4.43,4.43,0,0,0,.42-2,4.24,4.24,0,0,0-.42-1.9,3.48,3.48,0,0,0-1.16-1.35,3,3,0,0,0-1.7-.49,3.13,3.13,0,0,0-1.68.47,3.23,3.23,0,0,0-1.17,1.33,4.29,4.29,0,0,0-.42,1.94,4.42,4.42,0,0,0,.41,2,3.26,3.26,0,0,0,1.16,1.37A3,3,0,0,0,176.7,219.86Z" transform="translate(-0.65)"/><path class="cls-1" d="M188.15,211.27a3.34,3.34,0,0,1,1.9.48,2.68,2.68,0,0,1,1,1.29,5,5,0,0,1,.31,1.81v5.29a.55.55,0,0,1-1.1,0v-5.23a3.73,3.73,0,0,0-.23-1.32,2,2,0,0,0-.76-.94,2.37,2.37,0,0,0-1.38-.35,3.12,3.12,0,0,0-1.47.35,3,3,0,0,0-1.12.94,2.2,2.2,0,0,0-.44,1.32v5.23a.55.55,0,0,1-.54.54.52.52,0,0,1-.4-.16.55.55,0,0,1-.16-.38v-8.06a.53.53,0,0,1,.17-.38.51.51,0,0,1,.39-.16.5.5,0,0,1,.39.16.55.55,0,0,1,.15.38v1.51l-.41.65a2.36,2.36,0,0,1,.37-1.11,3.8,3.8,0,0,1,.85-.95,4.62,4.62,0,0,1,1.16-.67A3.68,3.68,0,0,1,188.15,211.27Z" transform="translate(-0.65)"/><path class="cls-1" d="M201.69,207.36a.5.5,0,0,1,.38.17.49.49,0,0,1,.16.37v12.24a.52.52,0,0,1-.17.38.49.49,0,0,1-.37.16.53.53,0,0,1-.41-.16.54.54,0,0,1-.15-.38V218l.32-.25a2.39,2.39,0,0,1-.27,1.07,3.44,3.44,0,0,1-.76,1,4.31,4.31,0,0,1-1.15.75,3.59,3.59,0,0,1-1.44.28,3.85,3.85,0,0,1-2.16-.63,4.48,4.48,0,0,1-1.51-1.71,5.31,5.31,0,0,1-.56-2.46,5.37,5.37,0,0,1,.56-2.46,4.48,4.48,0,0,1,1.51-1.71,3.89,3.89,0,0,1,2.15-.62,3.78,3.78,0,0,1,1.42.27,4,4,0,0,1,1.18.74,3.45,3.45,0,0,1,.8,1.07,2.9,2.9,0,0,1,.29,1.25l-.38-.27V207.9a.51.51,0,0,1,.15-.37A.53.53,0,0,1,201.69,207.36Zm-3.75,12.5a3,3,0,0,0,1.69-.5A3.43,3.43,0,0,0,200.8,218a4.71,4.71,0,0,0,0-3.89,3.4,3.4,0,0,0-1.17-1.34,3,3,0,0,0-1.69-.48,3.05,3.05,0,0,0-1.68.48,3.32,3.32,0,0,0-1.17,1.34,4.69,4.69,0,0,0,0,3.88,3.31,3.31,0,0,0,1.17,1.36A3,3,0,0,0,197.94,219.86Z" transform="translate(-0.65)"/><path class="cls-1" d="M17,233a4,4,0,0,1,2.17.6,4.28,4.28,0,0,1,1.5,1.65,5.53,5.53,0,0,1,0,4.85,4.31,4.31,0,0,1-1.51,1.68,3.87,3.87,0,0,1-2.14.61,3.68,3.68,0,0,1-1.2-.19,4,4,0,0,1-1-.51,3.8,3.8,0,0,1-.83-.77,4.18,4.18,0,0,1-.58-.94l.33-.25v5.59a.55.55,0,0,1-.16.38.49.49,0,0,1-.38.16.54.54,0,0,1-.4-.16.51.51,0,0,1-.16-.38V233.61a.57.57,0,0,1,.15-.4.53.53,0,0,1,.41-.16.49.49,0,0,1,.38.16.58.58,0,0,1,.16.4v1.94l-.26-.14a3.2,3.2,0,0,1,.53-1,3.94,3.94,0,0,1,.82-.76,3.56,3.56,0,0,1,1-.47A4.08,4.08,0,0,1,17,233Zm-.09,1a3.06,3.06,0,0,0-1.71.48A3.32,3.32,0,0,0,14,235.8a4.08,4.08,0,0,0-.42,1.89A4.22,4.22,0,0,0,14,239.6a3.28,3.28,0,0,0,1.16,1.33,3.13,3.13,0,0,0,1.71.47,3,3,0,0,0,1.68-.47,3.35,3.35,0,0,0,1.16-1.33,4.22,4.22,0,0,0,.42-1.91,4.17,4.17,0,0,0-.42-1.89,3.4,3.4,0,0,0-1.16-1.3A3,3,0,0,0,16.91,234Z" transform="translate(-0.65)"/><path class="cls-1" d="M30.93,233.09a.5.5,0,0,1,.39.16.56.56,0,0,1,.15.39v8.1a.49.49,0,0,1-.16.38.56.56,0,0,1-.78,0,.49.49,0,0,1-.16-.38V239.6l.33-.12a2.24,2.24,0,0,1-.28,1,3.54,3.54,0,0,1-.77,1,4.1,4.1,0,0,1-1.14.72,3.72,3.72,0,0,1-1.43.27,3.88,3.88,0,0,1-2.17-.63,4.36,4.36,0,0,1-1.51-1.72,5.43,5.43,0,0,1-.55-2.47,5.26,5.26,0,0,1,.56-2.47,4.27,4.27,0,0,1,1.51-1.69,3.93,3.93,0,0,1,4.77.4,3.24,3.24,0,0,1,.78,1.07,2.89,2.89,0,0,1,.28,1.25l-.38-.27v-2.29a.53.53,0,0,1,.16-.39A.51.51,0,0,1,30.93,233.09Zm-3.74,8.37a3,3,0,0,0,1.69-.5A3.33,3.33,0,0,0,30,239.59a4.43,4.43,0,0,0,.42-2,4.24,4.24,0,0,0-.42-1.9,3.4,3.4,0,0,0-1.16-1.35,3,3,0,0,0-1.69-.49,3.14,3.14,0,0,0-1.69.47,3.37,3.37,0,0,0-1.17,1.33,4.29,4.29,0,0,0-.42,1.94,4.43,4.43,0,0,0,.42,2A3.19,3.19,0,0,0,25.49,241,3,3,0,0,0,27.19,241.46Z" transform="translate(-0.65)"/><path class="cls-1" d="M38.06,232.87a3.82,3.82,0,0,1,1.48.28,4.55,4.55,0,0,1,1.19.72,3.64,3.64,0,0,1,.8.94,1.8,1.8,0,0,1,.29.94l-.29-.43v-1.68a.53.53,0,0,1,.16-.39.49.49,0,0,1,.38-.16.5.5,0,0,1,.39.16.56.56,0,0,1,.15.39v7.82a4.58,4.58,0,0,1-.59,2.41,3.88,3.88,0,0,1-1.61,1.5,5.09,5.09,0,0,1-2.31.51,5.74,5.74,0,0,1-1.33-.16,5.33,5.33,0,0,1-1.19-.41c-.33-.17-.51-.34-.56-.52a.45.45,0,0,1-.12-.32.36.36,0,0,1,.14-.26.37.37,0,0,1,.38,0,6.14,6.14,0,0,0,.61.26l.47.17a7.16,7.16,0,0,0,.74.19,4.94,4.94,0,0,0,.87.08,3.16,3.16,0,0,0,3.42-3.35V239.8l.18,0a2.9,2.9,0,0,1-.53,1.12,3.4,3.4,0,0,1-.87.82,4.07,4.07,0,0,1-1.08.5,3.82,3.82,0,0,1-1.15.17,4.1,4.1,0,0,1-2.25-.63,4.55,4.55,0,0,1-1.57-1.71,5.19,5.19,0,0,1-.57-2.46,5.25,5.25,0,0,1,.57-2.46,4.55,4.55,0,0,1,1.57-1.71A4.13,4.13,0,0,1,38.06,232.87Zm.11,1a3.3,3.3,0,0,0-1.76.48,3.36,3.36,0,0,0-1.22,1.34,4.5,4.5,0,0,0,0,3.88A3.35,3.35,0,0,0,36.41,241a3.38,3.38,0,0,0,3.52,0,3.39,3.39,0,0,0,1.23-1.34,4.18,4.18,0,0,0,.45-2,4.08,4.08,0,0,0-.45-2,3.27,3.27,0,0,0-3-1.8Z" transform="translate(-0.65)"/><path class="cls-1" d="M49.18,242.46a4.86,4.86,0,0,1-2.45-.59,4.18,4.18,0,0,1-1.65-1.66,4.92,4.92,0,0,1-.59-2.48,5.3,5.3,0,0,1,.6-2.61,4.39,4.39,0,0,1,1.56-1.66,3.92,3.92,0,0,1,2.05-.59,4.28,4.28,0,0,1,1.54.28,3.88,3.88,0,0,1,1.32.83,4.24,4.24,0,0,1,.94,1.34,4.56,4.56,0,0,1,.37,1.83.47.47,0,0,1-.16.37.51.51,0,0,1-.38.16H45.12l-.22-1H52l-.23.22v-.36a2.62,2.62,0,0,0-.54-1.43,3.18,3.18,0,0,0-1.13-.9,3.1,3.1,0,0,0-1.37-.32,3.22,3.22,0,0,0-1.11.22,2.85,2.85,0,0,0-1,.68,3.4,3.4,0,0,0-.74,1.17,4.47,4.47,0,0,0-.29,1.68,4.17,4.17,0,0,0,.43,1.92A3.29,3.29,0,0,0,47.2,241a3.63,3.63,0,0,0,2,.51,3.27,3.27,0,0,0,1.11-.18,3.16,3.16,0,0,0,.89-.48,3.8,3.8,0,0,0,.64-.62.56.56,0,0,1,.38-.16.42.42,0,0,1,.33.14.47.47,0,0,1,.14.32.49.49,0,0,1-.18.38A4.9,4.9,0,0,1,51.07,242,3.79,3.79,0,0,1,49.18,242.46Z" transform="translate(-0.65)"/><path class="cls-1" d="M54.58,240.83a.74.74,0,0,1-.13-.43.41.41,0,0,1,.22-.33A.47.47,0,0,1,55,240a.62.62,0,0,1,.35.18,3.85,3.85,0,0,0,1.18,1,3.29,3.29,0,0,0,1.64.39,3.14,3.14,0,0,0,1-.17,1.94,1.94,0,0,0,.82-.53,1.24,1.24,0,0,0,.33-.89,1.21,1.21,0,0,0-.33-.89,2.39,2.39,0,0,0-.83-.54,9,9,0,0,0-1.11-.35c-.41-.11-.8-.23-1.18-.37a4.44,4.44,0,0,1-1-.52,2.36,2.36,0,0,1-.71-.77,2.14,2.14,0,0,1-.26-1.09,2.28,2.28,0,0,1,.4-1.34,2.76,2.76,0,0,1,1.13-.9,3.94,3.94,0,0,1,1.6-.32,4.45,4.45,0,0,1,1,.12,4.15,4.15,0,0,1,1,.38,3.29,3.29,0,0,1,.9.74.5.5,0,0,1,.16.37.54.54,0,0,1-.18.39.56.56,0,0,1-.33.1.45.45,0,0,1-.32-.16,2.79,2.79,0,0,0-1-.72,3.25,3.25,0,0,0-1.28-.25,3.1,3.1,0,0,0-1,.16,1.86,1.86,0,0,0-.77.51,1.32,1.32,0,0,0-.3.9,1.17,1.17,0,0,0,.37.84,2.44,2.44,0,0,0,.88.54,9.37,9.37,0,0,0,1.23.4c.38.1.75.21,1.11.34a3.75,3.75,0,0,1,.93.5,2.3,2.3,0,0,1,.65.74,2.41,2.41,0,0,1,.24,1.14,2.16,2.16,0,0,1-.44,1.37,2.8,2.8,0,0,1-1.18.88,4.26,4.26,0,0,1-1.63.3,4.85,4.85,0,0,1-1.88-.37A4.21,4.21,0,0,1,54.58,240.83Z" transform="translate(-0.65)"/><path class="cls-1" d="M72.48,233.27a.48.48,0,0,1,.36.14.53.53,0,0,1,0,.72.48.48,0,0,1-.36.14H68.07a.51.51,0,0,1-.36-.15.49.49,0,0,1-.15-.35.47.47,0,0,1,.15-.37.53.53,0,0,1,.36-.13ZM71.79,229a3.13,3.13,0,0,1,.59.05,1.57,1.57,0,0,1,.55.2.46.46,0,0,1,.23.39.53.53,0,0,1-.14.37.44.44,0,0,1-.33.16,1.32,1.32,0,0,1-.45-.11,1.56,1.56,0,0,0-.57-.11,1.21,1.21,0,0,0-.65.17,1.19,1.19,0,0,0-.42.49,1.91,1.91,0,0,0-.14.76v10.33a.52.52,0,0,1-.15.38.51.51,0,0,1-.39.16.5.5,0,0,1-.39-.16.52.52,0,0,1-.15-.38V231.41a2.25,2.25,0,0,1,.67-1.76A2.48,2.48,0,0,1,71.79,229Z" transform="translate(-0.65)"/><path class="cls-1" d="M83.31,237.68a5,5,0,0,1-.6,2.45,4.47,4.47,0,0,1-1.63,1.71,4.33,4.33,0,0,1-2.32.62,4.4,4.4,0,0,1-4-2.33,5.27,5.27,0,0,1,0-4.92,4.54,4.54,0,0,1,1.63-1.71,4.39,4.39,0,0,1,2.32-.63,4.34,4.34,0,0,1,2.32.63,4.62,4.62,0,0,1,1.63,1.71A5,5,0,0,1,83.31,237.68Zm-1.1,0a4.14,4.14,0,0,0-.45-2,3.46,3.46,0,0,0-1.23-1.34,3.31,3.31,0,0,0-1.77-.48,3.37,3.37,0,0,0-1.78.48,3.56,3.56,0,0,0-1.24,1.34,4.14,4.14,0,0,0-.46,2,4.06,4.06,0,0,0,.46,1.94A3.64,3.64,0,0,0,77,241a3.29,3.29,0,0,0,1.78.5,3.24,3.24,0,0,0,1.77-.5,3.53,3.53,0,0,0,1.23-1.34A4.05,4.05,0,0,0,82.21,237.68Z" transform="translate(-0.65)"/><path class="cls-1" d="M86.07,242.28a.53.53,0,0,1-.41-.16.52.52,0,0,1-.15-.38v-8.06a.52.52,0,0,1,.16-.38.54.54,0,0,1,.4-.16.49.49,0,0,1,.38.16.57.57,0,0,1,.16.38v2.7l-.27.05a4.16,4.16,0,0,1,.31-1.25,4.26,4.26,0,0,1,.71-1.14,3.69,3.69,0,0,1,1.07-.85,3.07,3.07,0,0,1,1.4-.32,1.6,1.6,0,0,1,.63.14.45.45,0,0,1,.3.44.53.53,0,0,1-.14.41.45.45,0,0,1-.34.14.68.68,0,0,1-.35-.09,1.18,1.18,0,0,0-.5-.09,2,2,0,0,0-1,.3,3.59,3.59,0,0,0-.91.8,4,4,0,0,0-.66,1.13,3.43,3.43,0,0,0-.24,1.25v4.44a.5.5,0,0,1-.17.38A.49.49,0,0,1,86.07,242.28Z" transform="translate(-0.65)"/><path class="cls-1" d="M101.74,233a4,4,0,0,1,2.17.6,4.38,4.38,0,0,1,1.51,1.65,5.62,5.62,0,0,1,0,4.85,4.41,4.41,0,0,1-1.52,1.68,3.85,3.85,0,0,1-2.14.61,3.68,3.68,0,0,1-1.2-.19,4.12,4.12,0,0,1-1-.51,4,4,0,0,1-.83-.77,3.81,3.81,0,0,1-.57-.94l.32-.25v5.59a.54.54,0,0,1-.15.38.53.53,0,0,1-.39.16.54.54,0,0,1-.4-.16.55.55,0,0,1-.16-.38V233.61a.57.57,0,0,1,.15-.4.54.54,0,0,1,.41-.16.53.53,0,0,1,.39.16.57.57,0,0,1,.15.4v1.94l-.25-.14a3,3,0,0,1,.53-1,3.5,3.5,0,0,1,.82-.76,3.39,3.39,0,0,1,1-.47A4.13,4.13,0,0,1,101.74,233Zm-.09,1a3.1,3.1,0,0,0-1.71.48,3.32,3.32,0,0,0-1.16,1.3,4.08,4.08,0,0,0-.42,1.89,4.22,4.22,0,0,0,.42,1.91,3.28,3.28,0,0,0,1.16,1.33,3.18,3.18,0,0,0,1.71.47,3.09,3.09,0,0,0,1.69-.47,3.33,3.33,0,0,0,1.15-1.33,4.22,4.22,0,0,0,.42-1.91,4.17,4.17,0,0,0-.42-1.89,3.38,3.38,0,0,0-1.15-1.3A3,3,0,0,0,101.65,234Z" transform="translate(-0.65)"/><path class="cls-1" d="M108.74,242.28a.53.53,0,0,1-.55-.54v-8.06a.52.52,0,0,1,.16-.38.53.53,0,0,1,.39-.16.5.5,0,0,1,.39.16.55.55,0,0,1,.15.38v2.7l-.27.05a4.52,4.52,0,0,1,.32-1.25A4.26,4.26,0,0,1,110,234a3.69,3.69,0,0,1,1.07-.85,3.07,3.07,0,0,1,1.4-.32,1.6,1.6,0,0,1,.63.14.45.45,0,0,1,.3.44.56.56,0,0,1-.14.41.45.45,0,0,1-.34.14.68.68,0,0,1-.35-.09,1.21,1.21,0,0,0-.5-.09,2,2,0,0,0-1,.3,3.81,3.81,0,0,0-.92.8,4.21,4.21,0,0,0-.65,1.13,3.44,3.44,0,0,0-.25,1.25v4.44a.49.49,0,0,1-.16.38A.51.51,0,0,1,108.74,242.28Z" transform="translate(-0.65)"/><path class="cls-1" d="M123.23,237.68a5,5,0,0,1-.6,2.45,4.4,4.4,0,0,1-1.63,1.71,4.63,4.63,0,0,1-4.63,0,4.42,4.42,0,0,1-1.64-1.71,5.34,5.34,0,0,1,0-4.92,4.57,4.57,0,0,1,1.64-1.71,4.57,4.57,0,0,1,4.63,0,4.54,4.54,0,0,1,1.63,1.71A5,5,0,0,1,123.23,237.68Zm-1.09,0a4.14,4.14,0,0,0-.45-2,3.41,3.41,0,0,0-1.24-1.34,3.5,3.5,0,0,0-3.54,0,3.48,3.48,0,0,0-1.24,1.34,4,4,0,0,0-.46,2,4,4,0,0,0,.46,1.94,3.56,3.56,0,0,0,1.24,1.34,3.38,3.38,0,0,0,3.54,0,3.48,3.48,0,0,0,1.24-1.34A4.05,4.05,0,0,0,122.14,237.68Z" transform="translate(-0.65)"/><path class="cls-1" d="M124.93,240.83a.76.76,0,0,1-.14-.43.4.4,0,0,1,.23-.33.43.43,0,0,1,.33-.11.59.59,0,0,1,.35.18,3.85,3.85,0,0,0,1.18,1,3.3,3.3,0,0,0,1.65.39,3.18,3.18,0,0,0,1-.17,1.91,1.91,0,0,0,.81-.53,1.24,1.24,0,0,0,.33-.89,1.21,1.21,0,0,0-.33-.89,2.39,2.39,0,0,0-.83-.54,8,8,0,0,0-1.11-.35c-.41-.11-.8-.23-1.18-.37a4.17,4.17,0,0,1-1-.52,2.4,2.4,0,0,1-.72-.77,2.14,2.14,0,0,1-.26-1.09,2.29,2.29,0,0,1,.41-1.34,2.73,2.73,0,0,1,1.12-.9,4,4,0,0,1,1.6-.32,4.32,4.32,0,0,1,1,.12,4.15,4.15,0,0,1,1,.38,3,3,0,0,1,.9.74.5.5,0,0,1,.16.37.54.54,0,0,1-.18.39.52.52,0,0,1-.33.1.45.45,0,0,1-.32-.16,2.71,2.71,0,0,0-1-.72,3.21,3.21,0,0,0-1.28-.25,3.14,3.14,0,0,0-1,.16,1.86,1.86,0,0,0-.77.51,1.32,1.32,0,0,0-.3.9,1.22,1.22,0,0,0,.37.84,2.44,2.44,0,0,0,.88.54,10.46,10.46,0,0,0,1.23.4,11.12,11.12,0,0,1,1.11.34,3.82,3.82,0,0,1,.94.5,2.18,2.18,0,0,1,.89,1.88,2.22,2.22,0,0,1-.44,1.37,2.94,2.94,0,0,1-1.18.88,4.35,4.35,0,0,1-1.64.3,4.85,4.85,0,0,1-1.88-.37A4.18,4.18,0,0,1,124.93,240.83Z" transform="translate(-0.65)"/><path class="cls-1" d="M138.26,233a4,4,0,0,1,2.17.6,4.38,4.38,0,0,1,1.51,1.65,5.62,5.62,0,0,1,0,4.85,4.41,4.41,0,0,1-1.52,1.68,3.85,3.85,0,0,1-2.14.61,3.58,3.58,0,0,1-1.19-.19,3.94,3.94,0,0,1-1.87-1.28,3.81,3.81,0,0,1-.57-.94l.32-.25v5.59a.54.54,0,0,1-.15.38.5.5,0,0,1-.39.16.54.54,0,0,1-.4-.16.55.55,0,0,1-.16-.38V233.61a.54.54,0,0,1,.16-.4.51.51,0,0,1,.4-.16.5.5,0,0,1,.39.16.57.57,0,0,1,.15.4v1.94l-.25-.14a3.2,3.2,0,0,1,.53-1,3.71,3.71,0,0,1,.82-.76,3.39,3.39,0,0,1,1-.47A4.18,4.18,0,0,1,138.26,233Zm-.09,1a3.1,3.1,0,0,0-1.71.48,3.4,3.4,0,0,0-1.16,1.3,4.08,4.08,0,0,0-.42,1.89,4.22,4.22,0,0,0,.42,1.91,3.35,3.35,0,0,0,1.16,1.33,3.18,3.18,0,0,0,1.71.47,3.09,3.09,0,0,0,1.69-.47A3.33,3.33,0,0,0,141,239.6a4.22,4.22,0,0,0,.42-1.91,4.17,4.17,0,0,0-.42-1.89,3.38,3.38,0,0,0-1.15-1.3A3,3,0,0,0,138.17,234Z" transform="translate(-0.65)"/><path class="cls-1" d="M148.81,242.46a4.86,4.86,0,0,1-2.45-.59,4.12,4.12,0,0,1-1.65-1.66,4.92,4.92,0,0,1-.6-2.48,5.3,5.3,0,0,1,.61-2.61,4.39,4.39,0,0,1,1.56-1.66,3.92,3.92,0,0,1,2.05-.59,4.32,4.32,0,0,1,1.54.28,4,4,0,0,1,1.32.83,4.22,4.22,0,0,1,.93,1.34,4.56,4.56,0,0,1,.38,1.83.47.47,0,0,1-.16.37.51.51,0,0,1-.38.16h-7.22l-.21-1h7.07l-.23.22v-.36a2.62,2.62,0,0,0-.54-1.43,3.18,3.18,0,0,0-1.13-.9,3.1,3.1,0,0,0-1.37-.32,3.22,3.22,0,0,0-1.11.22,2.85,2.85,0,0,0-1,.68,3.4,3.4,0,0,0-.74,1.17,4.28,4.28,0,0,0-.29,1.68,4.17,4.17,0,0,0,.43,1.92,3.29,3.29,0,0,0,1.24,1.37,3.62,3.62,0,0,0,2,.51,3.33,3.33,0,0,0,1.12-.18,3.16,3.16,0,0,0,.89-.48,3.8,3.8,0,0,0,.64-.62.56.56,0,0,1,.38-.16.42.42,0,0,1,.33.14.47.47,0,0,1,.14.32.49.49,0,0,1-.18.38A4.9,4.9,0,0,1,150.7,242,3.79,3.79,0,0,1,148.81,242.46Z" transform="translate(-0.65)"/><path class="cls-1" d="M158.69,232.87a6.18,6.18,0,0,1,1.61.19,3.68,3.68,0,0,1,1.16.51.91.91,0,0,1,.44.7.61.61,0,0,1-.14.36.43.43,0,0,1-.35.17.63.63,0,0,1-.35-.1,1.52,1.52,0,0,1-.26-.25,1,1,0,0,0-.38-.27,2.34,2.34,0,0,0-.67-.2,5,5,0,0,0-1-.08,3.32,3.32,0,0,0-1.82.5,3.68,3.68,0,0,0-1.28,1.35,3.89,3.89,0,0,0-.47,1.91,4.23,4.23,0,0,0,.44,1.94,3.35,3.35,0,0,0,1.25,1.36,3.4,3.4,0,0,0,1.84.5,4,4,0,0,0,1.12-.13,3.31,3.31,0,0,0,.68-.29,1.84,1.84,0,0,0,.5-.38.52.52,0,0,1,.42-.19.44.44,0,0,1,.34.13.52.52,0,0,1,.13.35.92.92,0,0,1-.43.64,3.59,3.59,0,0,1-1.16.61,5,5,0,0,1-1.71.26,4.29,4.29,0,0,1-3.93-2.34,5.25,5.25,0,0,1-.57-2.46,4.89,4.89,0,0,1,.58-2.39,4.54,4.54,0,0,1,1.6-1.74A4.31,4.31,0,0,1,158.69,232.87Z" transform="translate(-0.65)"/><path class="cls-1" d="M163.39,233.12h4.2a.46.46,0,0,1,.36.16.52.52,0,0,1,.14.36.5.5,0,0,1-.5.51h-4.2a.51.51,0,0,1-.52-.52.46.46,0,0,1,.15-.36A.53.53,0,0,1,163.39,233.12Zm1.86-2.54a.5.5,0,0,1,.38.17.49.49,0,0,1,.16.37v9a1.67,1.67,0,0,0,.13.76.69.69,0,0,0,.35.33,1.35,1.35,0,0,0,.43.08.77.77,0,0,0,.27,0,.67.67,0,0,1,.26,0,.37.37,0,0,1,.28.13.48.48,0,0,1,.11.32.47.47,0,0,1-.29.42,1.25,1.25,0,0,1-.68.17c-.11,0-.27,0-.49,0a2,2,0,0,1-.66-.2,1.4,1.4,0,0,1-.58-.6,2.78,2.78,0,0,1-.23-1.25v-9.09a.49.49,0,0,1,.16-.37A.54.54,0,0,1,165.25,230.58Z" transform="translate(-0.65)"/><path class="cls-1" d="M170.59,231.72a.86.86,0,0,1-.57-.17.67.67,0,0,1-.18-.5v-.18a.59.59,0,0,1,.2-.49.84.84,0,0,1,.57-.17.72.72,0,0,1,.53.17.61.61,0,0,1,.19.49v.18a.63.63,0,0,1-.19.5A.8.8,0,0,1,170.59,231.72Zm.54,10a.49.49,0,0,1-.16.38.51.51,0,0,1-.38.16.47.47,0,0,1-.39-.16.52.52,0,0,1-.15-.38v-8.28a.49.49,0,0,1,.16-.37.5.5,0,0,1,.38-.17.51.51,0,0,1,.39.17.51.51,0,0,1,.15.37Z" transform="translate(-0.65)"/><path class="cls-1" d="M178.28,232.87a3.36,3.36,0,0,1,1.9.48,2.71,2.71,0,0,1,1,1.29,5,5,0,0,1,.32,1.81v5.29a.53.53,0,0,1-.16.38.52.52,0,0,1-.38.16.53.53,0,0,1-.41-.16.52.52,0,0,1-.15-.38v-5.23a3.73,3.73,0,0,0-.23-1.32,2,2,0,0,0-.76-.94,2.41,2.41,0,0,0-1.39-.35,3.11,3.11,0,0,0-1.46.35,3.07,3.07,0,0,0-1.13.94,2.19,2.19,0,0,0-.43,1.32v5.23a.49.49,0,0,1-.16.38.52.52,0,0,1-.38.16.51.51,0,0,1-.4-.16.49.49,0,0,1-.16-.38v-8.06a.57.57,0,0,1,.16-.38.54.54,0,0,1,.4-.16.5.5,0,0,1,.39.16.55.55,0,0,1,.15.38v1.51l-.41.65a2.26,2.26,0,0,1,.37-1.11,3.8,3.8,0,0,1,.85-.95,4.45,4.45,0,0,1,1.16-.67A3.68,3.68,0,0,1,178.28,232.87Z" transform="translate(-0.65)"/><path class="cls-1" d="M188.11,232.87a3.77,3.77,0,0,1,1.47.28,4.45,4.45,0,0,1,1.2.72,3.64,3.64,0,0,1,.8.94,1.89,1.89,0,0,1,.29.94l-.29-.43v-1.68a.56.56,0,0,1,.15-.39.5.5,0,0,1,.39-.16.51.51,0,0,1,.39.16.56.56,0,0,1,.15.39v7.82a4.68,4.68,0,0,1-.59,2.41,3.94,3.94,0,0,1-1.61,1.5,5.11,5.11,0,0,1-2.32.51,5.66,5.66,0,0,1-1.32-.16,5.33,5.33,0,0,1-1.19-.41c-.33-.17-.52-.34-.57-.52a.48.48,0,0,1-.11-.32.35.35,0,0,1,.13-.26.39.39,0,0,1,.39,0c.14.07.34.16.6.26l.48.17a6.55,6.55,0,0,0,.74.19,4.94,4.94,0,0,0,.87.08,3.16,3.16,0,0,0,3.42-3.35V239.8l.18,0a3.22,3.22,0,0,1-.53,1.12,3.76,3.76,0,0,1-.87.82,4.07,4.07,0,0,1-1.08.5,3.88,3.88,0,0,1-1.16.17,4.1,4.1,0,0,1-2.25-.63,4.44,4.44,0,0,1-1.56-1.71,5.08,5.08,0,0,1-.58-2.46,5.13,5.13,0,0,1,.58-2.46,4.44,4.44,0,0,1,1.56-1.71A4.17,4.17,0,0,1,188.11,232.87Zm.1,1a3.29,3.29,0,0,0-1.75.48,3.46,3.46,0,0,0-1.23,1.34,4.5,4.5,0,0,0,0,3.88,3.45,3.45,0,0,0,1.23,1.36,3.22,3.22,0,0,0,1.75.5A3.32,3.32,0,0,0,190,241a3.44,3.44,0,0,0,1.22-1.34,4.18,4.18,0,0,0,.45-2,4.08,4.08,0,0,0-.45-2,3.24,3.24,0,0,0-3-1.8Z" transform="translate(-0.65)"/><path class="cls-1" d="M195.65,242.28a.57.57,0,0,1-.47-.19.78.78,0,0,1-.16-.51v-.38a.72.72,0,0,1,.16-.5.6.6,0,0,1,.47-.18h.12a.6.6,0,0,1,.47.18.72.72,0,0,1,.16.5v.38a.78.78,0,0,1-.16.51.57.57,0,0,1-.47.19Z" transform="translate(-0.65)"/><path class="cls-1" d="M181.82,140H26.73a14.42,14.42,0,0,1-14.4-14.4V14.4A14.42,14.42,0,0,1,26.73,0H181.82a14.42,14.42,0,0,1,14.4,14.4V125.6A14.42,14.42,0,0,1,181.82,140ZM26.73,3.2a11.21,11.21,0,0,0-11.2,11.2V125.6a11.21,11.21,0,0,0,11.2,11.2H181.82A11.22,11.22,0,0,0,193,125.6V14.4a11.22,11.22,0,0,0-11.2-11.2Z" transform="translate(-0.65)"/><rect class="cls-1" x="68.87" y="77.5" width="58.16" height="6.4" rx="3.2"/><rect class="cls-1" x="134.71" y="77.5" width="42.25" height="6.4" rx="3.2"/><rect class="cls-1" x="154.09" y="111.14" width="22.85" height="6.4" rx="2.67"/><rect class="cls-1" x="68.87" y="111.14" width="42.25" height="6.4" rx="3.2"/><rect class="cls-1" x="116.57" y="111.14" width="32.01" height="6.4" rx="3.16"/><path class="cls-1" d="M51.25,127H34.56a5.31,5.31,0,0,1-5.31-5.31V105a5.31,5.31,0,0,1,5.31-5.31H51.25A5.31,5.31,0,0,1,56.56,105v16.69A5.31,5.31,0,0,1,51.25,127ZM34.56,104a1.05,1.05,0,0,0-1,1v16.69a1.05,1.05,0,0,0,1,1H51.25a1.06,1.06,0,0,0,1-1V105a1.06,1.06,0,0,0-1-1Z" transform="translate(-0.65)"/><path class="cls-2" d="M59.48,96.83a2,2,0,0,0-2.6-.89C49,99.82,45.14,109.77,42.8,117c-2.79-4.67-6.56-6.9-9.6-7.39a1.94,1.94,0,1,0-.62,3.83c2.82.46,6.59,3.21,8.72,9.56,0,0,0,0,0,0a1.72,1.72,0,0,0,.25.46s0,0,0,0a2.22,2.22,0,0,0,.38.37l.1.07a1.8,1.8,0,0,0,.46.23h0a1.72,1.72,0,0,0,.6.1h0a2,2,0,0,0,.6-.1h0a1.83,1.83,0,0,0,.46-.24l.1-.06a2.28,2.28,0,0,0,.38-.38s0,0,0,0a1.61,1.61,0,0,0,.24-.47.09.09,0,0,0,0,0c.22-.66.45-1.4.7-2.2,2.06-6.63,5.52-17.74,12.91-21.37A1.94,1.94,0,0,0,59.48,96.83Z" transform="translate(-0.65)"/><path class="cls-1" d="M51.25,90.44H34.56a5.31,5.31,0,0,1-5.31-5.31V68.45a5.32,5.32,0,0,1,5.31-5.32H51.25a5.32,5.32,0,0,1,5.31,5.32V85.13A5.31,5.31,0,0,1,51.25,90.44Zm-16.69-23a1.05,1.05,0,0,0-1,1V85.13a1.05,1.05,0,0,0,1,1.05H51.25a1.06,1.06,0,0,0,1-1.05V68.45a1.06,1.06,0,0,0-1-1Z" transform="translate(-0.65)"/><path class="cls-3" d="M59.48,60.25a2,2,0,0,0-2.6-.89C49,63.24,45.14,73.19,42.8,80.44c-2.79-4.67-6.56-6.9-9.6-7.39a1.94,1.94,0,1,0-.62,3.84c2.82.45,6.59,3.2,8.72,9.55,0,0,0,0,0,0a1.72,1.72,0,0,0,.25.46l0,0a1.85,1.85,0,0,0,.38.36l.1.07a1.83,1.83,0,0,0,.46.24h0a2,2,0,0,0,.6.09h0a1.72,1.72,0,0,0,.6-.1h0a2.2,2.2,0,0,0,.46-.23l.1-.07a2.22,2.22,0,0,0,.38-.37s0,0,0,0a1.9,1.9,0,0,0,.24-.47s0,0,0-.06c.22-.66.45-1.39.7-2.19,2.06-6.64,5.52-17.75,12.91-21.38A1.94,1.94,0,0,0,59.48,60.25Z" transform="translate(-0.65)"/><path class="cls-4" d="M77.66,23.9a2.56,2.56,0,0,1,1.65.66,2.21,2.21,0,0,1,.79,1.78,2.77,2.77,0,0,1-.12.75L72.59,48.84a1.85,1.85,0,0,1-.8,1,2.67,2.67,0,0,1-1.22.4,2.49,2.49,0,0,1-2.21-1.47L62.81,36.2l.33.23L57.67,48.8a2.5,2.5,0,0,1-1,1.09,2.4,2.4,0,0,1-1.26.38,2.71,2.71,0,0,1-1.2-.4,1.8,1.8,0,0,1-.82-1L46,27.09a3.16,3.16,0,0,1-.11-.75,2.19,2.19,0,0,1,.8-1.78,2.63,2.63,0,0,1,1.67-.66,2.57,2.57,0,0,1,1.34.38,1.9,1.9,0,0,1,.84,1.08l6,18.08-.82,0L61,30.61a2.46,2.46,0,0,1,.87-1.06,1.9,1.9,0,0,1,1.27-.36,1.94,1.94,0,0,1,1.28.36,2.3,2.3,0,0,1,.82,1.06l4.88,12.23-.6.38,5.88-17.86a1.87,1.87,0,0,1,.87-1.08A2.6,2.6,0,0,1,77.66,23.9Z" transform="translate(-0.65)"/><path class="cls-5" d="M123.8,15.11A3.41,3.41,0,0,1,126,16a2.91,2.91,0,0,1,1,2.37,3.79,3.79,0,0,1-.15,1l-9.85,29A2.43,2.43,0,0,1,116,49.74a3.45,3.45,0,0,1-1.62.53,3.24,3.24,0,0,1-1.68-.5,3.34,3.34,0,0,1-1.27-1.45L104,31.51l.45.3-7.3,16.51a3.36,3.36,0,0,1-1.28,1.45,3.23,3.23,0,0,1-1.67.5,3.57,3.57,0,0,1-1.6-.53,2.39,2.39,0,0,1-1.1-1.37l-9.86-29a3.79,3.79,0,0,1-.15-1A2.88,2.88,0,0,1,82.57,16a3.53,3.53,0,0,1,2.22-.88,3.4,3.4,0,0,1,1.78.5,2.56,2.56,0,0,1,1.13,1.45l8,24.11-1.1-.05,7.1-17.06a3.3,3.3,0,0,1,1.15-1.42,3.25,3.25,0,0,1,3.4,0,3.07,3.07,0,0,1,1.1,1.42l6.5,16.31-.8.5,7.85-23.81A2.52,2.52,0,0,1,122,15.61,3.54,3.54,0,0,1,123.8,15.11Z" transform="translate(-0.65)"/><path class="cls-6" d="M160.18,23.9a2.56,2.56,0,0,1,1.65.66,2.21,2.21,0,0,1,.79,1.78,2.77,2.77,0,0,1-.12.75l-7.38,21.75a1.82,1.82,0,0,1-.81,1,2.67,2.67,0,0,1-1.22.4,2.49,2.49,0,0,1-2.21-1.47l-5.55-12.6.33.23L140.19,48.8a2.5,2.5,0,0,1-1,1.09,2.39,2.39,0,0,1-1.25.38,2.71,2.71,0,0,1-1.2-.4,1.82,1.82,0,0,1-.83-1l-7.39-21.75a3.16,3.16,0,0,1-.11-.75,2.17,2.17,0,0,1,.81-1.78,2.47,2.47,0,0,1,3-.28,1.9,1.9,0,0,1,.84,1.08l6,18.08-.82,0,5.32-12.79a2.46,2.46,0,0,1,.87-1.06,1.9,1.9,0,0,1,1.27-.36,1.92,1.92,0,0,1,1.28.36,2.23,2.23,0,0,1,.82,1.06l4.88,12.23-.6.38L158,25.36a1.85,1.85,0,0,1,.86-1.08A2.6,2.6,0,0,1,160.18,23.9Z" transform="translate(-0.65)"/></g></g></svg>