<svg xmlns="http://www.w3.org/2000/svg" xmlns:xlink="http://www.w3.org/1999/xlink" viewBox="0 0 255.74 245.88"><defs><style>.cls-1{fill:#102243;}.cls-2{fill:url(#Tabtimize);}.cls-3{fill:url(#Tabtimize-2);}</style><linearGradient id="Tabtimize" x1="78.76" y1="249.84" x2="129.43" y2="249.84" gradientTransform="matrix(0.71, -0.71, -0.71, -0.71, 224.65, 336.96)" gradientUnits="userSpaceOnUse"><stop offset="0" stop-color="#102343"/><stop offset="0.27" stop-color="#7a2e77"/><stop offset="1" stop-color="#ef3f56"/></linearGradient><linearGradient id="Tabtimize-2" x1="107.2" y1="249.81" x2="157.92" y2="249.81" xlink:href="#Tabtimize"/></defs><g id="Layer_2" data-name="Layer 2"><g id="Layer_1-2" data-name="Layer 1"><path class="cls-1" d="M130.13,197.1a1,1,0,0,1,1,1,.91.91,0,0,1-.29.69,1,1,0,0,1-.72.28H124a1,1,0,0,1-.74-.28,1.05,1.05,0,0,1-.27-.74,1.09,1.09,0,0,1,.33-.79l3.92-4.2a7,7,0,0,0,1-1.43,2.8,2.8,0,0,0,.4-1.36,1.93,1.93,0,0,0-.27-1,2.1,2.1,0,0,0-.7-.72,1.74,1.74,0,0,0-.94-.27,2,2,0,0,0-1.06.35,3.64,3.64,0,0,0-1,.93,1,1,0,0,1-.44.36,1.15,1.15,0,0,1-.39.07,1.09,1.09,0,0,1-.73-.29.91.91,0,0,1-.33-.7,1,1,0,0,1,.2-.59,4.49,4.49,0,0,1,.52-.59,5.16,5.16,0,0,1,1.58-1.1,4.06,4.06,0,0,1,1.73-.42,4.11,4.11,0,0,1,2.1.51,3.5,3.5,0,0,1,1.37,1.38,4,4,0,0,1,.49,2,4.69,4.69,0,0,1-.28,1.54,7,7,0,0,1-.77,1.52,10.49,10.49,0,0,1-1.11,1.42l-2.43,2.6-.2-.17Z" transform="translate(-1.69)"/><path class="cls-1" d="M133.8,199.07a1.11,1.11,0,0,1-.8-.28,1.08,1.08,0,0,1-.28-.8v-.31a1,1,0,0,1,1.08-1.08H134a1.08,1.08,0,0,1,.8.28,1.11,1.11,0,0,1,.28.8V198a1,1,0,0,1-1.08,1.08Z" transform="translate(-1.69)"/><path class="cls-1" d="M2.23,208.08H8.82a.54.54,0,0,1,.4.16.53.53,0,0,1,.16.38.5.5,0,0,1-.16.38.57.57,0,0,1-.4.15H2.65l.18-.31v5.06l-.2-.24H8a.54.54,0,0,1,.4.17.52.52,0,0,1,.16.37.5.5,0,0,1-.16.38.57.57,0,0,1-.4.15H2.66l.17-.18v5.18l-.09-.11H8.82a.58.58,0,0,1,.4.16.57.57,0,0,1,.16.38.51.51,0,0,1-.16.38.56.56,0,0,1-.4.14H2.23a.49.49,0,0,1-.38-.16.51.51,0,0,1-.16-.38V208.62a.49.49,0,0,1,.16-.37A.5.5,0,0,1,2.23,208.08Z" transform="translate(-1.69)"/><path class="cls-1" d="M11.39,211.4a.5.5,0,0,1,.44.23l6.37,8.24a.52.52,0,0,1,.12.33.52.52,0,0,1-.16.38.55.55,0,0,1-.38.16.6.6,0,0,1-.45-.24l-6.39-8.22a.56.56,0,0,1-.1-.33.5.5,0,0,1,.17-.4A.55.55,0,0,1,11.39,211.4Zm0,9.34a.56.56,0,0,1-.35-.13.42.42,0,0,1-.17-.36.48.48,0,0,1,.13-.34L14,216l.59.89-2.8,3.63A.52.52,0,0,1,11.39,220.74Zm6.39-9.34a.49.49,0,0,1,.37.13.45.45,0,0,1,.14.33.57.57,0,0,1,0,.18.54.54,0,0,1-.1.18l-3,4-.58-.86,2.79-3.71A.59.59,0,0,1,17.78,211.4Z" transform="translate(-1.69)"/><path class="cls-1" d="M24.73,211.41a3.88,3.88,0,0,1,2.17.61,4.28,4.28,0,0,1,1.5,1.65,5.53,5.53,0,0,1,0,4.85,4.31,4.31,0,0,1-1.51,1.68,3.85,3.85,0,0,1-2.14.61,3.68,3.68,0,0,1-1.2-.19,4.3,4.3,0,0,1-1-.51,4,4,0,0,1-.83-.77,4.18,4.18,0,0,1-.58-.94l.33-.25v5.59a.51.51,0,0,1-.16.38.49.49,0,0,1-.38.16.54.54,0,0,1-.4-.16.51.51,0,0,1-.16-.38V212a.57.57,0,0,1,.15-.4.53.53,0,0,1,.41-.16.49.49,0,0,1,.38.16.54.54,0,0,1,.16.4V214l-.25-.14a3,3,0,0,1,.53-1,3.3,3.3,0,0,1,.82-.76,3.39,3.39,0,0,1,1-.47A4.09,4.09,0,0,1,24.73,211.41Zm-.09,1a3.06,3.06,0,0,0-1.71.48,3.36,3.36,0,0,0-1.16,1.29,4.12,4.12,0,0,0-.42,1.9,4.22,4.22,0,0,0,.42,1.91,3.19,3.19,0,0,0,1.16,1.32,3.06,3.06,0,0,0,1.71.48,3,3,0,0,0,1.68-.48A3.26,3.26,0,0,0,27.48,218a4.22,4.22,0,0,0,.42-1.91,4.17,4.17,0,0,0-.42-1.89,3.4,3.4,0,0,0-1.16-1.3A3,3,0,0,0,24.64,212.42Z" transform="translate(-1.69)"/><path class="cls-1" d="M32.38,220.14a.55.55,0,0,1-.54.54.53.53,0,0,1-.39-.16.54.54,0,0,1-.15-.38V207.9a.52.52,0,0,1,.16-.37.53.53,0,0,1,.38-.17.51.51,0,0,1,.39.17.51.51,0,0,1,.15.37Z" transform="translate(-1.69)"/><path class="cls-1" d="M43.65,216.08a5,5,0,0,1-.6,2.45,4.55,4.55,0,0,1-1.63,1.71,4.65,4.65,0,0,1-4.64,0,4.5,4.5,0,0,1-1.64-1.71,5.34,5.34,0,0,1,0-4.92,4.64,4.64,0,0,1,1.64-1.71,4.59,4.59,0,0,1,4.64,0,4.7,4.7,0,0,1,1.63,1.71A5,5,0,0,1,43.65,216.08Zm-1.1,0a4.14,4.14,0,0,0-.45-2,3.46,3.46,0,0,0-1.23-1.34,3.31,3.31,0,0,0-1.77-.48,3.34,3.34,0,0,0-1.78.48,3.56,3.56,0,0,0-1.24,1.34,4,4,0,0,0-.46,2,4,4,0,0,0,.46,1.94,3.64,3.64,0,0,0,1.24,1.34,3.27,3.27,0,0,0,1.78.5,3.24,3.24,0,0,0,1.77-.5A3.53,3.53,0,0,0,42.1,218,4.05,4.05,0,0,0,42.55,216.08Z" transform="translate(-1.69)"/><path class="cls-1" d="M46.4,220.68a.52.52,0,0,1-.4-.16.54.54,0,0,1-.15-.38v-8.06a.52.52,0,0,1,.16-.38.53.53,0,0,1,.39-.16.5.5,0,0,1,.39.16.55.55,0,0,1,.15.38v2.7l-.27.05a4.12,4.12,0,0,1,.32-1.25,4.26,4.26,0,0,1,.71-1.14,3.69,3.69,0,0,1,1.07-.85,3,3,0,0,1,1.4-.32,1.58,1.58,0,0,1,.63.13.46.46,0,0,1,.3.45.58.58,0,0,1-.14.41.45.45,0,0,1-.34.14.87.87,0,0,1-.36-.09,1.13,1.13,0,0,0-.49-.09,2,2,0,0,0-1,.3,3.81,3.81,0,0,0-.92.8,4.21,4.21,0,0,0-.65,1.13,3.24,3.24,0,0,0-.25,1.25v4.44a.55.55,0,0,1-.54.54Z" transform="translate(-1.69)"/><path class="cls-1" d="M56.48,220.86a4.86,4.86,0,0,1-2.45-.59,4.25,4.25,0,0,1-1.65-1.66,4.92,4.92,0,0,1-.59-2.48,5.3,5.3,0,0,1,.6-2.61A4.49,4.49,0,0,1,54,211.85a3.91,3.91,0,0,1,2-.58,4.28,4.28,0,0,1,1.54.28,3.73,3.73,0,0,1,1.32.83,4.24,4.24,0,0,1,.94,1.34,4.56,4.56,0,0,1,.37,1.83.47.47,0,0,1-.16.37.55.55,0,0,1-.38.16H52.42l-.22-1h7.07l-.23.22V215a2.62,2.62,0,0,0-.54-1.43,3.18,3.18,0,0,0-1.13-.9,3.1,3.1,0,0,0-1.37-.32,3.22,3.22,0,0,0-1.11.22,2.85,2.85,0,0,0-1,.68,3.4,3.4,0,0,0-.74,1.17,4.47,4.47,0,0,0-.29,1.68,4.17,4.17,0,0,0,.43,1.92,3.29,3.29,0,0,0,1.24,1.37,3.63,3.63,0,0,0,2,.51,3.27,3.27,0,0,0,1.11-.18,3.16,3.16,0,0,0,.89-.48,3.8,3.8,0,0,0,.64-.62.56.56,0,0,1,.38-.16.42.42,0,0,1,.33.14.47.47,0,0,1,.14.32.49.49,0,0,1-.18.38,4.9,4.9,0,0,1-1.41,1.13A3.89,3.89,0,0,1,56.48,220.86Z" transform="translate(-1.69)"/><path class="cls-1" d="M71.28,211.27a6.11,6.11,0,0,1,1.6.19A3.58,3.58,0,0,1,74,212a.88.88,0,0,1,.44.7.54.54,0,0,1-.13.35.42.42,0,0,1-.35.18.61.61,0,0,1-.35-.1,1.28,1.28,0,0,1-.26-.26,1.15,1.15,0,0,0-.38-.26,2.42,2.42,0,0,0-.68-.2,4.92,4.92,0,0,0-1-.08,3.34,3.34,0,0,0-1.82.5,3.66,3.66,0,0,0-1.27,1.35,3.78,3.78,0,0,0-.47,1.91,4.11,4.11,0,0,0,.44,1.94,3.33,3.33,0,0,0,1.24,1.36,3.44,3.44,0,0,0,1.85.5,3.91,3.91,0,0,0,1.11-.13,3.41,3.41,0,0,0,.69-.29,2,2,0,0,0,.5-.39.54.54,0,0,1,.41-.18.46.46,0,0,1,.35.13.51.51,0,0,1,.12.35.93.93,0,0,1-.42.64,3.79,3.79,0,0,1-1.16.61,5,5,0,0,1-1.71.26,4.37,4.37,0,0,1-2.35-.63,4.33,4.33,0,0,1-1.59-1.72,5.29,5.29,0,0,1-.56-2.45,5.06,5.06,0,0,1,.57-2.4,4.61,4.61,0,0,1,1.61-1.73A4.31,4.31,0,0,1,71.28,211.27Z" transform="translate(-1.69)"/><path class="cls-1" d="M85.07,216.08a4.87,4.87,0,0,1-.61,2.45,4.45,4.45,0,0,1-1.62,1.71,4.65,4.65,0,0,1-4.64,0,4.42,4.42,0,0,1-1.64-1.71,5.34,5.34,0,0,1,0-4.92,4.57,4.57,0,0,1,1.64-1.71,4.59,4.59,0,0,1,4.64,0,4.59,4.59,0,0,1,1.62,1.71A4.89,4.89,0,0,1,85.07,216.08Zm-1.1,0a4.14,4.14,0,0,0-.45-2,3.46,3.46,0,0,0-1.23-1.34,3.37,3.37,0,0,0-1.78-.48,3.31,3.31,0,0,0-1.77.48,3.48,3.48,0,0,0-1.24,1.34,4,4,0,0,0-.46,2A4,4,0,0,0,77.5,218a3.56,3.56,0,0,0,1.24,1.34,3.24,3.24,0,0,0,1.77.5,3.29,3.29,0,0,0,1.78-.5A3.53,3.53,0,0,0,83.52,218,4.05,4.05,0,0,0,84,216.08Z" transform="translate(-1.69)"/><path class="cls-1" d="M91.62,211.27a3.36,3.36,0,0,1,1.9.48,2.67,2.67,0,0,1,1,1.29,5,5,0,0,1,.32,1.81v5.29a.55.55,0,0,1-.16.38.52.52,0,0,1-.38.16.54.54,0,0,1-.41-.16.54.54,0,0,1-.15-.38v-5.23a3.73,3.73,0,0,0-.23-1.32,2,2,0,0,0-.76-.94,2.41,2.41,0,0,0-1.39-.35,3.11,3.11,0,0,0-1.46.35,3.15,3.15,0,0,0-1.13.94,2.19,2.19,0,0,0-.43,1.32v5.23a.51.51,0,0,1-.16.38.52.52,0,0,1-.38.16.55.55,0,0,1-.56-.54v-8.06a.57.57,0,0,1,.16-.38.54.54,0,0,1,.4-.16.5.5,0,0,1,.39.16.55.55,0,0,1,.15.38v1.51l-.41.65a2.26,2.26,0,0,1,.37-1.11,3.8,3.8,0,0,1,.85-.95,4.33,4.33,0,0,1,1.16-.67A3.68,3.68,0,0,1,91.62,211.27Z" transform="translate(-1.69)"/><path class="cls-1" d="M97.09,211.52h4.19a.46.46,0,0,1,.36.15.53.53,0,0,1,.15.37.51.51,0,0,1-.51.51H97.09a.49.49,0,0,1-.37-.16.49.49,0,0,1-.15-.36.46.46,0,0,1,.15-.36A.51.51,0,0,1,97.09,211.52ZM98.94,209a.51.51,0,0,1,.39.17.51.51,0,0,1,.15.37v9a1.66,1.66,0,0,0,.14.76.74.74,0,0,0,.35.33,1.31,1.31,0,0,0,.43.08.67.67,0,0,0,.26,0,.75.75,0,0,1,.26,0,.34.34,0,0,1,.28.13.44.44,0,0,1,.12.32.49.49,0,0,1-.29.42,1.25,1.25,0,0,1-.68.17l-.49,0a1.92,1.92,0,0,1-.66-.2,1.46,1.46,0,0,1-.58-.6,2.65,2.65,0,0,1-.23-1.25v-9.09a.49.49,0,0,1,.16-.37A.54.54,0,0,1,98.94,209Z" transform="translate(-1.69)"/><path class="cls-1" d="M107.78,220.86a4.86,4.86,0,0,1-2.45-.59,4.18,4.18,0,0,1-1.65-1.66,4.92,4.92,0,0,1-.6-2.48,5.3,5.3,0,0,1,.61-2.61,4.49,4.49,0,0,1,1.56-1.67,3.91,3.91,0,0,1,2-.58,4.32,4.32,0,0,1,1.54.28,3.83,3.83,0,0,1,1.32.83,4.22,4.22,0,0,1,.93,1.34,4.56,4.56,0,0,1,.38,1.83.47.47,0,0,1-.16.37.55.55,0,0,1-.38.16h-7.22l-.21-1h7.07l-.23.22V215a2.62,2.62,0,0,0-.54-1.43,3.18,3.18,0,0,0-1.13-.9,3.1,3.1,0,0,0-1.37-.32,3.22,3.22,0,0,0-1.11.22,2.85,2.85,0,0,0-1,.68,3.4,3.4,0,0,0-.74,1.17,4.28,4.28,0,0,0-.29,1.68,4.17,4.17,0,0,0,.43,1.92,3.29,3.29,0,0,0,1.24,1.37,3.63,3.63,0,0,0,2,.51,3.31,3.31,0,0,0,1.11-.18,3.16,3.16,0,0,0,.89-.48,3.8,3.8,0,0,0,.64-.62.56.56,0,0,1,.38-.16.42.42,0,0,1,.33.14.47.47,0,0,1,.14.32.49.49,0,0,1-.18.38,4.9,4.9,0,0,1-1.41,1.13A3.89,3.89,0,0,1,107.78,220.86Z" transform="translate(-1.69)"/><path class="cls-1" d="M113.33,211.4a.49.49,0,0,1,.43.23l6.37,8.24a.53.53,0,0,1,.13.33.53.53,0,0,1-.17.38.52.52,0,0,1-.37.16.57.57,0,0,1-.45-.24l-6.39-8.22a.51.51,0,0,1-.11-.33.53.53,0,0,1,.17-.4A.56.56,0,0,1,113.33,211.4Zm0,9.34a.54.54,0,0,1-.35-.13.4.4,0,0,1-.18-.36.53.53,0,0,1,.13-.34l3-3.91.6.89-2.81,3.63A.5.5,0,0,1,113.33,220.74Zm6.39-9.34a.51.51,0,0,1,.37.13.44.44,0,0,1,.13.33.57.57,0,0,1,0,.18.41.41,0,0,1-.1.18l-3,4-.57-.86,2.79-3.71A.56.56,0,0,1,119.72,211.4Z" transform="translate(-1.69)"/><path class="cls-1" d="M122.6,211.52h4.19a.49.49,0,0,1,.36.15.52.52,0,0,1,.14.37.45.45,0,0,1-.14.36.49.49,0,0,1-.36.15H122.6a.47.47,0,0,1-.37-.16.5.5,0,0,1-.16-.36.47.47,0,0,1,.16-.36A.5.5,0,0,1,122.6,211.52Zm1.85-2.54a.51.51,0,0,1,.39.17.51.51,0,0,1,.15.37v9a1.66,1.66,0,0,0,.14.76.7.7,0,0,0,.35.33,1.26,1.26,0,0,0,.43.08.75.75,0,0,0,.26,0,.71.71,0,0,1,.26,0,.35.35,0,0,1,.28.13.44.44,0,0,1,.12.32.49.49,0,0,1-.29.42,1.26,1.26,0,0,1-.69.17l-.48,0a2,2,0,0,1-.67-.2,1.38,1.38,0,0,1-.57-.6,2.64,2.64,0,0,1-.24-1.25v-9.09a.52.52,0,0,1,.16-.37A.54.54,0,0,1,124.45,209Z" transform="translate(-1.69)"/><path class="cls-1" d="M136.17,211.54a.53.53,0,0,1,.39.16.55.55,0,0,1,.15.38v5.08a3.52,3.52,0,0,1-1,2.71,4.39,4.39,0,0,1-5.43,0,3.55,3.55,0,0,1-1-2.71v-5.08a.53.53,0,0,1,.17-.38.51.51,0,0,1,.39-.16.5.5,0,0,1,.39.16.55.55,0,0,1,.15.38v5.08A2.38,2.38,0,0,0,133,219.8a2.38,2.38,0,0,0,2.63-2.64v-5.08a.55.55,0,0,1,.15-.38A.54.54,0,0,1,136.17,211.54Z" transform="translate(-1.69)"/><path class="cls-1" d="M147,211.49a.5.5,0,0,1,.39.16.56.56,0,0,1,.15.39v8.1a.55.55,0,0,1-.54.54.52.52,0,0,1-.4-.16.54.54,0,0,1-.15-.38V218l.32-.12a2.12,2.12,0,0,1-.28,1,3.33,3.33,0,0,1-.76,1,4.1,4.1,0,0,1-1.15.73,3.68,3.68,0,0,1-1.43.27,3.88,3.88,0,0,1-2.17-.63,4.36,4.36,0,0,1-1.51-1.72,5.43,5.43,0,0,1-.55-2.47,5.33,5.33,0,0,1,.56-2.48,4.39,4.39,0,0,1,1.51-1.68,4,4,0,0,1,3.59-.34,3.75,3.75,0,0,1,1.18.74,3.42,3.42,0,0,1,.79,1.07,3,3,0,0,1,.27,1.25l-.37-.27V212a.56.56,0,0,1,.15-.39A.52.52,0,0,1,147,211.49Zm-3.74,8.37a3,3,0,0,0,1.69-.5,3.33,3.33,0,0,0,1.16-1.37,4.3,4.3,0,0,0,.43-2,4.12,4.12,0,0,0-.43-1.9,3.4,3.4,0,0,0-1.16-1.35,2.94,2.94,0,0,0-1.69-.49,3.13,3.13,0,0,0-1.68.47,3.23,3.23,0,0,0-1.17,1.33A4.17,4.17,0,0,0,140,216a4.43,4.43,0,0,0,.42,2,3.19,3.19,0,0,0,1.16,1.37A3,3,0,0,0,143.26,219.86Z" transform="translate(-1.69)"/><path class="cls-1" d="M151.56,220.14a.55.55,0,0,1-.16.38.52.52,0,0,1-.38.16.5.5,0,0,1-.39-.16.54.54,0,0,1-.15-.38V207.9a.49.49,0,0,1,.16-.37.52.52,0,0,1,.38-.17.54.54,0,0,1,.39.17.51.51,0,0,1,.15.37Z" transform="translate(-1.69)"/><path class="cls-1" d="M160,220.68a.52.52,0,0,1-.4-.16.54.54,0,0,1-.15-.38v-8.06a.52.52,0,0,1,.16-.38.53.53,0,0,1,.39-.16.5.5,0,0,1,.39.16.55.55,0,0,1,.15.38v2.7l-.27.05a4.43,4.43,0,0,1,.32-1.25,4.26,4.26,0,0,1,.71-1.14,3.69,3.69,0,0,1,1.07-.85,3.07,3.07,0,0,1,1.4-.32,1.58,1.58,0,0,1,.63.13.46.46,0,0,1,.3.45.58.58,0,0,1-.14.41.45.45,0,0,1-.34.14.79.79,0,0,1-.35-.09,1.21,1.21,0,0,0-.5-.09,2,2,0,0,0-1,.3,3.81,3.81,0,0,0-.92.8,4.21,4.21,0,0,0-.65,1.13,3.24,3.24,0,0,0-.25,1.25v4.44a.55.55,0,0,1-.54.54Z" transform="translate(-1.69)"/><path class="cls-1" d="M170,220.86a4.86,4.86,0,0,1-2.45-.59,4.31,4.31,0,0,1-1.65-1.66,4.92,4.92,0,0,1-.59-2.48,5.3,5.3,0,0,1,.6-2.61,4.44,4.44,0,0,1,1.57-1.67,3.85,3.85,0,0,1,2-.58,4.28,4.28,0,0,1,1.54.28,3.73,3.73,0,0,1,1.32.83,4.24,4.24,0,0,1,.94,1.34,4.56,4.56,0,0,1,.37,1.83.47.47,0,0,1-.16.37.55.55,0,0,1-.38.16H166l-.22-1h7.07l-.23.22V215a2.62,2.62,0,0,0-.54-1.43,3.23,3.23,0,0,0-1.12-.9,3.17,3.17,0,0,0-1.38-.32,3.22,3.22,0,0,0-1.11.22,2.73,2.73,0,0,0-1,.68,3.28,3.28,0,0,0-.75,1.17,4.47,4.47,0,0,0-.29,1.68,4.17,4.17,0,0,0,.43,1.92,3.29,3.29,0,0,0,1.24,1.37,3.63,3.63,0,0,0,2,.51,3.27,3.27,0,0,0,1.11-.18,3,3,0,0,0,.89-.48,3.8,3.8,0,0,0,.64-.62.56.56,0,0,1,.38-.16.42.42,0,0,1,.33.14.47.47,0,0,1,.14.32.49.49,0,0,1-.18.38,4.9,4.9,0,0,1-1.41,1.13A3.89,3.89,0,0,1,170,220.86Z" transform="translate(-1.69)"/><path class="cls-1" d="M177.15,220.14a.55.55,0,0,1-.54.54.49.49,0,0,1-.38-.16.51.51,0,0,1-.16-.38V207.9a.59.59,0,0,1,.54-.54.51.51,0,0,1,.39.17.51.51,0,0,1,.15.37Z" transform="translate(-1.69)"/><path class="cls-1" d="M184,220.86a4.92,4.92,0,0,1-2.46-.59,4.22,4.22,0,0,1-1.64-1.66,4.92,4.92,0,0,1-.6-2.48,5.19,5.19,0,0,1,.61-2.61,4.49,4.49,0,0,1,1.56-1.67,3.88,3.88,0,0,1,2.05-.58,4.32,4.32,0,0,1,1.54.28,3.83,3.83,0,0,1,1.32.83,4.22,4.22,0,0,1,.93,1.34,4.56,4.56,0,0,1,.38,1.83.47.47,0,0,1-.16.37.55.55,0,0,1-.38.16h-7.22l-.21-1h7.07l-.23.22V215a2.62,2.62,0,0,0-.54-1.43,3.18,3.18,0,0,0-1.13-.9,3.13,3.13,0,0,0-1.37-.32,3.22,3.22,0,0,0-1.11.22,2.85,2.85,0,0,0-1,.68,3.4,3.4,0,0,0-.74,1.17,4.28,4.28,0,0,0-.29,1.68,4.17,4.17,0,0,0,.43,1.92,3.29,3.29,0,0,0,1.24,1.37,3.62,3.62,0,0,0,2,.51,3.33,3.33,0,0,0,1.12-.18,3.16,3.16,0,0,0,.89-.48,3.8,3.8,0,0,0,.64-.62.56.56,0,0,1,.38-.16.42.42,0,0,1,.33.14.47.47,0,0,1,.14.32.49.49,0,0,1-.18.38,4.9,4.9,0,0,1-1.41,1.13A3.89,3.89,0,0,1,184,220.86Z" transform="translate(-1.69)"/><path class="cls-1" d="M189.63,211.29a.57.57,0,0,1,.29.09.58.58,0,0,1,.21.27l3.15,7.49-.23.14,3.22-7.63a.49.49,0,0,1,.52-.34.54.54,0,0,1,.34.12.4.4,0,0,1,.17.33.48.48,0,0,1,0,.18s0,.09-.05.12l-3.52,8.28a.53.53,0,0,1-.49.34.42.42,0,0,1-.32-.08.47.47,0,0,1-.22-.26l-3.55-8.26,0-.13a.59.59,0,0,1,0-.14.56.56,0,0,1,.14-.36A.54.54,0,0,1,189.63,211.29Z" transform="translate(-1.69)"/><path class="cls-1" d="M206.8,211.49a.51.51,0,0,1,.39.16.56.56,0,0,1,.15.39v8.1a.51.51,0,0,1-.16.38.52.52,0,0,1-.38.16.55.55,0,0,1-.56-.54V218l.33-.12a2.24,2.24,0,0,1-.28,1,3.37,3.37,0,0,1-.77,1,3.91,3.91,0,0,1-1.14.73,3.75,3.75,0,0,1-1.43.27,3.86,3.86,0,0,1-2.17-.63,4.29,4.29,0,0,1-1.51-1.72,5.43,5.43,0,0,1-.55-2.47,5.21,5.21,0,0,1,.56-2.48,4.31,4.31,0,0,1,1.51-1.68,3.93,3.93,0,0,1,4.77.4,3.39,3.39,0,0,1,.78,1.07,2.89,2.89,0,0,1,.28,1.25l-.38-.27V212a.53.53,0,0,1,.16-.39A.51.51,0,0,1,206.8,211.49Zm-3.74,8.37a3,3,0,0,0,1.69-.5,3.33,3.33,0,0,0,1.16-1.37,4.43,4.43,0,0,0,.42-2,4.24,4.24,0,0,0-.42-1.9,3.4,3.4,0,0,0-1.16-1.35,3,3,0,0,0-1.69-.49,3.14,3.14,0,0,0-1.69.47,3.37,3.37,0,0,0-1.17,1.33,4.29,4.29,0,0,0-.42,1.94,4.57,4.57,0,0,0,.41,2,3.28,3.28,0,0,0,1.17,1.37A3,3,0,0,0,203.06,219.86Z" transform="translate(-1.69)"/><path class="cls-1" d="M214.5,211.27a3.32,3.32,0,0,1,1.9.48,2.63,2.63,0,0,1,1,1.29,5,5,0,0,1,.31,1.81v5.29a.55.55,0,0,1-.54.54.52.52,0,0,1-.4-.16.54.54,0,0,1-.15-.38v-5.23a3.52,3.52,0,0,0-.24-1.32,2,2,0,0,0-.75-.94,2.41,2.41,0,0,0-1.39-.35,3.23,3.23,0,0,0-2.59,1.29,2.19,2.19,0,0,0-.43,1.32v5.23a.52.52,0,0,1-.17.38.49.49,0,0,1-.37.16.53.53,0,0,1-.41-.16.54.54,0,0,1-.15-.38v-8.06a.52.52,0,0,1,.16-.38.54.54,0,0,1,.4-.16.49.49,0,0,1,.38.16.57.57,0,0,1,.16.38v1.51l-.42.65a2.48,2.48,0,0,1,.37-1.11,3.84,3.84,0,0,1,.86-.95,4,4,0,0,1,1.16-.67A3.58,3.58,0,0,1,214.5,211.27Z" transform="translate(-1.69)"/><path class="cls-1" d="M220,211.52h4.19a.49.49,0,0,1,.36.15.52.52,0,0,1,.14.37.45.45,0,0,1-.14.36.49.49,0,0,1-.36.15H220a.47.47,0,0,1-.37-.16.46.46,0,0,1-.16-.36.44.44,0,0,1,.16-.36A.5.5,0,0,1,220,211.52Zm1.85-2.54a.52.52,0,0,1,.39.17.51.51,0,0,1,.15.37v9a1.82,1.82,0,0,0,.13.76.72.72,0,0,0,.36.33,1.26,1.26,0,0,0,.43.08.75.75,0,0,0,.26,0,.71.71,0,0,1,.26,0,.35.35,0,0,1,.28.13.44.44,0,0,1,.12.32.49.49,0,0,1-.29.42,1.26,1.26,0,0,1-.69.17l-.48,0a2,2,0,0,1-.67-.2,1.38,1.38,0,0,1-.57-.6,2.64,2.64,0,0,1-.24-1.25v-9.09a.52.52,0,0,1,.16-.37A.54.54,0,0,1,221.83,209Z" transform="translate(-1.69)"/><path class="cls-1" d="M232.77,220.14a.55.55,0,0,1-.54.54.49.49,0,0,1-.38-.16.51.51,0,0,1-.16-.38V207.9a.59.59,0,0,1,.54-.54.51.51,0,0,1,.39.17.51.51,0,0,1,.15.37Z" transform="translate(-1.69)"/><path class="cls-1" d="M236.23,210.12a.86.86,0,0,1-.57-.17.67.67,0,0,1-.19-.5v-.18a.59.59,0,0,1,.21-.49.84.84,0,0,1,.57-.17.74.74,0,0,1,.53.17.65.65,0,0,1,.19.49v.18a.67.67,0,0,1-.19.5A.82.82,0,0,1,236.23,210.12Zm.54,10a.51.51,0,0,1-.16.38.52.52,0,0,1-.38.16.51.51,0,0,1-.4-.16.57.57,0,0,1-.14-.38v-8.28a.51.51,0,0,1,.15-.37.51.51,0,0,1,.39-.17.52.52,0,0,1,.39.17.51.51,0,0,1,.15.37Z" transform="translate(-1.69)"/><path class="cls-1" d="M243.92,211.27a3.31,3.31,0,0,1,1.89.48,2.63,2.63,0,0,1,1,1.29,5,5,0,0,1,.32,1.81v5.29a.52.52,0,0,1-.17.38.5.5,0,0,1-.37.16.53.53,0,0,1-.41-.16.54.54,0,0,1-.15-.38v-5.23a3.52,3.52,0,0,0-.24-1.32,1.93,1.93,0,0,0-.75-.94,2.41,2.41,0,0,0-1.39-.35,3.18,3.18,0,0,0-1.47.35,3.12,3.12,0,0,0-1.12.94,2.19,2.19,0,0,0-.43,1.32v5.23a.55.55,0,0,1-.16.38.52.52,0,0,1-.38.16.53.53,0,0,1-.41-.16.54.54,0,0,1-.15-.38v-8.06a.52.52,0,0,1,.16-.38.54.54,0,0,1,.4-.16.49.49,0,0,1,.38.16.52.52,0,0,1,.16.38v1.51l-.42.65a2.48,2.48,0,0,1,.37-1.11,3.84,3.84,0,0,1,.86-.95,4,4,0,0,1,1.16-.67A3.6,3.6,0,0,1,243.92,211.27Z" transform="translate(-1.69)"/><path class="cls-1" d="M250.63,220.68a.5.5,0,0,1-.39-.16.54.54,0,0,1-.15-.38V207.9a.51.51,0,0,1,.15-.37.51.51,0,0,1,.39-.17.54.54,0,0,1,.39.17.51.51,0,0,1,.15.37v12.24a.54.54,0,0,1-.15.38A.53.53,0,0,1,250.63,220.68Zm6.1-9.23a.57.57,0,0,1,.54.54.51.51,0,0,1-.2.41l-6,5.15-.05-1.28,5.4-4.64A.48.48,0,0,1,256.73,211.45Zm.16,9.23a.54.54,0,0,1-.41-.19l-4.09-4.36.81-.74,4.07,4.34a.59.59,0,0,1,.16.41.46.46,0,0,1-.2.4A.56.56,0,0,1,256.89,220.68Z" transform="translate(-1.69)"/><path class="cls-1" d="M24.52,237.68a5,5,0,0,1-.6,2.45,4.4,4.4,0,0,1-1.63,1.71,4.63,4.63,0,0,1-4.63,0A4.42,4.42,0,0,1,16,240.13a5.34,5.34,0,0,1,0-4.92,4.57,4.57,0,0,1,1.64-1.71,4.57,4.57,0,0,1,4.63,0,4.54,4.54,0,0,1,1.63,1.71A5,5,0,0,1,24.52,237.68Zm-1.09,0a4.14,4.14,0,0,0-.45-2,3.41,3.41,0,0,0-1.24-1.34,3.5,3.5,0,0,0-3.54,0A3.48,3.48,0,0,0,17,235.72a4,4,0,0,0-.46,2,4,4,0,0,0,.46,1.94A3.56,3.56,0,0,0,18.2,241a3.38,3.38,0,0,0,3.54,0A3.48,3.48,0,0,0,23,239.62,4.05,4.05,0,0,0,23.43,237.68Z" transform="translate(-1.69)"/><path class="cls-1" d="M31.11,233a3.88,3.88,0,0,1,2.17.61,4.28,4.28,0,0,1,1.5,1.65,5.53,5.53,0,0,1,0,4.85,4.31,4.31,0,0,1-1.51,1.68,3.85,3.85,0,0,1-2.14.61,3.68,3.68,0,0,1-1.2-.19,4.5,4.5,0,0,1-1-.51,4,4,0,0,1-.83-.77,3.81,3.81,0,0,1-.57-.94l.32-.25v5.59a.54.54,0,0,1-.15.38.53.53,0,0,1-.39.16.54.54,0,0,1-.4-.16.51.51,0,0,1-.16-.38V233.61a.57.57,0,0,1,.15-.4.54.54,0,0,1,.41-.16.53.53,0,0,1,.39.16.57.57,0,0,1,.15.4v1.94l-.25-.14a3,3,0,0,1,.53-1,3.5,3.5,0,0,1,.82-.76,3.39,3.39,0,0,1,1-.47A4.09,4.09,0,0,1,31.11,233ZM31,234a3.08,3.08,0,0,0-1.71.48,3.32,3.32,0,0,0-1.16,1.3,4.05,4.05,0,0,0-.42,1.89,4.22,4.22,0,0,0,.42,1.91,3.19,3.19,0,0,0,1.16,1.32,3.08,3.08,0,0,0,1.71.48,3,3,0,0,0,1.69-.48,3.23,3.23,0,0,0,1.15-1.32,4.22,4.22,0,0,0,.42-1.91,4.17,4.17,0,0,0-.42-1.89,3.38,3.38,0,0,0-1.15-1.3A3,3,0,0,0,31,234Z" transform="translate(-1.69)"/><path class="cls-1" d="M42,233a3.9,3.9,0,0,1,2.17.61,4.28,4.28,0,0,1,1.5,1.65,5.53,5.53,0,0,1,0,4.85,4.39,4.39,0,0,1-1.51,1.68,3.87,3.87,0,0,1-2.14.61,3.68,3.68,0,0,1-1.2-.19,4.57,4.57,0,0,1-1-.51,4,4,0,0,1-.82-.77,3.85,3.85,0,0,1-.58-.94l.32-.25v5.59a.54.54,0,0,1-.15.38.5.5,0,0,1-.39.16.53.53,0,0,1-.39-.16.51.51,0,0,1-.16-.38V233.61a.57.57,0,0,1,.15-.4.52.52,0,0,1,.4-.16.5.5,0,0,1,.39.16.57.57,0,0,1,.15.4v1.94l-.25-.14a3.2,3.2,0,0,1,.53-1,3.94,3.94,0,0,1,.82-.76,3.44,3.44,0,0,1,1-.47A4.09,4.09,0,0,1,42,233Zm-.09,1a3.06,3.06,0,0,0-1.71.48A3.32,3.32,0,0,0,39,235.8a4.05,4.05,0,0,0-.43,1.89A4.23,4.23,0,0,0,39,239.6a3.19,3.19,0,0,0,1.16,1.32,3.06,3.06,0,0,0,1.71.48,3,3,0,0,0,1.68-.48,3.16,3.16,0,0,0,1.15-1.32,4.1,4.1,0,0,0,.43-1.91,4,4,0,0,0-.43-1.89,3.3,3.3,0,0,0-1.15-1.3A3,3,0,0,0,41.86,234Z" transform="translate(-1.69)"/><path class="cls-1" d="M56.91,237.68a4.87,4.87,0,0,1-.61,2.45,4.4,4.4,0,0,1-1.63,1.71,4.63,4.63,0,0,1-4.63,0,4.42,4.42,0,0,1-1.64-1.71,5.34,5.34,0,0,1,0-4.92A4.57,4.57,0,0,1,50,233.5a4.57,4.57,0,0,1,4.63,0,4.54,4.54,0,0,1,1.63,1.71A4.89,4.89,0,0,1,56.91,237.68Zm-1.1,0a4.14,4.14,0,0,0-.45-2,3.46,3.46,0,0,0-1.23-1.34,3.37,3.37,0,0,0-1.78-.48,3.31,3.31,0,0,0-1.77.48,3.48,3.48,0,0,0-1.24,1.34,4,4,0,0,0-.46,2,4,4,0,0,0,.46,1.94A3.56,3.56,0,0,0,50.58,241a3.24,3.24,0,0,0,1.77.5,3.29,3.29,0,0,0,1.78-.5,3.53,3.53,0,0,0,1.23-1.34A4.05,4.05,0,0,0,55.81,237.68Z" transform="translate(-1.69)"/><path class="cls-1" d="M59.66,242.28a.55.55,0,0,1-.56-.54v-8.06a.57.57,0,0,1,.16-.38.54.54,0,0,1,.4-.16.5.5,0,0,1,.39.16.55.55,0,0,1,.15.38v2.7l-.27.05a4.12,4.12,0,0,1,.32-1.25A4.26,4.26,0,0,1,61,234a3.56,3.56,0,0,1,1.07-.85,3,3,0,0,1,1.39-.32,1.69,1.69,0,0,1,.63.13.46.46,0,0,1,.31.45.54.54,0,0,1-.15.41.44.44,0,0,1-.34.14.83.83,0,0,1-.35-.09,1.13,1.13,0,0,0-.49-.09,1.94,1.94,0,0,0-1,.3,3.63,3.63,0,0,0-.92.8,4.24,4.24,0,0,0-.66,1.13,3.43,3.43,0,0,0-.24,1.25v4.44a.51.51,0,0,1-.16.38A.52.52,0,0,1,59.66,242.28Z" transform="translate(-1.69)"/><path class="cls-1" d="M65.46,233.12h4.19a.46.46,0,0,1,.36.16.48.48,0,0,1,.14.36A.45.45,0,0,1,70,234a.49.49,0,0,1-.36.15H65.46a.53.53,0,0,1-.53-.52.44.44,0,0,1,.16-.36A.5.5,0,0,1,65.46,233.12Zm1.85-2.54a.52.52,0,0,1,.39.17.51.51,0,0,1,.15.37v9a1.82,1.82,0,0,0,.13.76.68.68,0,0,0,.36.33,1.26,1.26,0,0,0,.43.08.75.75,0,0,0,.26,0,.55.55,0,0,1,.26,0,.35.35,0,0,1,.28.13.44.44,0,0,1,.12.32.49.49,0,0,1-.29.42,1.26,1.26,0,0,1-.69.17c-.1,0-.27,0-.48,0a2,2,0,0,1-.67-.2,1.33,1.33,0,0,1-.57-.6,2.64,2.64,0,0,1-.24-1.25v-9.09a.52.52,0,0,1,.16-.37A.54.54,0,0,1,67.31,230.58Z" transform="translate(-1.69)"/><path class="cls-1" d="M79,233.14a.53.53,0,0,1,.39.16.55.55,0,0,1,.15.38v5.08a3.52,3.52,0,0,1-1,2.71,4.39,4.39,0,0,1-5.43,0,3.55,3.55,0,0,1-1-2.71v-5.08a.53.53,0,0,1,.17-.38.51.51,0,0,1,.39-.16.5.5,0,0,1,.39.16.55.55,0,0,1,.15.38v5.08a2.37,2.37,0,0,0,2.61,2.64,2.68,2.68,0,0,0,1.94-.67,2.64,2.64,0,0,0,.69-2v-5.08a.55.55,0,0,1,.15-.38A.53.53,0,0,1,79,233.14Z" transform="translate(-1.69)"/><path class="cls-1" d="M86.73,232.87a3.34,3.34,0,0,1,1.9.48,2.73,2.73,0,0,1,1,1.29,5,5,0,0,1,.31,1.81v5.29a.55.55,0,0,1-1.1,0v-5.23a3.52,3.52,0,0,0-.23-1.32,2,2,0,0,0-.76-.94,2.37,2.37,0,0,0-1.38-.35,3.12,3.12,0,0,0-1.47.35,3,3,0,0,0-1.12.94,2.2,2.2,0,0,0-.44,1.32v5.23a.55.55,0,0,1-.54.54.52.52,0,0,1-.4-.16.54.54,0,0,1-.15-.38v-8.06a.52.52,0,0,1,.16-.38.53.53,0,0,1,.39-.16.5.5,0,0,1,.39.16.55.55,0,0,1,.15.38v1.51l-.41.65a2.36,2.36,0,0,1,.37-1.11,4,4,0,0,1,.85-.95,4.62,4.62,0,0,1,1.16-.67A3.68,3.68,0,0,1,86.73,232.87Z" transform="translate(-1.69)"/><path class="cls-1" d="M93.3,231.72a.86.86,0,0,1-.57-.17.67.67,0,0,1-.18-.5v-.18a.59.59,0,0,1,.2-.49.84.84,0,0,1,.57-.17.74.74,0,0,1,.53.17.61.61,0,0,1,.19.49v.18a.63.63,0,0,1-.19.5A.82.82,0,0,1,93.3,231.72Zm.54,10a.55.55,0,0,1-.54.54.47.47,0,0,1-.39-.16.54.54,0,0,1-.15-.38v-8.28a.51.51,0,0,1,.15-.37.54.54,0,0,1,.39-.17.51.51,0,0,1,.39.17.51.51,0,0,1,.15.37Z" transform="translate(-1.69)"/><path class="cls-1" d="M96.06,233.12h4.19a.46.46,0,0,1,.36.16.48.48,0,0,1,.14.36.45.45,0,0,1-.14.36.49.49,0,0,1-.36.15H96.06a.53.53,0,0,1-.53-.52.44.44,0,0,1,.16-.36A.5.5,0,0,1,96.06,233.12Zm1.85-2.54a.54.54,0,0,1,.39.17.51.51,0,0,1,.15.37v9a1.67,1.67,0,0,0,.13.76.68.68,0,0,0,.36.33,1.26,1.26,0,0,0,.43.08.75.75,0,0,0,.26,0,.55.55,0,0,1,.26,0,.35.35,0,0,1,.28.13.44.44,0,0,1,.12.32.49.49,0,0,1-.29.42,1.26,1.26,0,0,1-.69.17c-.1,0-.27,0-.48,0a2,2,0,0,1-.67-.2,1.4,1.4,0,0,1-.58-.6,2.78,2.78,0,0,1-.23-1.25v-9.09a.52.52,0,0,1,.16-.37A.54.54,0,0,1,97.91,230.58Z" transform="translate(-1.69)"/><path class="cls-1" d="M103.25,231.72a.81.81,0,0,1-.56-.17.63.63,0,0,1-.19-.5v-.18a.59.59,0,0,1,.21-.49.8.8,0,0,1,.56-.17.72.72,0,0,1,.53.17.61.61,0,0,1,.19.49v.18a.63.63,0,0,1-.19.5A.79.79,0,0,1,103.25,231.72Zm.54,10a.55.55,0,0,1-.54.54.5.5,0,0,1-.39-.16.53.53,0,0,1-.14-.38v-8.28a.51.51,0,0,1,.15-.37.5.5,0,0,1,.38-.17.51.51,0,0,1,.39.17.51.51,0,0,1,.15.37Z" transform="translate(-1.69)"/><path class="cls-1" d="M110.69,242.46a4.87,4.87,0,0,1-2.46-.59,4.31,4.31,0,0,1-1.65-1.66,5,5,0,0,1-.59-2.48,5.3,5.3,0,0,1,.6-2.61,4.49,4.49,0,0,1,1.57-1.66,3.86,3.86,0,0,1,2-.59,4.28,4.28,0,0,1,1.54.28,3.79,3.79,0,0,1,1.32.83,4.09,4.09,0,0,1,.94,1.34,4.56,4.56,0,0,1,.38,1.83.51.51,0,0,1-.16.37.52.52,0,0,1-.38.16h-7.22l-.22-1h7.08l-.24.22v-.36a2.48,2.48,0,0,0-.54-1.43,3.08,3.08,0,0,0-3.6-1,2.85,2.85,0,0,0-1,.68,3.28,3.28,0,0,0-.75,1.17,4.47,4.47,0,0,0-.29,1.68,4.18,4.18,0,0,0,.44,1.92,3.22,3.22,0,0,0,1.24,1.37,3.6,3.6,0,0,0,2,.51,3.22,3.22,0,0,0,2-.66,3.8,3.8,0,0,0,.64-.62.53.53,0,0,1,.37-.16.42.42,0,0,1,.34.14.45.45,0,0,1,.13.32.49.49,0,0,1-.18.38,5,5,0,0,1-1.4,1.13A4,4,0,0,1,110.69,242.46Z" transform="translate(-1.69)"/><path class="cls-1" d="M116.09,240.83a.76.76,0,0,1-.14-.43.4.4,0,0,1,.23-.33.44.44,0,0,1,.33-.11.54.54,0,0,1,.35.18,4,4,0,0,0,1.18,1,3.3,3.3,0,0,0,1.65.39,3.18,3.18,0,0,0,1-.17,2,2,0,0,0,.82-.53,1.28,1.28,0,0,0,.32-.89,1.24,1.24,0,0,0-.32-.89,2.53,2.53,0,0,0-.84-.54,8,8,0,0,0-1.11-.35c-.41-.11-.8-.23-1.18-.37a4.58,4.58,0,0,1-1-.52,2.36,2.36,0,0,1-.71-.77,2.07,2.07,0,0,1-.27-1.09,2.29,2.29,0,0,1,.41-1.34,2.73,2.73,0,0,1,1.12-.9,4,4,0,0,1,1.61-.32,4.45,4.45,0,0,1,1,.12,4.08,4.08,0,0,1,1,.38,3,3,0,0,1,.9.74.5.5,0,0,1,.16.37.54.54,0,0,1-.18.39.52.52,0,0,1-.33.1.43.43,0,0,1-.31-.16,2.75,2.75,0,0,0-1-.72,3.21,3.21,0,0,0-1.28-.25,3.14,3.14,0,0,0-1,.16,1.83,1.83,0,0,0-.76.51,1.28,1.28,0,0,0-.31.9,1.22,1.22,0,0,0,.37.84,2.53,2.53,0,0,0,.88.54,10.46,10.46,0,0,0,1.23.4,11.12,11.12,0,0,1,1.11.34,3.65,3.65,0,0,1,.94.5,2.32,2.32,0,0,1,.65.74,2.41,2.41,0,0,1,.24,1.14,2.22,2.22,0,0,1-.44,1.37,2.94,2.94,0,0,1-1.18.88,4.32,4.32,0,0,1-1.64.3,4.88,4.88,0,0,1-1.88-.37A4.18,4.18,0,0,1,116.09,240.83Z" transform="translate(-1.69)"/><path class="cls-1" d="M134,233.27a.5.5,0,1,1,0,1h-4.41a.51.51,0,0,1-.5-.5.47.47,0,0,1,.15-.37.51.51,0,0,1,.35-.13ZM133.3,229a3,3,0,0,1,.58.05,1.57,1.57,0,0,1,.55.2.43.43,0,0,1,.23.39.49.49,0,0,1-.14.37.42.42,0,0,1-.32.16,1.32,1.32,0,0,1-.45-.11,1.62,1.62,0,0,0-.58-.11,1.23,1.23,0,0,0-.65.17,1.1,1.1,0,0,0-.41.49,1.75,1.75,0,0,0-.15.76v10.33a.54.54,0,0,1-.15.38.5.5,0,0,1-.39.16.49.49,0,0,1-.38-.16.55.55,0,0,1-.16-.38V231.41a2.25,2.25,0,0,1,.68-1.76A2.48,2.48,0,0,1,133.3,229Z" transform="translate(-1.69)"/><path class="cls-1" d="M144.82,237.68a4.87,4.87,0,0,1-.61,2.45,4.4,4.4,0,0,1-1.63,1.71,4.63,4.63,0,0,1-4.63,0,4.42,4.42,0,0,1-1.64-1.71,5.34,5.34,0,0,1,0-4.92A4.57,4.57,0,0,1,138,233.5a4.57,4.57,0,0,1,4.63,0,4.54,4.54,0,0,1,1.63,1.71A4.89,4.89,0,0,1,144.82,237.68Zm-1.1,0a4.14,4.14,0,0,0-.45-2,3.46,3.46,0,0,0-1.23-1.34,3.37,3.37,0,0,0-1.78-.48,3.31,3.31,0,0,0-1.77.48,3.48,3.48,0,0,0-1.24,1.34,4,4,0,0,0-.46,2,4,4,0,0,0,.46,1.94,3.56,3.56,0,0,0,1.24,1.34,3.24,3.24,0,0,0,1.77.5A3.29,3.29,0,0,0,142,241a3.53,3.53,0,0,0,1.23-1.34A4.05,4.05,0,0,0,143.72,237.68Z" transform="translate(-1.69)"/><path class="cls-1" d="M147.57,242.28a.55.55,0,0,1-.56-.54v-8.06a.57.57,0,0,1,.16-.38.54.54,0,0,1,.4-.16.5.5,0,0,1,.39.16.55.55,0,0,1,.15.38v2.7l-.27.05a4.12,4.12,0,0,1,.32-1.25,4.26,4.26,0,0,1,.71-1.14,3.56,3.56,0,0,1,1.07-.85,3,3,0,0,1,1.39-.32,1.69,1.69,0,0,1,.63.13.46.46,0,0,1,.31.45.54.54,0,0,1-.15.41.44.44,0,0,1-.34.14.83.83,0,0,1-.35-.09,1.13,1.13,0,0,0-.49-.09,1.94,1.94,0,0,0-1,.3,3.63,3.63,0,0,0-.92.8,4.24,4.24,0,0,0-.66,1.13,3.43,3.43,0,0,0-.24,1.25v4.44a.51.51,0,0,1-.16.38A.52.52,0,0,1,147.57,242.28Z" transform="translate(-1.69)"/><path class="cls-1" d="M163,242.46a4.9,4.9,0,0,1-2.46-.59,4.22,4.22,0,0,1-1.64-1.66,4.92,4.92,0,0,1-.6-2.48,5.19,5.19,0,0,1,.61-2.61,4.39,4.39,0,0,1,1.56-1.66,3.86,3.86,0,0,1,2-.59,4.24,4.24,0,0,1,1.54.28,3.92,3.92,0,0,1,1.33.83,4.22,4.22,0,0,1,.93,1.34,4.56,4.56,0,0,1,.38,1.83.47.47,0,0,1-.16.37.52.52,0,0,1-.38.16h-7.22l-.21-1h7.07l-.23.22v-.36a2.62,2.62,0,0,0-.54-1.43,3.27,3.27,0,0,0-1.13-.9,3,3,0,0,0-2.48-.1,2.85,2.85,0,0,0-1,.68,3.57,3.57,0,0,0-.75,1.17,4.48,4.48,0,0,0-.28,1.68,4.17,4.17,0,0,0,.43,1.92A3.29,3.29,0,0,0,161,241a3.6,3.6,0,0,0,2,.51,3.22,3.22,0,0,0,2-.66,3.8,3.8,0,0,0,.64-.62A.54.54,0,0,1,166,240a.42.42,0,0,1,.33.14.45.45,0,0,1,.13.32.49.49,0,0,1-.18.38,4.86,4.86,0,0,1-1.4,1.13A4,4,0,0,1,163,242.46Z" transform="translate(-1.69)"/><path class="cls-1" d="M176.42,233.09a.5.5,0,0,1,.39.16.56.56,0,0,1,.15.39v8.1a.55.55,0,0,1-.54.54.52.52,0,0,1-.4-.16.54.54,0,0,1-.15-.38V239.6l.32-.12a2.12,2.12,0,0,1-.28,1,3.51,3.51,0,0,1-.76,1,4.1,4.1,0,0,1-1.15.73,3.72,3.72,0,0,1-1.43.27,3.88,3.88,0,0,1-2.17-.63,4.36,4.36,0,0,1-1.51-1.72,5.43,5.43,0,0,1-.55-2.47,5.26,5.26,0,0,1,.56-2.47,4.35,4.35,0,0,1,1.51-1.69,4,4,0,0,1,3.59-.34,3.75,3.75,0,0,1,1.18.74A3.24,3.24,0,0,1,176,235a2.89,2.89,0,0,1,.28,1.25l-.37-.27v-2.29a.56.56,0,0,1,.15-.39A.52.52,0,0,1,176.42,233.09Zm-3.74,8.37a3,3,0,0,0,1.69-.5,3.33,3.33,0,0,0,1.16-1.37,4.43,4.43,0,0,0,.43-2,4.25,4.25,0,0,0-.43-1.9,3.4,3.4,0,0,0-1.16-1.35,2.94,2.94,0,0,0-1.69-.49,3.13,3.13,0,0,0-1.68.47,3.23,3.23,0,0,0-1.17,1.33,4.17,4.17,0,0,0-.43,1.94,4.43,4.43,0,0,0,.42,2A3.19,3.19,0,0,0,171,241,3,3,0,0,0,172.68,241.46Z" transform="translate(-1.69)"/><path class="cls-1" d="M183.75,232.87a6.11,6.11,0,0,1,1.6.19,3.58,3.58,0,0,1,1.16.51.88.88,0,0,1,.44.7.59.59,0,0,1-.13.36.44.44,0,0,1-.35.17.61.61,0,0,1-.35-.1,1.52,1.52,0,0,1-.26-.25,1,1,0,0,0-.38-.27,2.42,2.42,0,0,0-.68-.2,4.92,4.92,0,0,0-1-.08,3.34,3.34,0,0,0-1.82.5,3.66,3.66,0,0,0-1.27,1.35,3.78,3.78,0,0,0-.47,1.91,4.11,4.11,0,0,0,.44,1.94,3.33,3.33,0,0,0,1.24,1.36,3.44,3.44,0,0,0,1.85.5,3.91,3.91,0,0,0,1.11-.13,3.41,3.41,0,0,0,.69-.29,2.23,2.23,0,0,0,.5-.38.52.52,0,0,1,.41-.19.46.46,0,0,1,.35.13.51.51,0,0,1,.12.35.93.93,0,0,1-.42.64,3.59,3.59,0,0,1-1.16.61,5,5,0,0,1-1.71.26,4.37,4.37,0,0,1-2.35-.63,4.27,4.27,0,0,1-1.58-1.71,5.25,5.25,0,0,1-.57-2.46,5.06,5.06,0,0,1,.57-2.4,4.61,4.61,0,0,1,1.61-1.73A4.31,4.31,0,0,1,183.75,232.87Z" transform="translate(-1.69)"/><path class="cls-1" d="M193.24,233a3.19,3.19,0,0,1,1.83.49,2.88,2.88,0,0,1,1,1.31,5,5,0,0,1,.33,1.84v5.09a.51.51,0,0,1-.16.38.52.52,0,0,1-.38.16.55.55,0,0,1-.56-.54v-5.09a3.66,3.66,0,0,0-.22-1.32,2.07,2.07,0,0,0-.72-1,2.24,2.24,0,0,0-1.34-.36,3.1,3.1,0,0,0-2.52,1.31,2.21,2.21,0,0,0-.42,1.32v5.09a.55.55,0,0,1-.94.38.55.55,0,0,1-.16-.38V229.5a.5.5,0,0,1,.17-.37.52.52,0,0,1,.39-.17.51.51,0,0,1,.39.17.51.51,0,0,1,.15.37v5.84l-.41.63a2.33,2.33,0,0,1,.35-1.09,3.71,3.71,0,0,1,.82-1,4,4,0,0,1,1.11-.66A3.24,3.24,0,0,1,193.24,233Z" transform="translate(-1.69)"/><path class="cls-1" d="M208.55,233a3.88,3.88,0,0,1,2.17.61,4.38,4.38,0,0,1,1.51,1.65,5.62,5.62,0,0,1,0,4.85,4.41,4.41,0,0,1-1.52,1.68,3.85,3.85,0,0,1-2.14.61,3.58,3.58,0,0,1-1.19-.19,4.37,4.37,0,0,1-1-.51,4,4,0,0,1-.83-.77,3.81,3.81,0,0,1-.57-.94l.32-.25v5.59a.54.54,0,0,1-.15.38.51.51,0,0,1-.39.16.54.54,0,0,1-.4-.16.55.55,0,0,1-.16-.38V233.61a.57.57,0,0,1,.15-.4.54.54,0,0,1,.41-.16.51.51,0,0,1,.39.16.57.57,0,0,1,.15.4v1.94l-.25-.14a3,3,0,0,1,.53-1,3.5,3.5,0,0,1,.82-.76,3.39,3.39,0,0,1,1-.47A4.19,4.19,0,0,1,208.55,233Zm-.09,1a3.1,3.1,0,0,0-1.71.48,3.32,3.32,0,0,0-1.16,1.3,4.05,4.05,0,0,0-.42,1.89,4.22,4.22,0,0,0,.42,1.91,3.19,3.19,0,0,0,1.16,1.32,3.1,3.1,0,0,0,1.71.48,3,3,0,0,0,1.69-.48,3.23,3.23,0,0,0,1.15-1.32,4.22,4.22,0,0,0,.42-1.91,4.17,4.17,0,0,0-.42-1.89,3.38,3.38,0,0,0-1.15-1.3A3,3,0,0,0,208.46,234Z" transform="translate(-1.69)"/><path class="cls-1" d="M222.49,233.09a.49.49,0,0,1,.38.16.57.57,0,0,1,.16.39v8.1a.52.52,0,0,1-.17.38.49.49,0,0,1-.37.16.53.53,0,0,1-.41-.16.54.54,0,0,1-.15-.38V239.6l.32-.12a2.12,2.12,0,0,1-.28,1,3.33,3.33,0,0,1-.76,1,4.1,4.1,0,0,1-1.15.73,3.68,3.68,0,0,1-1.43.27,3.91,3.91,0,0,1-2.17-.63,4.36,4.36,0,0,1-1.51-1.72,5.57,5.57,0,0,1-.55-2.47,5.26,5.26,0,0,1,.56-2.47,4.35,4.35,0,0,1,1.51-1.69,3.88,3.88,0,0,1,2.15-.61,3.84,3.84,0,0,1,1.44.27,3.75,3.75,0,0,1,1.18.74A3.42,3.42,0,0,1,222,235a3,3,0,0,1,.28,1.25l-.38-.27v-2.29a.56.56,0,0,1,.15-.39A.53.53,0,0,1,222.49,233.09Zm-3.75,8.37a3,3,0,0,0,1.69-.5,3.26,3.26,0,0,0,1.16-1.37,4.3,4.3,0,0,0,.43-2,4.12,4.12,0,0,0-.43-1.9,3.33,3.33,0,0,0-1.16-1.35,2.94,2.94,0,0,0-1.69-.49,3.13,3.13,0,0,0-1.68.47,3.23,3.23,0,0,0-1.17,1.33,4.29,4.29,0,0,0-.42,1.94,4.42,4.42,0,0,0,.41,2A3.26,3.26,0,0,0,217,241,3,3,0,0,0,218.74,241.46Z" transform="translate(-1.69)"/><path class="cls-1" d="M229.61,232.87a3.82,3.82,0,0,1,1.48.28,4.78,4.78,0,0,1,1.2.72,3.64,3.64,0,0,1,.8.94,1.89,1.89,0,0,1,.29.94l-.29-.43v-1.68a.56.56,0,0,1,.15-.39.5.5,0,0,1,.39-.16.49.49,0,0,1,.38.16.53.53,0,0,1,.16.39v7.82a4.58,4.58,0,0,1-.6,2.41,3.82,3.82,0,0,1-1.61,1.5,5.09,5.09,0,0,1-2.31.51,5.66,5.66,0,0,1-1.32-.16,5.16,5.16,0,0,1-1.19-.41c-.33-.17-.52-.34-.57-.52a.56.56,0,0,1-.12-.32.36.36,0,0,1,.14-.26.39.39,0,0,1,.39,0,5.77,5.77,0,0,0,.6.26l.48.17a6.92,6.92,0,0,0,.73.19,5.14,5.14,0,0,0,.88.08,3.16,3.16,0,0,0,3.42-3.35V239.8l.18,0a3.22,3.22,0,0,1-.53,1.12,3.61,3.61,0,0,1-.88.82,4.12,4.12,0,0,1-2.23.67,4.1,4.1,0,0,1-2.25-.63,4.44,4.44,0,0,1-1.56-1.71,5.08,5.08,0,0,1-.58-2.46,5.13,5.13,0,0,1,.58-2.46,4.44,4.44,0,0,1,1.56-1.71A4.16,4.16,0,0,1,229.61,232.87Zm.11,1a3.26,3.26,0,0,0-1.75.48,3.39,3.39,0,0,0-1.23,1.34,4.5,4.5,0,0,0,0,3.88A3.38,3.38,0,0,0,228,241a3.19,3.19,0,0,0,1.75.5,3.32,3.32,0,0,0,1.77-.49,3.44,3.44,0,0,0,1.22-1.34,4.18,4.18,0,0,0,.45-2,4.08,4.08,0,0,0-.45-2,3.24,3.24,0,0,0-3-1.8Z" transform="translate(-1.69)"/><path class="cls-1" d="M240.74,242.46a4.87,4.87,0,0,1-2.46-.59,4.31,4.31,0,0,1-1.65-1.66,5,5,0,0,1-.59-2.48,5.3,5.3,0,0,1,.6-2.61,4.41,4.41,0,0,1,1.57-1.66,3.86,3.86,0,0,1,2-.59,4.28,4.28,0,0,1,1.54.28,3.79,3.79,0,0,1,1.32.83,4.09,4.09,0,0,1,.94,1.34,4.56,4.56,0,0,1,.38,1.83.51.51,0,0,1-.16.37.52.52,0,0,1-.38.16h-7.22l-.22-1h7.08l-.24.22v-.36a2.48,2.48,0,0,0-.54-1.43,3.2,3.2,0,0,0-2.5-1.22,3.22,3.22,0,0,0-1.11.22,2.81,2.81,0,0,0-1,.68,3.28,3.28,0,0,0-.75,1.17,4.47,4.47,0,0,0-.29,1.68,4.18,4.18,0,0,0,.44,1.92,3.22,3.22,0,0,0,1.24,1.37,3.6,3.6,0,0,0,2,.51,3.27,3.27,0,0,0,2-.66,4.22,4.22,0,0,0,.64-.62.53.53,0,0,1,.37-.16.42.42,0,0,1,.34.14.45.45,0,0,1,.13.32.49.49,0,0,1-.18.38,5,5,0,0,1-1.4,1.13A4,4,0,0,1,240.74,242.46Z" transform="translate(-1.69)"/><path class="cls-1" d="M246.8,242.28a.55.55,0,0,1-.46-.19.78.78,0,0,1-.17-.51v-.38a.72.72,0,0,1,.17-.5.57.57,0,0,1,.46-.18h.13a.61.61,0,0,1,.47.18.72.72,0,0,1,.16.5v.38a.78.78,0,0,1-.16.51.58.58,0,0,1-.47.19Z" transform="translate(-1.69)"/><path class="cls-1" d="M131.68,140a63.89,63.89,0,0,1-13.14-1.37A63.25,63.25,0,0,1,128.83,13.55a3.54,3.54,0,1,1,.3,7.08,56.15,56.15,0,1,0,30.63,7.54,3.54,3.54,0,1,1,3.56-6.12,63.26,63.26,0,0,1-31.64,118Z" transform="translate(-1.69)"/><polygon class="cls-1" points="126.14 0 123.82 34.34 142.15 18.33 126.14 0"/><g id="Layer_2-2" data-name="Layer 2"><g id="Layer_1-2-2" data-name="Layer 1-2"><path class="cls-2" d="M142.84,74.09a14,14,0,0,0-8.17-8.46l-3.1,3.09A5.63,5.63,0,0,0,130,73.64a7.21,7.21,0,0,1,2.88,12L120.51,98a7.23,7.23,0,0,1-10.18-10.18l8.55-8.55a16,16,0,0,1,.12-10L103.68,84.51a14.22,14.22,0,1,0,19.63,20.57l.47-.47,15.73-15.73A14.18,14.18,0,0,0,142.84,74.09Z" transform="translate(-1.69)"/><path class="cls-3" d="M139.53,48.65,123.8,64.38a15.51,15.51,0,0,0-1.88,2.32,14.34,14.34,0,0,0-1.46,12.48,14,14,0,0,0,8.19,8.48l3.09-3.09a5.64,5.64,0,0,0,1.58-4.95,7.23,7.23,0,0,1-2.86-12L142.79,55.3A7.23,7.23,0,0,1,153,65.52l-8.55,8.55a15.89,15.89,0,0,1-.13,10l15.33-15.33a14.24,14.24,0,1,0-20.14-20.13Z" transform="translate(-1.69)"/></g></g></g></g></svg>