<svg xmlns="http://www.w3.org/2000/svg" xmlns:xlink="http://www.w3.org/1999/xlink" viewBox="0 0 259.59 242.46"><defs><style>.cls-1{fill:#102243;}.cls-2{fill:url(#Tabtimize);}.cls-3{fill:url(#Tabtimize-2);}</style><linearGradient id="Tabtimize" x1="108.27" y1="69.99" x2="152.54" y2="69.99" gradientUnits="userSpaceOnUse"><stop offset="0" stop-color="#102343"/><stop offset="0.27" stop-color="#7a2e77"/><stop offset="1" stop-color="#ef3f56"/></linearGradient><linearGradient id="Tabtimize-2" x1="154.8" y1="107.03" x2="198.81" y2="107.03" xlink:href="#Tabtimize"/></defs><g id="Layer_2" data-name="Layer 2"><g id="Layer_1-2" data-name="Layer 1"><path class="cls-1" d="M128.7,196.55a1.14,1.14,0,0,1,.35,0,1.55,1.55,0,0,1,.42.22,3.87,3.87,0,0,0,.73.41,2.48,2.48,0,0,0,1,.18,2.1,2.1,0,0,0,1.06-.28,2.19,2.19,0,0,0,.81-.79,2.22,2.22,0,0,0,.33-1.23,2.09,2.09,0,0,0-.28-1.14,1.79,1.79,0,0,0-.74-.68,2.09,2.09,0,0,0-1-.24,2.48,2.48,0,0,0-.66.08,4.13,4.13,0,0,0-.5.15,1.91,1.91,0,0,1-.57.08.78.78,0,0,1-.64-.29,1.07,1.07,0,0,1-.22-.68.93.93,0,0,1,.1-.45,1.91,1.91,0,0,1,.29-.43l3.17-3.46.49.41h-4.43a1,1,0,0,1-.72-.28,1,1,0,0,1-.29-.72,1,1,0,0,1,.29-.7,1,1,0,0,1,.72-.28h5.51a1,1,0,0,1,1.11,1.08.88.88,0,0,1-.11.45,1.8,1.8,0,0,1-.32.42l-3.18,3.51-.49-.61a2.79,2.79,0,0,1,.55-.17,3.74,3.74,0,0,1,.58-.07,3.18,3.18,0,0,1,1.85.55,3.79,3.79,0,0,1,1.21,1.42,4.59,4.59,0,0,1-.18,4.19,3.85,3.85,0,0,1-1.67,1.49,5.7,5.7,0,0,1-2.52.52,5.28,5.28,0,0,1-1.31-.16,4.29,4.29,0,0,1-1.12-.43,1.2,1.2,0,0,1-.53-.48,1.08,1.08,0,0,1-.14-.49,1.19,1.19,0,0,1,.3-.78A.92.92,0,0,1,128.7,196.55Z" transform="translate(-1.69)"/><path class="cls-1" d="M138.38,199.07a1.11,1.11,0,0,1-.8-.28,1.08,1.08,0,0,1-.28-.8v-.31a1,1,0,0,1,1.08-1.08h.24a1.08,1.08,0,0,1,.8.28,1.11,1.11,0,0,1,.28.8V198a1,1,0,0,1-1.08,1.08Z" transform="translate(-1.69)"/><path class="cls-1" d="M2.23,208.08H8.82a.54.54,0,0,1,.4.16.53.53,0,0,1,.16.38.5.5,0,0,1-.16.38.57.57,0,0,1-.4.15H2.65l.18-.31v5.06l-.2-.24H8a.54.54,0,0,1,.4.17.52.52,0,0,1,.16.37.5.5,0,0,1-.16.38.57.57,0,0,1-.4.15H2.66l.17-.18v5.18l-.09-.11H8.82a.58.58,0,0,1,.4.16.57.57,0,0,1,.16.38.51.51,0,0,1-.16.38.56.56,0,0,1-.4.14H2.23a.49.49,0,0,1-.38-.16.51.51,0,0,1-.16-.38V208.62a.49.49,0,0,1,.16-.37A.5.5,0,0,1,2.23,208.08Z" transform="translate(-1.69)"/><path class="cls-1" d="M11.39,211.4a.5.5,0,0,1,.44.23l6.37,8.24a.52.52,0,0,1,.12.33.52.52,0,0,1-.16.38.55.55,0,0,1-.38.16.6.6,0,0,1-.45-.24l-6.39-8.22a.56.56,0,0,1-.1-.33.5.5,0,0,1,.17-.4A.55.55,0,0,1,11.39,211.4Zm0,9.34a.56.56,0,0,1-.35-.13.42.42,0,0,1-.17-.36.48.48,0,0,1,.13-.34L14,216l.59.89-2.8,3.63A.52.52,0,0,1,11.39,220.74Zm6.39-9.34a.49.49,0,0,1,.37.13.45.45,0,0,1,.14.33.57.57,0,0,1,0,.18.54.54,0,0,1-.1.18l-3,4-.58-.86,2.79-3.71A.59.59,0,0,1,17.78,211.4Z" transform="translate(-1.69)"/><path class="cls-1" d="M24.73,211.41a3.88,3.88,0,0,1,2.17.61,4.28,4.28,0,0,1,1.5,1.65,5.53,5.53,0,0,1,0,4.85,4.31,4.31,0,0,1-1.51,1.68,3.85,3.85,0,0,1-2.14.61,3.68,3.68,0,0,1-1.2-.19,4.3,4.3,0,0,1-1-.51,4,4,0,0,1-.83-.77,4.18,4.18,0,0,1-.58-.94l.33-.25v5.59a.54.54,0,0,1-.15.38.53.53,0,0,1-.39.16.54.54,0,0,1-.4-.16.51.51,0,0,1-.16-.38V212a.57.57,0,0,1,.15-.4.58.58,0,0,1,.8,0,.57.57,0,0,1,.15.4V214l-.25-.14a3,3,0,0,1,.53-1,3.3,3.3,0,0,1,.82-.76,3.39,3.39,0,0,1,1-.47A4.09,4.09,0,0,1,24.73,211.41Zm-.09,1a3.06,3.06,0,0,0-1.71.48,3.36,3.36,0,0,0-1.16,1.29,4.12,4.12,0,0,0-.42,1.9,4.22,4.22,0,0,0,.42,1.91,3.19,3.19,0,0,0,1.16,1.32,3.06,3.06,0,0,0,1.71.48,3,3,0,0,0,1.69-.48A3.31,3.31,0,0,0,27.48,218a4.22,4.22,0,0,0,.42-1.91,4.17,4.17,0,0,0-.42-1.89,3.46,3.46,0,0,0-1.15-1.3A3,3,0,0,0,24.64,212.42Z" transform="translate(-1.69)"/><path class="cls-1" d="M39.69,216.08a5,5,0,0,1-.6,2.45,4.55,4.55,0,0,1-1.63,1.71,4.65,4.65,0,0,1-4.64,0,4.5,4.5,0,0,1-1.64-1.71,5.34,5.34,0,0,1,0-4.92,4.64,4.64,0,0,1,1.64-1.71,4.59,4.59,0,0,1,4.64,0,4.7,4.7,0,0,1,1.63,1.71A5,5,0,0,1,39.69,216.08Zm-1.1,0a4.14,4.14,0,0,0-.45-2,3.46,3.46,0,0,0-1.23-1.34,3.31,3.31,0,0,0-1.77-.48,3.34,3.34,0,0,0-1.78.48,3.56,3.56,0,0,0-1.24,1.34,4,4,0,0,0-.46,2,4,4,0,0,0,.46,1.94,3.64,3.64,0,0,0,1.24,1.34,3.27,3.27,0,0,0,1.78.5,3.24,3.24,0,0,0,1.77-.5A3.53,3.53,0,0,0,38.14,218,4.05,4.05,0,0,0,38.59,216.08Z" transform="translate(-1.69)"/><path class="cls-1" d="M42.44,220.68a.52.52,0,0,1-.4-.16.54.54,0,0,1-.15-.38v-8.06a.52.52,0,0,1,.16-.38.53.53,0,0,1,.39-.16.5.5,0,0,1,.39.16.55.55,0,0,1,.15.38v2.7l-.27.05a4.12,4.12,0,0,1,.32-1.25,4.26,4.26,0,0,1,.71-1.14,3.69,3.69,0,0,1,1.07-.85,3,3,0,0,1,1.4-.32,1.58,1.58,0,0,1,.63.13.46.46,0,0,1,.3.45.58.58,0,0,1-.14.41.45.45,0,0,1-.34.14.87.87,0,0,1-.36-.09,1.13,1.13,0,0,0-.49-.09,2,2,0,0,0-1,.3,3.81,3.81,0,0,0-.92.8,4.21,4.21,0,0,0-.65,1.13A3.24,3.24,0,0,0,43,215.7v4.44a.55.55,0,0,1-.54.54Z" transform="translate(-1.69)"/><path class="cls-1" d="M48.24,211.52h4.19a.46.46,0,0,1,.36.15.53.53,0,0,1,.15.37.51.51,0,0,1-.51.51H48.24a.49.49,0,0,1-.37-.16.49.49,0,0,1-.15-.36.46.46,0,0,1,.15-.36A.51.51,0,0,1,48.24,211.52ZM50.09,209a.51.51,0,0,1,.39.17.51.51,0,0,1,.15.37v9a1.66,1.66,0,0,0,.14.76.74.74,0,0,0,.35.33,1.31,1.31,0,0,0,.43.08.71.71,0,0,0,.26,0,.75.75,0,0,1,.26,0,.35.35,0,0,1,.28.13.44.44,0,0,1,.12.32.49.49,0,0,1-.29.42,1.25,1.25,0,0,1-.68.17l-.49,0a1.86,1.86,0,0,1-.66-.2,1.4,1.4,0,0,1-.58-.6,2.65,2.65,0,0,1-.23-1.25v-9.09a.49.49,0,0,1,.16-.37A.54.54,0,0,1,50.09,209Z" transform="translate(-1.69)"/><path class="cls-1" d="M63.93,220.86a4.86,4.86,0,0,1-2.45-.59,4.31,4.31,0,0,1-1.65-1.66,4.92,4.92,0,0,1-.59-2.48,5.3,5.3,0,0,1,.6-2.61,4.44,4.44,0,0,1,1.57-1.67,3.85,3.85,0,0,1,2-.58,4.28,4.28,0,0,1,1.54.28,3.65,3.65,0,0,1,1.32.83,4.09,4.09,0,0,1,.94,1.34,4.56,4.56,0,0,1,.37,1.83.47.47,0,0,1-.16.37.53.53,0,0,1-.38.16H59.87l-.22-1h7.07l-.23.22V215a2.62,2.62,0,0,0-.54-1.43,3.23,3.23,0,0,0-1.12-.9,3.17,3.17,0,0,0-1.38-.32,3.22,3.22,0,0,0-1.11.22,2.73,2.73,0,0,0-1,.68,3.28,3.28,0,0,0-.75,1.17,4.47,4.47,0,0,0-.29,1.68,4.17,4.17,0,0,0,.43,1.92A3.31,3.31,0,0,0,62,219.35a3.6,3.6,0,0,0,2,.51,3.23,3.23,0,0,0,1.11-.18,3,3,0,0,0,.89-.48,3.8,3.8,0,0,0,.64-.62.56.56,0,0,1,.38-.16.42.42,0,0,1,.33.14.47.47,0,0,1,.14.32.49.49,0,0,1-.18.38,5,5,0,0,1-1.4,1.13A4,4,0,0,1,63.93,220.86Z" transform="translate(-1.69)"/><path class="cls-1" d="M77.4,211.49a.53.53,0,0,1,.39.16.56.56,0,0,1,.15.39v8.1a.55.55,0,0,1-.16.38.52.52,0,0,1-.38.16.54.54,0,0,1-.41-.16.54.54,0,0,1-.15-.38V218l.33-.12a2.24,2.24,0,0,1-.28,1,3.37,3.37,0,0,1-.77,1,3.91,3.91,0,0,1-1.14.73,3.75,3.75,0,0,1-1.43.27,3.86,3.86,0,0,1-2.17-.63,4.29,4.29,0,0,1-1.51-1.72,5.43,5.43,0,0,1-.55-2.47,5.21,5.21,0,0,1,.56-2.48,4.31,4.31,0,0,1,1.51-1.68,3.85,3.85,0,0,1,2.14-.61,3.84,3.84,0,0,1,2.63,1,3.55,3.55,0,0,1,.78,1.07,2.89,2.89,0,0,1,.28,1.25l-.38-.27V212a.56.56,0,0,1,.15-.39A.54.54,0,0,1,77.4,211.49Zm-3.74,8.37a3,3,0,0,0,1.69-.5A3.33,3.33,0,0,0,76.51,218a4.43,4.43,0,0,0,.42-2,4.24,4.24,0,0,0-.42-1.9,3.4,3.4,0,0,0-1.16-1.35,3,3,0,0,0-1.69-.49,3.14,3.14,0,0,0-1.69.47,3.23,3.23,0,0,0-1.17,1.33,4.29,4.29,0,0,0-.42,1.94,4.57,4.57,0,0,0,.41,2A3.33,3.33,0,0,0,72,219.36,3,3,0,0,0,73.66,219.86Z" transform="translate(-1.69)"/><path class="cls-1" d="M84.72,211.27a6.18,6.18,0,0,1,1.61.19,3.68,3.68,0,0,1,1.16.51.91.91,0,0,1,.44.7.56.56,0,0,1-.14.35.41.41,0,0,1-.35.18.63.63,0,0,1-.35-.1,1.59,1.59,0,0,1-.26-.26,1.05,1.05,0,0,0-.38-.26,2.34,2.34,0,0,0-.67-.2,5,5,0,0,0-1-.08,3.32,3.32,0,0,0-1.82.5,3.68,3.68,0,0,0-1.28,1.35,3.89,3.89,0,0,0-.47,1.91,4.23,4.23,0,0,0,.44,1.94,3.35,3.35,0,0,0,1.25,1.36,3.4,3.4,0,0,0,1.84.5,4,4,0,0,0,1.12-.13,3.31,3.31,0,0,0,.68-.29,1.88,1.88,0,0,0,.51-.39.51.51,0,0,1,.41-.18.44.44,0,0,1,.34.13.48.48,0,0,1,.13.35.92.92,0,0,1-.43.64,3.79,3.79,0,0,1-1.16.61,5,5,0,0,1-1.71.26,4.27,4.27,0,0,1-3.93-2.35,5.18,5.18,0,0,1-.57-2.45,5,5,0,0,1,.58-2.4,4.59,4.59,0,0,1,1.6-1.73A4.31,4.31,0,0,1,84.72,211.27Z" transform="translate(-1.69)"/><path class="cls-1" d="M94.21,211.41a3.2,3.2,0,0,1,1.84.49,2.86,2.86,0,0,1,1,1.31,5,5,0,0,1,.34,1.84v5.09a.52.52,0,0,1-.17.38.5.5,0,0,1-.37.16.53.53,0,0,1-.41-.16.54.54,0,0,1-.15-.38v-5.09a3.65,3.65,0,0,0-.23-1.32,2.07,2.07,0,0,0-.72-.95,2.24,2.24,0,0,0-1.34-.36,3,3,0,0,0-1.43.36,3.14,3.14,0,0,0-1.09.95,2.2,2.2,0,0,0-.41,1.32v5.09a.52.52,0,0,1-.17.38.49.49,0,0,1-.37.16.53.53,0,0,1-.41-.16.54.54,0,0,1-.15-.38V207.9a.49.49,0,0,1,.16-.37.54.54,0,0,1,.4-.17.5.5,0,0,1,.38.17.49.49,0,0,1,.16.37v5.84l-.42.63a2.45,2.45,0,0,1,.35-1.09,3.74,3.74,0,0,1,.82-1,4.08,4.08,0,0,1,1.12-.66A3.19,3.19,0,0,1,94.21,211.41Z" transform="translate(-1.69)"/><path class="cls-1" d="M113.65,216.08a5,5,0,0,1-.6,2.45,4.47,4.47,0,0,1-1.63,1.71,4.49,4.49,0,0,1-6.27-1.71,5.27,5.27,0,0,1,0-4.92,4.54,4.54,0,0,1,1.63-1.71,4.59,4.59,0,0,1,4.64,0,4.62,4.62,0,0,1,1.63,1.71A5,5,0,0,1,113.65,216.08Zm-1.1,0a4.14,4.14,0,0,0-.45-2,3.46,3.46,0,0,0-1.23-1.34,3.31,3.31,0,0,0-1.77-.48,3.37,3.37,0,0,0-1.78.48,3.56,3.56,0,0,0-1.24,1.34,4.14,4.14,0,0,0-.46,2,4.06,4.06,0,0,0,.46,1.94,3.64,3.64,0,0,0,1.24,1.34,3.29,3.29,0,0,0,1.78.5,3.24,3.24,0,0,0,1.77-.5A3.53,3.53,0,0,0,112.1,218,4.05,4.05,0,0,0,112.55,216.08Z" transform="translate(-1.69)"/><path class="cls-1" d="M120.24,211.41a3.9,3.9,0,0,1,2.17.61,4.28,4.28,0,0,1,1.5,1.65,5.53,5.53,0,0,1,0,4.85,4.39,4.39,0,0,1-1.51,1.68,3.87,3.87,0,0,1-2.14.61,3.68,3.68,0,0,1-1.2-.19,4.57,4.57,0,0,1-1-.51,4,4,0,0,1-.82-.77,3.85,3.85,0,0,1-.58-.94l.32-.25v5.59a.54.54,0,0,1-.15.38.5.5,0,0,1-.39.16.53.53,0,0,1-.39-.16.51.51,0,0,1-.16-.38V212a.57.57,0,0,1,.15-.4.52.52,0,0,1,.4-.16.5.5,0,0,1,.39.16.57.57,0,0,1,.15.4V214l-.25-.14a3.2,3.2,0,0,1,.53-1,3.69,3.69,0,0,1,.82-.76,3.44,3.44,0,0,1,1-.47A4.09,4.09,0,0,1,120.24,211.41Zm-.09,1a3.06,3.06,0,0,0-1.71.48,3.36,3.36,0,0,0-1.16,1.29,4.12,4.12,0,0,0-.43,1.9,4.23,4.23,0,0,0,.43,1.91,3.19,3.19,0,0,0,1.16,1.32,3.06,3.06,0,0,0,1.71.48,3,3,0,0,0,1.68-.48A3.16,3.16,0,0,0,123,218a4.23,4.23,0,0,0,.43-1.91,4.17,4.17,0,0,0-.43-1.89,3.3,3.3,0,0,0-1.15-1.3A3,3,0,0,0,120.15,212.42Z" transform="translate(-1.69)"/><path class="cls-1" d="M131.07,211.41a3.88,3.88,0,0,1,2.17.61,4.38,4.38,0,0,1,1.51,1.65,5.62,5.62,0,0,1,0,4.85,4.41,4.41,0,0,1-1.52,1.68,3.85,3.85,0,0,1-2.14.61,3.58,3.58,0,0,1-1.19-.19,4.37,4.37,0,0,1-1-.51,4,4,0,0,1-.83-.77,3.81,3.81,0,0,1-.57-.94l.32-.25v5.59a.54.54,0,0,1-.15.38.5.5,0,0,1-.39.16.54.54,0,0,1-.4-.16.55.55,0,0,1-.16-.38V212a.57.57,0,0,1,.15-.4.54.54,0,0,1,.41-.16.5.5,0,0,1,.39.16.57.57,0,0,1,.15.4V214l-.25-.14a3.2,3.2,0,0,1,.53-1,3.48,3.48,0,0,1,.82-.76,3.39,3.39,0,0,1,1-.47A4.19,4.19,0,0,1,131.07,211.41Zm-.09,1a3.1,3.1,0,0,0-1.71.48,3.36,3.36,0,0,0-1.16,1.29,4.12,4.12,0,0,0-.42,1.9,4.22,4.22,0,0,0,.42,1.91,3.19,3.19,0,0,0,1.16,1.32,3.1,3.1,0,0,0,1.71.48,3,3,0,0,0,1.69-.48,3.23,3.23,0,0,0,1.15-1.32,4.22,4.22,0,0,0,.42-1.91,4.17,4.17,0,0,0-.42-1.89,3.38,3.38,0,0,0-1.15-1.3A3,3,0,0,0,131,212.42Z" transform="translate(-1.69)"/><path class="cls-1" d="M146,216.08a5,5,0,0,1-.6,2.45,4.47,4.47,0,0,1-1.63,1.71,4.5,4.5,0,0,1-6.27-1.71,5.27,5.27,0,0,1,0-4.92,4.49,4.49,0,0,1,1.64-1.71,4.57,4.57,0,0,1,4.63,0,4.62,4.62,0,0,1,1.63,1.71A5,5,0,0,1,146,216.08Zm-1.1,0a4.14,4.14,0,0,0-.45-2,3.46,3.46,0,0,0-1.23-1.34,3.5,3.5,0,0,0-3.54,0,3.51,3.51,0,0,0-1.25,1.34,4.14,4.14,0,0,0-.46,2,4.06,4.06,0,0,0,.46,1.94,3.58,3.58,0,0,0,1.25,1.34,3.38,3.38,0,0,0,3.54,0,3.53,3.53,0,0,0,1.23-1.34A4.05,4.05,0,0,0,144.93,216.08Z" transform="translate(-1.69)"/><path class="cls-1" d="M148.79,220.68a.53.53,0,0,1-.41-.16.54.54,0,0,1-.15-.38v-8.06a.52.52,0,0,1,.16-.38.54.54,0,0,1,.4-.16.49.49,0,0,1,.38.16.57.57,0,0,1,.16.38v2.7l-.27.05a4.09,4.09,0,0,1,.31-1.25,4.26,4.26,0,0,1,.71-1.14,3.69,3.69,0,0,1,1.07-.85,3.07,3.07,0,0,1,1.4-.32,1.58,1.58,0,0,1,.63.13.46.46,0,0,1,.3.45.54.54,0,0,1-.14.41.45.45,0,0,1-.34.14.79.79,0,0,1-.35-.09,1.18,1.18,0,0,0-.5-.09,2,2,0,0,0-1,.3,3.59,3.59,0,0,0-.91.8,4,4,0,0,0-.66,1.13,3.43,3.43,0,0,0-.24,1.25v4.44a.52.52,0,0,1-.17.38A.49.49,0,0,1,148.79,220.68Z" transform="translate(-1.69)"/><path class="cls-1" d="M154.58,211.52h4.2a.49.49,0,0,1,.36.15.57.57,0,0,1,.14.37.5.5,0,0,1-.5.51h-4.2a.49.49,0,0,1-.37-.16.49.49,0,0,1-.15-.36.46.46,0,0,1,.15-.36A.51.51,0,0,1,154.58,211.52Zm1.86-2.54a.5.5,0,0,1,.38.17.52.52,0,0,1,.16.37v9a1.67,1.67,0,0,0,.13.76.74.74,0,0,0,.35.33,1.35,1.35,0,0,0,.43.08.67.67,0,0,0,.26,0,.77.77,0,0,1,.27,0,.34.34,0,0,1,.27.13.44.44,0,0,1,.12.32.47.47,0,0,1-.29.42,1.25,1.25,0,0,1-.68.17l-.49,0a2,2,0,0,1-.66-.2,1.46,1.46,0,0,1-.58-.6,2.78,2.78,0,0,1-.23-1.25v-9.09a.49.49,0,0,1,.16-.37A.54.54,0,0,1,156.44,209Z" transform="translate(-1.69)"/><path class="cls-1" d="M168.15,211.54a.5.5,0,0,1,.39.16.55.55,0,0,1,.15.38v5.08a3.52,3.52,0,0,1-1,2.71,3.83,3.83,0,0,1-2.72.94,3.77,3.77,0,0,1-2.71-.94,3.52,3.52,0,0,1-1-2.71v-5.08a.52.52,0,0,1,.16-.38.54.54,0,0,1,.4-.16.49.49,0,0,1,.38.16.52.52,0,0,1,.16.38v5.08a2.63,2.63,0,1,0,5.24,0v-5.08a.55.55,0,0,1,.15-.38A.52.52,0,0,1,168.15,211.54Z" transform="translate(-1.69)"/><path class="cls-1" d="M175.86,211.27a3.36,3.36,0,0,1,1.9.48,2.67,2.67,0,0,1,1,1.29,5,5,0,0,1,.32,1.81v5.29a.52.52,0,0,1-.17.38.49.49,0,0,1-.37.16.53.53,0,0,1-.41-.16.54.54,0,0,1-.15-.38v-5.23a3.52,3.52,0,0,0-.24-1.32,1.93,1.93,0,0,0-.75-.94,2.41,2.41,0,0,0-1.39-.35,3.11,3.11,0,0,0-1.46.35,3.07,3.07,0,0,0-1.13.94,2.19,2.19,0,0,0-.43,1.32v5.23a.55.55,0,0,1-.16.38.52.52,0,0,1-.38.16.54.54,0,0,1-.41-.16.54.54,0,0,1-.15-.38v-8.06a.52.52,0,0,1,.16-.38.54.54,0,0,1,.4-.16.53.53,0,0,1,.39.16.55.55,0,0,1,.15.38v1.51l-.42.65a2.48,2.48,0,0,1,.37-1.11,4.05,4.05,0,0,1,.86-.95,4.18,4.18,0,0,1,1.16-.67A3.64,3.64,0,0,1,175.86,211.27Z" transform="translate(-1.69)"/><path class="cls-1" d="M182.43,210.12a.84.84,0,0,1-.57-.17.63.63,0,0,1-.19-.5v-.18a.59.59,0,0,1,.21-.49.82.82,0,0,1,.56-.17.76.76,0,0,1,.54.17.65.65,0,0,1,.19.49v.18a.67.67,0,0,1-.19.5A.82.82,0,0,1,182.43,210.12Zm.54,10a.52.52,0,0,1-.17.38.49.49,0,0,1-.37.16.51.51,0,0,1-.4-.16.53.53,0,0,1-.14-.38v-8.28a.51.51,0,0,1,.15-.37.51.51,0,0,1,.39-.17.5.5,0,0,1,.38.17.49.49,0,0,1,.16.37Z" transform="translate(-1.69)"/><path class="cls-1" d="M185.18,211.52h4.2a.45.45,0,0,1,.35.15.53.53,0,0,1,.15.37.46.46,0,0,1-.15.36.45.45,0,0,1-.35.15h-4.2a.49.49,0,0,1-.37-.16.49.49,0,0,1-.15-.36.46.46,0,0,1,.15-.36A.51.51,0,0,1,185.18,211.52ZM187,209a.5.5,0,0,1,.38.17.52.52,0,0,1,.16.37v9a1.67,1.67,0,0,0,.13.76.74.74,0,0,0,.35.33,1.35,1.35,0,0,0,.43.08.67.67,0,0,0,.26,0,.75.75,0,0,1,.26,0,.34.34,0,0,1,.28.13.44.44,0,0,1,.12.32.49.49,0,0,1-.29.42,1.25,1.25,0,0,1-.68.17l-.49,0a1.92,1.92,0,0,1-.66-.2,1.46,1.46,0,0,1-.58-.6,2.65,2.65,0,0,1-.23-1.25v-9.09a.49.49,0,0,1,.16-.37A.54.54,0,0,1,187,209Z" transform="translate(-1.69)"/><path class="cls-1" d="M198.73,211.32a.51.51,0,0,1,.39.17.51.51,0,0,1,.15.37v7.94a4.92,4.92,0,0,1-.57,2.46,3.88,3.88,0,0,1-1.55,1.51,4.71,4.71,0,0,1-2.21.51,5.47,5.47,0,0,1-1.44-.17,4,4,0,0,1-1.07-.42.87.87,0,0,1-.32-.31.42.42,0,0,1,0-.39.57.57,0,0,1,.28-.34.48.48,0,0,1,.39,0c.2.11.5.24.88.4a3.8,3.8,0,0,0,3-.18,2.85,2.85,0,0,0,1.13-1.2,4,4,0,0,0,.4-1.86v-1.3l.13.45a3.24,3.24,0,0,1-.77,1,4.07,4.07,0,0,1-1.14.67,3.76,3.76,0,0,1-1.35.24,3.3,3.3,0,0,1-1.79-.44,2.71,2.71,0,0,1-1.06-1.21,4.44,4.44,0,0,1-.35-1.82v-5.53a.51.51,0,0,1,.15-.37.53.53,0,0,1,.41-.17.5.5,0,0,1,.38.17.49.49,0,0,1,.16.37v5.37a3,3,0,0,0,.54,1.94,2.18,2.18,0,0,0,1.8.69,2.89,2.89,0,0,0,1.42-.37,3.21,3.21,0,0,0,1.06-1,2.19,2.19,0,0,0,.41-1.28v-5.37a.51.51,0,0,1,.15-.37A.49.49,0,0,1,198.73,211.32Z" transform="translate(-1.69)"/><path class="cls-1" d="M215.51,216.08a5,5,0,0,1-.6,2.45,4.55,4.55,0,0,1-1.63,1.71,4.49,4.49,0,0,1-6.27-1.71,5.27,5.27,0,0,1,0-4.92,4.54,4.54,0,0,1,1.63-1.71,4.59,4.59,0,0,1,4.64,0,4.7,4.7,0,0,1,1.63,1.71A5,5,0,0,1,215.51,216.08Zm-1.1,0a4.14,4.14,0,0,0-.45-2,3.46,3.46,0,0,0-1.23-1.34,3.31,3.31,0,0,0-1.77-.48,3.37,3.37,0,0,0-1.78.48,3.56,3.56,0,0,0-1.24,1.34,4.14,4.14,0,0,0-.46,2,4.06,4.06,0,0,0,.46,1.94,3.64,3.64,0,0,0,1.24,1.34,3.29,3.29,0,0,0,1.78.5,3.24,3.24,0,0,0,1.77-.5A3.53,3.53,0,0,0,214,218,4.05,4.05,0,0,0,214.41,216.08Z" transform="translate(-1.69)"/><path class="cls-1" d="M222.06,211.27a3.34,3.34,0,0,1,1.9.48,2.68,2.68,0,0,1,1,1.29,5,5,0,0,1,.31,1.81v5.29a.55.55,0,0,1-1.1,0v-5.23a3.52,3.52,0,0,0-.23-1.32,2,2,0,0,0-.76-.94,2.37,2.37,0,0,0-1.38-.35,3.12,3.12,0,0,0-1.47.35,3,3,0,0,0-1.12.94,2.2,2.2,0,0,0-.44,1.32v5.23a.55.55,0,0,1-.54.54.52.52,0,0,1-.4-.16.54.54,0,0,1-.15-.38v-8.06a.52.52,0,0,1,.16-.38.53.53,0,0,1,.39-.16.5.5,0,0,1,.39.16.55.55,0,0,1,.15.38v1.51l-.41.65a2.36,2.36,0,0,1,.37-1.11,4,4,0,0,1,.85-.95,4.24,4.24,0,0,1,1.17-.67A3.58,3.58,0,0,1,222.06,211.27Z" transform="translate(-1.69)"/><path class="cls-1" d="M232.21,220.86a4.86,4.86,0,0,1-2.45-.59,4.25,4.25,0,0,1-1.65-1.66,4.92,4.92,0,0,1-.59-2.48,5.3,5.3,0,0,1,.6-2.61,4.49,4.49,0,0,1,1.56-1.67,3.91,3.91,0,0,1,2-.58,4.28,4.28,0,0,1,1.54.28,3.73,3.73,0,0,1,1.32.83,4.24,4.24,0,0,1,.94,1.34,4.56,4.56,0,0,1,.37,1.83.47.47,0,0,1-.16.37.55.55,0,0,1-.38.16h-7.21l-.22-1H235l-.23.22V215a2.62,2.62,0,0,0-.54-1.43,3.18,3.18,0,0,0-1.13-.9,3.1,3.1,0,0,0-1.37-.32,3.22,3.22,0,0,0-1.11.22,2.85,2.85,0,0,0-1,.68,3.4,3.4,0,0,0-.74,1.17,4.47,4.47,0,0,0-.29,1.68A4.17,4.17,0,0,0,229,218a3.29,3.29,0,0,0,1.24,1.37,3.63,3.63,0,0,0,2,.51,3.27,3.27,0,0,0,1.11-.18,3.16,3.16,0,0,0,.89-.48,3.8,3.8,0,0,0,.64-.62.56.56,0,0,1,.38-.16.42.42,0,0,1,.33.14.47.47,0,0,1,.14.32.49.49,0,0,1-.18.38,4.9,4.9,0,0,1-1.41,1.13A3.89,3.89,0,0,1,232.21,220.86Z" transform="translate(-1.69)"/><path class="cls-1" d="M247.42,211.27a3.88,3.88,0,0,1,2.17.61,4.47,4.47,0,0,1,1.51,1.68,5.33,5.33,0,0,1,.55,2.48,5.43,5.43,0,0,1-.55,2.47,4.46,4.46,0,0,1-1.52,1.72,3.79,3.79,0,0,1-2.14.63,3.58,3.58,0,0,1-1.19-.19,4.21,4.21,0,0,1-1.87-1.32,4.06,4.06,0,0,1-.57-.95l.32-.25v2a.57.57,0,0,1-.15.4.53.53,0,0,1-.39.16.55.55,0,0,1-.56-.56V207.92a.55.55,0,0,1,.15-.38.58.58,0,0,1,.41-.16.53.53,0,0,1,.39.16.55.55,0,0,1,.15.38v6l-.25-.14a3.31,3.31,0,0,1,.53-1,3.89,3.89,0,0,1,.82-.8,3.81,3.81,0,0,1,1-.53A3.59,3.59,0,0,1,247.42,211.27Zm-.09,1a3.18,3.18,0,0,0-1.71.47,3.28,3.28,0,0,0-1.16,1.33A4.29,4.29,0,0,0,244,216a4.43,4.43,0,0,0,.42,2,3.33,3.33,0,0,0,1.16,1.37,3,3,0,0,0,1.71.5,2.88,2.88,0,0,0,1.69-.51,3.42,3.42,0,0,0,1.15-1.38,4.37,4.37,0,0,0,.42-1.93,4.29,4.29,0,0,0-.42-1.94,3.33,3.33,0,0,0-1.15-1.33A3.09,3.09,0,0,0,247.33,212.3Z" transform="translate(-1.69)"/><path class="cls-1" d="M260.74,211.32a.51.51,0,0,1,.39.17.51.51,0,0,1,.15.37v7.94a4.92,4.92,0,0,1-.57,2.46,3.88,3.88,0,0,1-1.55,1.51,4.71,4.71,0,0,1-2.21.51,5.47,5.47,0,0,1-1.44-.17,4,4,0,0,1-1.07-.42.87.87,0,0,1-.32-.31.42.42,0,0,1,0-.39.54.54,0,0,1,.28-.34.48.48,0,0,1,.39,0c.2.11.5.24.88.4a3.8,3.8,0,0,0,3-.18,2.85,2.85,0,0,0,1.13-1.2,4,4,0,0,0,.4-1.86v-1.3l.13.45a3.24,3.24,0,0,1-.77,1,4.07,4.07,0,0,1-1.14.67,3.76,3.76,0,0,1-1.35.24,3.28,3.28,0,0,1-1.79-.44,2.71,2.71,0,0,1-1.06-1.21,4.28,4.28,0,0,1-.35-1.82v-5.53a.51.51,0,0,1,.15-.37.53.53,0,0,1,.41-.17.5.5,0,0,1,.38.17.52.52,0,0,1,.16.37v5.37a3,3,0,0,0,.54,1.94,2.18,2.18,0,0,0,1.8.69,2.89,2.89,0,0,0,1.42-.37,3.21,3.21,0,0,0,1.06-1,2.19,2.19,0,0,0,.41-1.28v-5.37a.51.51,0,0,1,.15-.37A.49.49,0,0,1,260.74,211.32Z" transform="translate(-1.69)"/><path class="cls-1" d="M31.89,237.68a4.87,4.87,0,0,1-.61,2.45,4.45,4.45,0,0,1-1.62,1.71,4.65,4.65,0,0,1-4.64,0,4.42,4.42,0,0,1-1.64-1.71,5.34,5.34,0,0,1,0-4.92A4.57,4.57,0,0,1,25,233.5a4.59,4.59,0,0,1,4.64,0,4.59,4.59,0,0,1,1.62,1.71A4.89,4.89,0,0,1,31.89,237.68Zm-1.1,0a4.14,4.14,0,0,0-.45-2,3.46,3.46,0,0,0-1.23-1.34,3.37,3.37,0,0,0-1.78-.48,3.31,3.31,0,0,0-1.77.48,3.48,3.48,0,0,0-1.24,1.34,4,4,0,0,0-.46,2,4,4,0,0,0,.46,1.94A3.56,3.56,0,0,0,25.56,241a3.24,3.24,0,0,0,1.77.5,3.29,3.29,0,0,0,1.78-.5,3.53,3.53,0,0,0,1.23-1.34A4.05,4.05,0,0,0,30.79,237.68Z" transform="translate(-1.69)"/><path class="cls-1" d="M38.44,232.87a3.36,3.36,0,0,1,1.9.48,2.71,2.71,0,0,1,1,1.29,5,5,0,0,1,.32,1.81v5.29a.55.55,0,0,1-.16.38.52.52,0,0,1-.38.16.54.54,0,0,1-.41-.16.54.54,0,0,1-.15-.38v-5.23a3.73,3.73,0,0,0-.23-1.32,2,2,0,0,0-.76-.94,2.4,2.4,0,0,0-1.38-.35,3.27,3.27,0,0,0-2.6,1.29,2.26,2.26,0,0,0-.43,1.32v5.23a.55.55,0,0,1-1.1,0v-8.06a.53.53,0,0,1,.17-.38.56.56,0,0,1,.78,0,.55.55,0,0,1,.15.38v1.51l-.41.65a2.26,2.26,0,0,1,.37-1.11,3.8,3.8,0,0,1,.85-.95,4.62,4.62,0,0,1,1.16-.67A3.68,3.68,0,0,1,38.44,232.87Z" transform="translate(-1.69)"/><path class="cls-1" d="M48.59,242.46a4.87,4.87,0,0,1-2.46-.59,4.22,4.22,0,0,1-1.64-1.66,4.92,4.92,0,0,1-.6-2.48,5.19,5.19,0,0,1,.61-2.61,4.39,4.39,0,0,1,1.56-1.66,3.86,3.86,0,0,1,2-.59,4.24,4.24,0,0,1,1.54.28A3.92,3.92,0,0,1,51,234a4.22,4.22,0,0,1,.93,1.34,4.56,4.56,0,0,1,.38,1.83.47.47,0,0,1-.16.37.52.52,0,0,1-.38.16H44.52l-.21-1h7.07l-.23.22v-.36a2.62,2.62,0,0,0-.54-1.43,3.27,3.27,0,0,0-1.13-.9,3,3,0,0,0-2.48-.1,2.85,2.85,0,0,0-1,.68,3.57,3.57,0,0,0-.75,1.17,4.48,4.48,0,0,0-.28,1.68,4.17,4.17,0,0,0,.43,1.92A3.29,3.29,0,0,0,46.61,241a3.6,3.6,0,0,0,2,.51,3.22,3.22,0,0,0,2-.66,3.8,3.8,0,0,0,.64-.62.54.54,0,0,1,.38-.16.42.42,0,0,1,.33.14.45.45,0,0,1,.13.32.49.49,0,0,1-.18.38,4.86,4.86,0,0,1-1.4,1.13A4,4,0,0,1,48.59,242.46Z" transform="translate(-1.69)"/><path class="cls-1" d="M67.92,237.68a5,5,0,0,1-.6,2.45,4.4,4.4,0,0,1-1.63,1.71,4.63,4.63,0,0,1-4.63,0,4.42,4.42,0,0,1-1.64-1.71,5.27,5.27,0,0,1,0-4.92,4.57,4.57,0,0,1,1.64-1.71,4.57,4.57,0,0,1,4.63,0,4.54,4.54,0,0,1,1.63,1.71A5,5,0,0,1,67.92,237.68Zm-1.1,0a4.25,4.25,0,0,0-.44-2,3.56,3.56,0,0,0-1.24-1.34,3.5,3.5,0,0,0-3.54,0,3.51,3.51,0,0,0-1.25,1.34,4.14,4.14,0,0,0-.46,2,4.06,4.06,0,0,0,.46,1.94A3.58,3.58,0,0,0,61.6,241a3.38,3.38,0,0,0,3.54,0,3.64,3.64,0,0,0,1.24-1.34A4.17,4.17,0,0,0,66.82,237.68Z" transform="translate(-1.69)"/><path class="cls-1" d="M70.68,242.28a.53.53,0,0,1-.41-.16.54.54,0,0,1-.15-.38v-8.06a.52.52,0,0,1,.16-.38.54.54,0,0,1,.4-.16.49.49,0,0,1,.38.16.52.52,0,0,1,.16.38v2.7l-.27.05a4.09,4.09,0,0,1,.31-1.25A4.26,4.26,0,0,1,72,234a3.69,3.69,0,0,1,1.07-.85,3.07,3.07,0,0,1,1.4-.32,1.77,1.77,0,0,1,.63.13.46.46,0,0,1,.3.45.54.54,0,0,1-.14.41.45.45,0,0,1-.34.14.79.79,0,0,1-.35-.09,1.18,1.18,0,0,0-.5-.09,2,2,0,0,0-1,.3,3.59,3.59,0,0,0-.91.8,4,4,0,0,0-.66,1.13,3.43,3.43,0,0,0-.24,1.25v4.44a.52.52,0,0,1-.17.38A.49.49,0,0,1,70.68,242.28Z" transform="translate(-1.69)"/><path class="cls-1" d="M82.48,231.72a.81.81,0,0,1-.56-.17.63.63,0,0,1-.19-.5v-.18a.62.62,0,0,1,.2-.49.84.84,0,0,1,.57-.17.72.72,0,0,1,.53.17.61.61,0,0,1,.19.49v.18a.63.63,0,0,1-.19.5A.8.8,0,0,1,82.48,231.72Zm.54,10a.55.55,0,0,1-.54.54.48.48,0,0,1-.39-.16.54.54,0,0,1-.15-.38v-8.28a.52.52,0,0,1,.16-.37.5.5,0,0,1,.38-.17.51.51,0,0,1,.39.17.51.51,0,0,1,.15.37Z" transform="translate(-1.69)"/><path class="cls-1" d="M90.17,232.87a3.36,3.36,0,0,1,1.9.48,2.71,2.71,0,0,1,1,1.29,5,5,0,0,1,.32,1.81v5.29a.51.51,0,0,1-.16.38.52.52,0,0,1-.38.16.54.54,0,0,1-.41-.16.54.54,0,0,1-.15-.38v-5.23a3.73,3.73,0,0,0-.23-1.32,2,2,0,0,0-.76-.94,2.4,2.4,0,0,0-1.38-.35,3.27,3.27,0,0,0-2.6,1.29,2.26,2.26,0,0,0-.43,1.32v5.23a.55.55,0,0,1-.94.38.55.55,0,0,1-.16-.38v-8.06a.53.53,0,0,1,.17-.38.51.51,0,0,1,.39-.16.5.5,0,0,1,.39.16.55.55,0,0,1,.15.38v1.51l-.41.65a2.26,2.26,0,0,1,.37-1.11,3.8,3.8,0,0,1,.85-.95,4.62,4.62,0,0,1,1.16-.67A3.68,3.68,0,0,1,90.17,232.87Z" transform="translate(-1.69)"/><path class="cls-1" d="M105.52,232.87a3.88,3.88,0,0,1,2.17.61,4.43,4.43,0,0,1,1.51,1.69,5.26,5.26,0,0,1,.55,2.47,5.43,5.43,0,0,1-.55,2.47,4.46,4.46,0,0,1-1.52,1.72,3.79,3.79,0,0,1-2.14.63,3.68,3.68,0,0,1-1.2-.19,4.55,4.55,0,0,1-1-.53,4.44,4.44,0,0,1-.83-.79,4.06,4.06,0,0,1-.57-.95l.32-.25v2a.53.53,0,0,1-.54.56.55.55,0,0,1-.56-.56V229.52a.55.55,0,0,1,.15-.38.58.58,0,0,1,.41-.16.57.57,0,0,1,.39.16.55.55,0,0,1,.15.38v6l-.25-.14a3.31,3.31,0,0,1,.53-1,3.89,3.89,0,0,1,.82-.8,3.81,3.81,0,0,1,1-.53A3.59,3.59,0,0,1,105.52,232.87Zm-.09,1a3.16,3.16,0,0,0-1.71.47,3.28,3.28,0,0,0-1.16,1.33,4.29,4.29,0,0,0-.42,1.94,4.43,4.43,0,0,0,.42,2,3.33,3.33,0,0,0,1.16,1.37,3,3,0,0,0,1.71.5,2.88,2.88,0,0,0,1.69-.51,3.45,3.45,0,0,0,1.15-1.37,4.45,4.45,0,0,0,.42-1.94,4.29,4.29,0,0,0-.42-1.94,3.33,3.33,0,0,0-1.15-1.33A3.09,3.09,0,0,0,105.43,233.9Z" transform="translate(-1.69)"/><path class="cls-1" d="M118.86,233.14a.5.5,0,0,1,.39.16.55.55,0,0,1,.15.38v5.08a3.49,3.49,0,0,1-1,2.71,4.38,4.38,0,0,1-5.42,0,3.52,3.52,0,0,1-1-2.71v-5.08a.52.52,0,0,1,.16-.38.54.54,0,0,1,.4-.16.49.49,0,0,1,.38.16.57.57,0,0,1,.16.38v5.08a2.62,2.62,0,1,0,5.23,0v-5.08a.52.52,0,0,1,.16-.38A.51.51,0,0,1,118.86,233.14Z" transform="translate(-1.69)"/><path class="cls-1" d="M123.42,241.74a.52.52,0,0,1-.17.38.53.53,0,0,1-.76,0,.55.55,0,0,1-.16-.38V229.5a.5.5,0,0,1,.17-.37.51.51,0,0,1,.76,0,.52.52,0,0,1,.16.37Z" transform="translate(-1.69)"/><path class="cls-1" d="M127,242.28a.49.49,0,0,1-.38-.16.55.55,0,0,1-.16-.38V229.5a.52.52,0,0,1,.16-.37A.5.5,0,0,1,127,229a.51.51,0,0,1,.39.17.51.51,0,0,1,.15.37v12.24a.54.54,0,0,1-.15.38A.5.5,0,0,1,127,242.28Zm6.11-9.23a.53.53,0,0,1,.38.17.58.58,0,0,1,.16.37.54.54,0,0,1-.2.41l-6.05,5.15,0-1.28,5.4-4.64A.48.48,0,0,1,133.12,233.05Zm.16,9.23a.53.53,0,0,1-.41-.19l-4.09-4.36.81-.74,4.07,4.34a.64.64,0,0,1,.16.41.48.48,0,0,1-.2.4A.56.56,0,0,1,133.28,242.28Z" transform="translate(-1.69)"/><path class="cls-1" d="M144.92,233.27a.45.45,0,0,1,.36.14.51.51,0,0,1,0,.72.45.45,0,0,1-.36.14h-4.41a.5.5,0,0,1-.35-.15.49.49,0,0,1-.15-.35.47.47,0,0,1,.15-.37.53.53,0,0,1,.35-.13Zm-.68-4.23a3.13,3.13,0,0,1,.59.05,1.57,1.57,0,0,1,.55.2.45.45,0,0,1,.23.39.5.5,0,0,1-.15.37.4.4,0,0,1-.32.16,1.32,1.32,0,0,1-.45-.11,1.58,1.58,0,0,0-.58-.11,1.1,1.1,0,0,0-1.06.66,1.91,1.91,0,0,0-.14.76v10.33a.54.54,0,0,1-.15.38.53.53,0,0,1-.39.16.5.5,0,0,1-.39-.16.54.54,0,0,1-.15-.38V231.41a2.25,2.25,0,0,1,.67-1.76A2.48,2.48,0,0,1,144.24,229Z" transform="translate(-1.69)"/><path class="cls-1" d="M155.76,237.68a5,5,0,0,1-.6,2.45,4.55,4.55,0,0,1-1.63,1.71,4.49,4.49,0,0,1-6.27-1.71,5.27,5.27,0,0,1,0-4.92,4.54,4.54,0,0,1,1.63-1.71,4.59,4.59,0,0,1,4.64,0,4.7,4.7,0,0,1,1.63,1.71A5,5,0,0,1,155.76,237.68Zm-1.1,0a4.14,4.14,0,0,0-.45-2,3.46,3.46,0,0,0-1.23-1.34,3.31,3.31,0,0,0-1.77-.48,3.37,3.37,0,0,0-1.78.48,3.56,3.56,0,0,0-1.24,1.34,4.14,4.14,0,0,0-.46,2,4.06,4.06,0,0,0,.46,1.94,3.64,3.64,0,0,0,1.24,1.34,3.29,3.29,0,0,0,1.78.5A3.24,3.24,0,0,0,153,241a3.53,3.53,0,0,0,1.23-1.34A4.05,4.05,0,0,0,154.66,237.68Z" transform="translate(-1.69)"/><path class="cls-1" d="M158.51,242.28a.52.52,0,0,1-.4-.16.54.54,0,0,1-.15-.38v-8.06a.52.52,0,0,1,.16-.38.53.53,0,0,1,.39-.16.5.5,0,0,1,.39.16.55.55,0,0,1,.15.38v2.7l-.27.05a4.43,4.43,0,0,1,.32-1.25,4.26,4.26,0,0,1,.71-1.14,3.69,3.69,0,0,1,1.07-.85,3.07,3.07,0,0,1,1.4-.32,1.77,1.77,0,0,1,.63.13.46.46,0,0,1,.3.45.58.58,0,0,1-.14.41.45.45,0,0,1-.34.14.79.79,0,0,1-.35-.09,1.21,1.21,0,0,0-.5-.09,2,2,0,0,0-1,.3,3.81,3.81,0,0,0-.92.8,4.21,4.21,0,0,0-.65,1.13,3.44,3.44,0,0,0-.25,1.25v4.44a.55.55,0,0,1-.54.54Z" transform="translate(-1.69)"/><path class="cls-1" d="M178.31,237.68a5,5,0,0,1-.6,2.45,4.4,4.4,0,0,1-1.63,1.71,4.63,4.63,0,0,1-4.63,0,4.42,4.42,0,0,1-1.64-1.71,5.34,5.34,0,0,1,0-4.92,4.57,4.57,0,0,1,1.64-1.71,4.57,4.57,0,0,1,4.63,0,4.54,4.54,0,0,1,1.63,1.71A5,5,0,0,1,178.31,237.68Zm-1.09,0a4.14,4.14,0,0,0-.45-2,3.41,3.41,0,0,0-1.24-1.34,3.5,3.5,0,0,0-3.54,0,3.41,3.41,0,0,0-1.24,1.34,4,4,0,0,0-.46,2,4,4,0,0,0,.46,1.94A3.48,3.48,0,0,0,172,241a3.38,3.38,0,0,0,3.54,0,3.48,3.48,0,0,0,1.24-1.34A4.05,4.05,0,0,0,177.22,237.68Z" transform="translate(-1.69)"/><path class="cls-1" d="M187.4,233.14a.5.5,0,0,1,.39.16.55.55,0,0,1,.15.38v5.08a3.52,3.52,0,0,1-1,2.71,3.83,3.83,0,0,1-2.72.94,3.77,3.77,0,0,1-2.71-.94,3.52,3.52,0,0,1-1-2.71v-5.08a.52.52,0,0,1,.16-.38.54.54,0,0,1,.4-.16.53.53,0,0,1,.39.16.55.55,0,0,1,.15.38v5.08a2.63,2.63,0,1,0,5.24,0v-5.08a.55.55,0,0,1,.15-.38A.52.52,0,0,1,187.4,233.14Z" transform="translate(-1.69)"/><path class="cls-1" d="M190.18,233.12h4.19a.46.46,0,0,1,.36.16.48.48,0,0,1,.14.36.45.45,0,0,1-.14.36.49.49,0,0,1-.36.15h-4.19a.53.53,0,0,1-.53-.52.44.44,0,0,1,.16-.36A.5.5,0,0,1,190.18,233.12Zm1.85-2.54a.52.52,0,0,1,.39.17.51.51,0,0,1,.15.37v9a1.67,1.67,0,0,0,.13.76.68.68,0,0,0,.36.33,1.26,1.26,0,0,0,.43.08.75.75,0,0,0,.26,0,.55.55,0,0,1,.26,0,.35.35,0,0,1,.28.13.44.44,0,0,1,.12.32.49.49,0,0,1-.29.42,1.26,1.26,0,0,1-.69.17c-.1,0-.27,0-.48,0a2,2,0,0,1-.67-.2,1.33,1.33,0,0,1-.57-.6,2.64,2.64,0,0,1-.24-1.25v-9.09a.52.52,0,0,1,.16-.37A.54.54,0,0,1,192,230.58Z" transform="translate(-1.69)"/><path class="cls-1" d="M197.41,242.28a.55.55,0,0,1-.56-.54v-8.06a.53.53,0,0,1,.17-.38.56.56,0,0,1,.78,0,.55.55,0,0,1,.15.38v2.7l-.27.05a4.12,4.12,0,0,1,.32-1.25,4.26,4.26,0,0,1,.71-1.14,3.56,3.56,0,0,1,1.07-.85,3,3,0,0,1,1.39-.32,1.69,1.69,0,0,1,.63.13.46.46,0,0,1,.31.45.58.58,0,0,1-.14.41.47.47,0,0,1-.35.14.86.86,0,0,1-.35-.09,1.13,1.13,0,0,0-.49-.09,2,2,0,0,0-1,.3,3.63,3.63,0,0,0-.92.8,4.53,4.53,0,0,0-.66,1.13,3.43,3.43,0,0,0-.24,1.25v4.44a.55.55,0,0,1-.54.54Z" transform="translate(-1.69)"/><path class="cls-1" d="M207.49,242.46a4.92,4.92,0,0,1-2.46-.59,4.22,4.22,0,0,1-1.64-1.66,4.92,4.92,0,0,1-.6-2.48,5.19,5.19,0,0,1,.61-2.61,4.39,4.39,0,0,1,1.56-1.66,3.9,3.9,0,0,1,2-.59,4.23,4.23,0,0,1,1.53.28,3.92,3.92,0,0,1,1.33.83,4.22,4.22,0,0,1,.93,1.34,4.56,4.56,0,0,1,.38,1.83.47.47,0,0,1-.16.37.51.51,0,0,1-.38.16h-7.22l-.21-1h7.07l-.23.22v-.36a2.62,2.62,0,0,0-.54-1.43,3.18,3.18,0,0,0-1.13-.9,3.13,3.13,0,0,0-1.37-.32,3.22,3.22,0,0,0-1.11.22,2.85,2.85,0,0,0-1,.68,3.4,3.4,0,0,0-.74,1.17,4.28,4.28,0,0,0-.29,1.68,4.17,4.17,0,0,0,.43,1.92,3.29,3.29,0,0,0,1.24,1.37,3.62,3.62,0,0,0,2,.51,3.33,3.33,0,0,0,1.12-.18,3.16,3.16,0,0,0,.89-.48,3.8,3.8,0,0,0,.64-.62.56.56,0,0,1,.38-.16.42.42,0,0,1,.33.14.47.47,0,0,1,.14.32.49.49,0,0,1-.18.38,4.9,4.9,0,0,1-1.41,1.13A3.89,3.89,0,0,1,207.49,242.46Z" transform="translate(-1.69)"/><path class="cls-1" d="M221,233.09a.49.49,0,0,1,.38.16.57.57,0,0,1,.16.39v8.1a.52.52,0,0,1-.17.38.49.49,0,0,1-.37.16.53.53,0,0,1-.41-.16.54.54,0,0,1-.15-.38V239.6l.32-.12a2.12,2.12,0,0,1-.28,1,3.33,3.33,0,0,1-.76,1,4.19,4.19,0,0,1-1.14.73,3.77,3.77,0,0,1-1.44.27,3.91,3.91,0,0,1-2.17-.63,4.36,4.36,0,0,1-1.51-1.72,5.57,5.57,0,0,1-.55-2.47,5.26,5.26,0,0,1,.56-2.47,4.35,4.35,0,0,1,1.51-1.69,3.88,3.88,0,0,1,2.15-.61,3.93,3.93,0,0,1,1.45.27,3.82,3.82,0,0,1,1.17.74,3.42,3.42,0,0,1,.79,1.07,3,3,0,0,1,.28,1.25l-.38-.27v-2.29a.56.56,0,0,1,.15-.39A.53.53,0,0,1,221,233.09Zm-3.75,8.37a3,3,0,0,0,1.69-.5,3.26,3.26,0,0,0,1.16-1.37,4.3,4.3,0,0,0,.43-2,4.12,4.12,0,0,0-.43-1.9,3.33,3.33,0,0,0-1.16-1.35,2.94,2.94,0,0,0-1.69-.49,3.13,3.13,0,0,0-1.68.47,3.23,3.23,0,0,0-1.17,1.33,4.29,4.29,0,0,0-.42,1.94,4.42,4.42,0,0,0,.41,2,3.26,3.26,0,0,0,1.16,1.37A3,3,0,0,0,217.21,241.46Z" transform="translate(-1.69)"/><path class="cls-1" d="M228.28,232.87a6.11,6.11,0,0,1,1.6.19,3.58,3.58,0,0,1,1.16.51.9.9,0,0,1,.45.7.61.61,0,0,1-.14.36.44.44,0,0,1-.35.17.63.63,0,0,1-.35-.1,1.52,1.52,0,0,1-.26-.25,1,1,0,0,0-.38-.27,2.42,2.42,0,0,0-.68-.2,4.92,4.92,0,0,0-1-.08,3.31,3.31,0,0,0-1.81.5,3.68,3.68,0,0,0-1.28,1.35,3.89,3.89,0,0,0-.47,1.91,4.23,4.23,0,0,0,.44,1.94,3.33,3.33,0,0,0,1.24,1.36,3.46,3.46,0,0,0,1.85.5,3.91,3.91,0,0,0,1.11-.13,3.41,3.41,0,0,0,.69-.29,2.23,2.23,0,0,0,.5-.38.52.52,0,0,1,.42-.19.45.45,0,0,1,.34.13.51.51,0,0,1,.12.35.93.93,0,0,1-.42.64,3.59,3.59,0,0,1-1.16.61,5,5,0,0,1-1.71.26,4.37,4.37,0,0,1-2.35-.63,4.27,4.27,0,0,1-1.58-1.71,5.25,5.25,0,0,1-.57-2.46,5,5,0,0,1,.58-2.4,4.51,4.51,0,0,1,1.6-1.73A4.31,4.31,0,0,1,228.28,232.87Z" transform="translate(-1.69)"/><path class="cls-1" d="M237.77,233a3.19,3.19,0,0,1,1.83.49,2.82,2.82,0,0,1,1,1.31,5,5,0,0,1,.33,1.84v5.09a.55.55,0,0,1-1.1,0v-5.09a3.66,3.66,0,0,0-.22-1.32,2.07,2.07,0,0,0-.72-1,2.24,2.24,0,0,0-1.34-.36,3,3,0,0,0-1.43.36,3.05,3.05,0,0,0-1.09,1,2.21,2.21,0,0,0-.42,1.32v5.09a.55.55,0,0,1-.54.54.52.52,0,0,1-.4-.16.55.55,0,0,1-.16-.38V229.5a.5.5,0,0,1,.17-.37.54.54,0,0,1,.39-.17.51.51,0,0,1,.39.17.51.51,0,0,1,.15.37v5.84l-.41.63a2.33,2.33,0,0,1,.35-1.09,3.71,3.71,0,0,1,.82-1,4.08,4.08,0,0,1,1.12-.66A3.16,3.16,0,0,1,237.77,233Z" transform="translate(-1.69)"/><path class="cls-1" d="M243.94,242.28a.58.58,0,0,1-.47-.19.84.84,0,0,1-.16-.51v-.38a.77.77,0,0,1,.16-.5.61.61,0,0,1,.47-.18h.13a.61.61,0,0,1,.47.18.77.77,0,0,1,.16.5v.38a.84.84,0,0,1-.16.51.58.58,0,0,1-.47.19Z" transform="translate(-1.69)"/><path class="cls-1" d="M165.38,0V20.78a6.37,6.37,0,0,0,6.41,6.29H192Z" transform="translate(-1.69)"/><path class="cls-2" d="M134,49.9h-7.13a18.62,18.62,0,0,0-18.57,18.56v3.06a18.62,18.62,0,0,0,18.57,18.56H134a18.62,18.62,0,0,0,18.57-18.56V68.46A18.62,18.62,0,0,0,134,49.9Zm4.23,21.64a1.77,1.77,0,0,1-1.28.5h-4.48v4.19a2,2,0,0,1-.58,1.47,2,2,0,0,1-1.5.58,2,2,0,0,1-1.49-.58,1.93,1.93,0,0,1-.59-1.47V72h-4.39a1.74,1.74,0,0,1-1.79-1.79,1.63,1.63,0,0,1,.51-1.25,1.8,1.8,0,0,1,1.28-.48h4.39V63.75a1.94,1.94,0,0,1,.6-1.47,2.1,2.1,0,0,1,1.51-.58,2,2,0,0,1,1.49.58,2,2,0,0,1,.56,1.47v4.77h4.48a1.77,1.77,0,0,1,1.28.49,1.7,1.7,0,0,1,.51,1.27A1.68,1.68,0,0,1,138.2,71.54Z" transform="translate(-1.69)"/><path class="cls-3" d="M197.19,103.47l-12.9-11.22a4.73,4.73,0,0,0-7.82,3.57v4.62H158.15a3.35,3.35,0,0,0-3.35,3.34v6.5a3.36,3.36,0,0,0,3.35,3.35h18.32v4.62a4.72,4.72,0,0,0,7.82,3.56l12.9-11.21A4.73,4.73,0,0,0,197.19,103.47Z" transform="translate(-1.69)"/><path class="cls-1" d="M187.75,123.31V129a6.81,6.81,0,0,1-6.92,6.69H80A6.81,6.81,0,0,1,73.06,129V11A6.81,6.81,0,0,1,80,4.27h81.13v16a11.09,11.09,0,0,0,11.19,11h15.45v59.5L192,94.47V27H172.3a6.82,6.82,0,0,1-6.92-6.7V0H80A11.09,11.09,0,0,0,68.79,11V129A11.09,11.09,0,0,0,80,140H180.83A11.09,11.09,0,0,0,192,129v-9.45Z" transform="translate(-1.69)"/><path class="cls-1" d="M80.8,25.68a1.44,1.44,0,0,1-1.6-1.6v-.45A1.44,1.44,0,0,1,80.8,22h.35a1.45,1.45,0,0,1,1.6,1.6v.45a1.45,1.45,0,0,1-1.6,1.6Z" transform="translate(-1.69)"/><path class="cls-1" d="M92.24,11.17a10,10,0,0,1,2.66.32,4.35,4.35,0,0,1,1.76.9,1.81,1.81,0,0,1,.62,1.37,1.7,1.7,0,0,1-.32,1,1.05,1.05,0,0,1-.93.47,1.81,1.81,0,0,1-.71-.12,2,2,0,0,1-.49-.31,2.53,2.53,0,0,0-.51-.35,2.59,2.59,0,0,0-.81-.25,5.65,5.65,0,0,0-.82-.09,4.29,4.29,0,0,0-2.3.58,3.93,3.93,0,0,0-1.46,1.59,5.16,5.16,0,0,0-.5,2.31A4.85,4.85,0,0,0,89,20.87a4,4,0,0,0,1.44,1.58,3.78,3.78,0,0,0,2.12.59A7.68,7.68,0,0,0,93.66,23a2.8,2.8,0,0,0,.8-.24,4.76,4.76,0,0,0,.66-.45A1.38,1.38,0,0,1,96,22a1.31,1.31,0,0,1,1.07.44,1.59,1.59,0,0,1,.37,1.08,1.53,1.53,0,0,1-.74,1.21,5.94,5.94,0,0,1-2,.88,10,10,0,0,1-2.63.33,6.74,6.74,0,0,1-3.66-1,6.5,6.5,0,0,1-2.38-2.65,8.31,8.31,0,0,1-.84-3.76,8,8,0,0,1,.89-3.86,6.63,6.63,0,0,1,2.48-2.61A7,7,0,0,1,92.24,11.17Z" transform="translate(-1.69)"/><path class="cls-1" d="M98.94,23.49a1.44,1.44,0,0,1-.24-1,1.28,1.28,0,0,1,.69-1,1.38,1.38,0,0,1,1.84.27,6.63,6.63,0,0,0,1.63,1.2,4.81,4.81,0,0,0,2.13.42,5,5,0,0,0,.88-.12,1.68,1.68,0,0,0,.84-.42,1.34,1.34,0,0,0,.36-1,1.16,1.16,0,0,0-.4-.93,3.48,3.48,0,0,0-1-.59c-.44-.16-.92-.31-1.46-.45s-1.11-.34-1.69-.54a6.86,6.86,0,0,1-1.59-.76,3.57,3.57,0,0,1-1.17-1.24,3.79,3.79,0,0,1-.45-1.94,3.5,3.5,0,0,1,.74-2.27,5,5,0,0,1,1.94-1.44,6.23,6.23,0,0,1,2.49-.51,8.21,8.21,0,0,1,1.73.2,6.74,6.74,0,0,1,1.74.64,4.47,4.47,0,0,1,1.39,1.16,1.91,1.91,0,0,1,.34,1,1.14,1.14,0,0,1-.51,1,1.31,1.31,0,0,1-.93.28,1.46,1.46,0,0,1-.88-.36,3.09,3.09,0,0,0-1.21-.94,4.2,4.2,0,0,0-1.75-.34,4.59,4.59,0,0,0-.87.09,1.63,1.63,0,0,0-.81.4,1.23,1.23,0,0,0-.35,1,1.28,1.28,0,0,0,.4,1,3.06,3.06,0,0,0,1.08.58c.46.15.94.3,1.46.44s1.07.31,1.62.51a6.65,6.65,0,0,1,1.53.77,3.82,3.82,0,0,1,1.12,1.24,4,4,0,0,1,.42,1.94,3.48,3.48,0,0,1-.8,2.32,5,5,0,0,1-2,1.45,6.38,6.38,0,0,1-2.45.49,9.66,9.66,0,0,1-3.15-.54A5.43,5.43,0,0,1,98.94,23.49Z" transform="translate(-1.69)"/><path class="cls-1" d="M113.26,11.44a1.75,1.75,0,0,1,.93.25,1.51,1.51,0,0,1,.64.76l3.92,9-.58.27,4-9.2a1.41,1.41,0,0,1,1.41-1,1.45,1.45,0,0,1,1.08.42,1.37,1.37,0,0,1,.41,1,1.55,1.55,0,0,1-.06.4l-.15.4-5,11a1.52,1.52,0,0,1-1.36,1,1.45,1.45,0,0,1-1-.19,1.67,1.67,0,0,1-.71-.83l-5-11-.12-.35a1.85,1.85,0,0,1-.07-.51,1.46,1.46,0,0,1,.43-.95A1.49,1.49,0,0,1,113.26,11.44Z" transform="translate(-1.69)"/></g></g></svg>