<svg xmlns="http://www.w3.org/2000/svg" viewBox="0 0 290.57 71.13"><g id="Layer_2" data-name="Layer 2"><g id="Layer_1-2" data-name="Layer 1"><path d="M25.26,6.36H15.48V70.82H9.86V6.36H0V0H25.25V6.36Z"/><path d="M56.85,70.82H51.56v-1.4q-3.2.57-6.38,1.09a43.69,43.69,0,0,1-6.34.62c-2.94,0-4.4-1.86-4.4-5.58V51.23q0-5.79,4.57-5.79H51.66V32.31H40.1v8.58H34.89V32.41c0-3.9,1.51-5.84,4.53-5.84H52.35q4.53,0,4.53,5.84V70.82Zm-5.21-6.25V50.82h-12V64.88Z"/><path d="M94.87,60a12.3,12.3,0,0,1-2.38,7.73,7.28,7.28,0,0,1-6,3.08H72.29V0h5.37V28L84,27a40.84,40.84,0,0,1,6.34-.67q4.49,0,4.49,5.64V60Zm-5.38-1V32.72l-11.84.41V64.76h7.44C88,64.77,89.49,62.84,89.49,59Z"/><path d="M124.4,70.82h-7.64q-4.53,0-4.53-5.84V32.62H107.5v-6h4.73V10.9h5.29V26.57h6.87v6h-6.87V64.77h6.87v6Z"/><path d="M143.59,18.15h-5.46V10.9h5.46Zm-.08,52.67h-5.29V26.57h5.29Z"/><path d="M198.78,70.82h-5.37V32.72l-11.72.41V70.81h-5.33V32.71l-11.73.43V70.82h-5.37V26.57h5.37V28c2.1-.34,4.2-.71,6.3-1.09a41.64,41.64,0,0,1,6.34-.62,4,4,0,0,1,3.64,1.91q3.39-.57,6.75-1.19a45.15,45.15,0,0,1,6.67-.72q4.44,0,4.44,5.64V70.82Z"/><path d="M219.74,70.82h-5.29V26.57h5.29Zm.08-52.67h-5.46V10.9h5.46Z"/><path d="M254.33,70.82H233.64V67.67L248,32.73H235.13V26.58h19.19v3.21L239.93,64.68h14.39v6.14Z"/><path d="M290.57,65c0,3.9-1.51,5.84-4.53,5.84H273.11q-4.53,0-4.53-5.84V32.42c0-3.9,1.51-5.84,4.53-5.84H286q4.53,0,4.53,5.84V48.5l-1.82,2.43H273.8V65.08h11.56v-9.2h5.21Zm-5.22-19.54V32.31H273.79V45.44Z"/></g></g></svg>